<mxfile host="65bd71144e">
    <diagram id="L-UV2xLscjFE4Or3zBRZ" name="Page-1">
        <mxGraphModel dx="1992" dy="517" grid="0" gridSize="10" guides="1" tooltips="1" connect="1" arrows="1" fold="1" page="1" pageScale="1" pageWidth="827" pageHeight="1169" math="0" shadow="0">
            <root>
                <mxCell id="0"/>
                <mxCell id="1" parent="0"/>
                <mxCell id="2" value="" style="rounded=0;whiteSpace=wrap;html=1;fillColor=#F85757;strokeColor=#b85450;" parent="1" vertex="1">
                    <mxGeometry x="14" y="130" width="340" height="410" as="geometry"/>
                </mxCell>
                <mxCell id="3" value="FRONT END" style="text;html=1;align=center;verticalAlign=middle;resizable=0;points=[];autosize=1;strokeColor=none;fillColor=none;strokeWidth=1;fontStyle=1;fontSize=20;" parent="1" vertex="1">
                    <mxGeometry x="134" y="135" width="130" height="30" as="geometry"/>
                </mxCell>
                <mxCell id="4" value="" style="rounded=0;whiteSpace=wrap;html=1;fillColor=#60a917;strokeColor=#2D7600;fontColor=#ffffff;" parent="1" vertex="1">
                    <mxGeometry x="474" y="130" width="310" height="410" as="geometry"/>
                </mxCell>
                <mxCell id="5" value="BACK END" style="text;html=1;align=center;verticalAlign=middle;resizable=0;points=[];autosize=1;strokeColor=none;fillColor=none;fontSize=20;fontStyle=1" parent="1" vertex="1">
                    <mxGeometry x="569" y="135" width="120" height="30" as="geometry"/>
                </mxCell>
                <mxCell id="6" value="http://localhost:4200" style="text;html=1;align=center;verticalAlign=middle;resizable=0;points=[];autosize=1;strokeColor=none;fillColor=none;fontSize=16;" parent="1" vertex="1">
                    <mxGeometry x="119" y="175" width="160" height="20" as="geometry"/>
                </mxCell>
                <mxCell id="7" value="http://localhost:8000" style="text;html=1;align=center;verticalAlign=middle;resizable=0;points=[];autosize=1;strokeColor=none;fillColor=none;fontSize=16;" parent="1" vertex="1">
                    <mxGeometry x="549" y="175" width="160" height="20" as="geometry"/>
                </mxCell>
                <mxCell id="12" style="edgeStyle=none;html=1;entryX=0;entryY=0.5;entryDx=0;entryDy=0;" parent="1" source="9" target="11" edge="1">
                    <mxGeometry relative="1" as="geometry"/>
                </mxCell>
                <mxCell id="9" value="ProductModule" style="rounded=0;whiteSpace=wrap;html=1;verticalAlign=top;" parent="1" vertex="1">
                    <mxGeometry x="24" y="210" width="170" height="170" as="geometry"/>
                </mxCell>
                <mxCell id="10" value="ProductCardComponent" style="rounded=0;whiteSpace=wrap;html=1;" parent="1" vertex="1">
                    <mxGeometry x="34" y="240" width="150" height="40" as="geometry"/>
                </mxCell>
                <mxCell id="14" style="edgeStyle=none;html=1;entryX=0;entryY=0.5;entryDx=0;entryDy=0;" parent="1" source="11" target="4" edge="1">
                    <mxGeometry relative="1" as="geometry"/>
                </mxCell>
                <mxCell id="11" value="ProductService" style="shape=ext;double=1;rounded=0;whiteSpace=wrap;html=1;verticalAlign=top;" parent="1" vertex="1">
                    <mxGeometry x="224" y="255" width="120" height="80" as="geometry"/>
                </mxCell>
                <mxCell id="13" value="&lt;span&gt;HttpClient&lt;/span&gt;" style="rounded=0;whiteSpace=wrap;html=1;" parent="1" vertex="1">
                    <mxGeometry x="234" y="290" width="100" height="35" as="geometry"/>
                </mxCell>
                <mxCell id="15" value="HTTP / HTTPS&lt;br&gt;Protocol" style="rounded=0;whiteSpace=wrap;html=1;" parent="1" vertex="1">
                    <mxGeometry x="374" y="265" width="90" height="60" as="geometry"/>
                </mxCell>
                <mxCell id="16" value="REST API" style="rounded=0;whiteSpace=wrap;html=1;verticalAlign=top;fontStyle=1;fontSize=14;" parent="1" vertex="1">
                    <mxGeometry x="504" y="210" width="250" height="270" as="geometry"/>
                </mxCell>
                <mxCell id="17" value="SHOP" style="rounded=0;whiteSpace=wrap;html=1;" parent="1" vertex="1">
                    <mxGeometry x="574" y="250" width="145" height="30" as="geometry"/>
                </mxCell>
                <mxCell id="19" value="GET" style="rounded=0;whiteSpace=wrap;html=1;fillColor=#60a917;fontColor=#ffffff;strokeColor=#2D7600;" parent="1" vertex="1">
                    <mxGeometry x="514" y="255" width="50" height="20" as="geometry"/>
                </mxCell>
                <mxCell id="21" value="SHOP" style="rounded=0;whiteSpace=wrap;html=1;" parent="1" vertex="1">
                    <mxGeometry x="574" y="290" width="145" height="30" as="geometry"/>
                </mxCell>
                <mxCell id="22" value="POST" style="rounded=0;whiteSpace=wrap;html=1;fillColor=#e3c800;fontColor=#000000;strokeColor=#B09500;" parent="1" vertex="1">
                    <mxGeometry x="514" y="295" width="50" height="20" as="geometry"/>
                </mxCell>
                <mxCell id="23" value="SHOP" style="rounded=0;whiteSpace=wrap;html=1;" parent="1" vertex="1">
                    <mxGeometry x="574" y="330" width="145" height="30" as="geometry"/>
                </mxCell>
                <mxCell id="24" value="PUT" style="rounded=0;whiteSpace=wrap;html=1;fillColor=#0050ef;fontColor=#ffffff;strokeColor=#001DBC;" parent="1" vertex="1">
                    <mxGeometry x="514" y="335" width="50" height="20" as="geometry"/>
                </mxCell>
                <mxCell id="25" value="SHOP" style="rounded=0;whiteSpace=wrap;html=1;" parent="1" vertex="1">
                    <mxGeometry x="574" y="370" width="145" height="30" as="geometry"/>
                </mxCell>
                <mxCell id="26" value="PATCH" style="rounded=0;whiteSpace=wrap;html=1;" parent="1" vertex="1">
                    <mxGeometry x="514" y="375" width="50" height="20" as="geometry"/>
                </mxCell>
                <mxCell id="27" value="SHOP" style="rounded=0;whiteSpace=wrap;html=1;" parent="1" vertex="1">
                    <mxGeometry x="574" y="410" width="145" height="30" as="geometry"/>
                </mxCell>
                <mxCell id="28" value="DELETE" style="rounded=0;whiteSpace=wrap;html=1;fillColor=#e51400;fontColor=#ffffff;strokeColor=#B20000;" parent="1" vertex="1">
                    <mxGeometry x="514" y="415" width="50" height="20" as="geometry"/>
                </mxCell>
                <mxCell id="29" value="API Endpoints" style="rounded=0;whiteSpace=wrap;html=1;fillColor=#60a917;fontColor=#ffffff;strokeColor=#2D7600;fontStyle=1;fontSize=13;" parent="1" vertex="1">
                    <mxGeometry x="654" y="460" width="110" height="50" as="geometry"/>
                </mxCell>
                <mxCell id="31" value="" style="shape=image;verticalLabelPosition=bottom;labelBackgroundColor=#ffffff;verticalAlign=top;aspect=fixed;imageAspect=0;image=https://ichi.pro/assets/images/max/724/1*lr7j23Iu5f8b4Yghhjz22g.png;" parent="1" vertex="1">
                    <mxGeometry x="294" y="90" width="120" height="120" as="geometry"/>
                </mxCell>
                <mxCell id="32" value="" style="shape=image;verticalLabelPosition=bottom;labelBackgroundColor=#ffffff;verticalAlign=top;aspect=fixed;imageAspect=0;image=https://img.icons8.com/color/480/nodejs.png;" parent="1" vertex="1">
                    <mxGeometry x="697" y="90" width="122" height="122" as="geometry"/>
                </mxCell>
                <mxCell id="33" value="" style="shape=image;verticalLabelPosition=bottom;labelBackgroundColor=#ffffff;verticalAlign=top;aspect=fixed;imageAspect=0;image=data:image/png,iVBORw0KGgoAAAANSUhEUgAAAUwAAAHiCAYAAACDePXBAAAAAXNSR0IArs4c6QAAAARnQU1BAACxjwv8YQUAAAAJcEhZcwAACxIAAAsSAdLdfvwAACI0SURBVHhe7d1tjFzVfcfxO7PYhrGxDEsUQ20KUcAUGsVGIsJUAVOkgCoh3BcQ9U1wmigv2qAAitIoVRXnTYiiFKhK+6KiBfIuoWpASBVORMB9wJRIGEveBTsoPMyEmLCL2dndmfU83Ns5s2fsfZiHMzPn/u89534/0mjPhUAIOD/Of/7n/G8AAAAAAAAAAAAAAAAAAAAAAAAAAAAAU1EMn32tjy3d/vzjfkz++rr9cT5+THT742x8bP466efF1qfbf/+4n4Otjwn1v7PbHz/OR/1vyqS8/glkzSP6Z5z2tz5SwQwBBCayanfrc//yMhbbWp8nlpfwBYGJLPtu66OCLQ5x/rmREAITWaYCLY7SPO7dKxJCYCLrDrQ+tr9nlPh+FAkgMAG73zWqnSWNHk8RmEAQXNH6mB7T6UeV+Oq7S3iKwASWfaP1UcE5DlWK0+jxGIEJLBu3AaTKcPV9KDxGYALnqIPm6jMKGj0ZQGACq41SVqtGjzpKBM8RmMBq6nvMYc5Qqv88jZ6MIDCB9VQAmjaAaPRkCIEJdGdyNlM1ekb9zhMOIjCB7ky63gzXyBgCE+itX7mtDrqPe24TjiEwgd5UWHZr6NDoySgCE+iv25EhSvGMIjCBwVYeSmeKeobl9M+kqPeD2PZA6/P68nJscby75NbW56XlZU9x/H1JI5Nff2n5e6F+XT3Z+hxtfdLw3eX3Wh+TgSEq3G3/Ola/ftWvYwjrvFQpSx/J3Yn6P1S3v4ZxPjam+gyj219DEp/TrY/aaXb7fUl8TP85qF9v3f74cT68BA1AX6oBxBT1jCMwAcAQgQkAhghMADBEYAKAIQITAAwRmABgiMAEAEMEJgAYIjABwBCBiawZdI8/DrZmGyBhBCay5nDr8+jyUsQzrc+zy0u4jsBEFqlJP+8sL2P1cevz5eUlfEBgIoukgkwFs/rvgicITGSV+i5TlctxUX9+ydIfAghMZJnaZcaxA6QU9xSBiSyLK9ikviOFMAITWafKcpuluTpCRCnuKQITWH5fj63SnFLcYwQmsFw+qzJ6XOrPwSF1j/kYmOptdupthDY+yA5VRo9zC0gFpfQL4pISx4vVTD6Jv96YHSZwzjhdc1XWw3MEJnCOKs3/YXk5lHF3p3AEgQmspsrqYb6HtPX9JxxAYALrDdPpHqeMh2MITGA9tcM02TWq85uU4hlCYALdqdK8320drj9mEIEJ9NYvECnFM4jABHrrNXHI9nVKOILABPpbO0hD7So5c5lRBCbQ39rvKtcGKDKEwAQGU6V5pyPOJKIMIzABM3/e+qg5BcgwAhMADBGYAGCIwAQAQwQmABgiMAHAEIEJAIYITAAwlPR7a17UP21S19ZsvYgq7X99gxxofe5dXlrzVOvz5PJShO1/BtJ//UqS/xx2tz6PLC+dJ/n/HQAAAAAAAAAAAAAAAAAAAAAAAAAAAAAAAAAAAAAAAAAAAAAAAAAAAAAAAAAAAAAAAAAAAAAAAOty9+zceuDunVvv1c8AgBUOHv/wganymdfVOnfH9i37H7/hsp+1fw8AYJVrn3/ronI9/Fit83N6AQBYrxOWSl7/BAAMkJ8qL7VrcwDAakdmKy/pZVt+5XYTANAbJTkA9DBXb67aULYDc+22EwAQBNPl2jG9bGOHCQCG2oG5dtsJAFh9pEhpB+babScAIAim5pZv+HRQkgOAoXZglir1d9pPAICzStXV2dgOzGKlQWACwBrFNZtJSnIAMLRckq/ZdgJA1h3XI91W0iU5gQkAK813OW5JSQ4Ahs4GZrftJwBk1ZHZ6mG9POtsYHbbfgIAzqEkB4Auuo2+PBuY3bafAJBVa69FKuwwAcDQ2cBk8joAnFPud6yo2/YTALKq8y7ylSjJAcDQ2cDkeiQALCsu1rrmYU7/bCvdeXWkl0Ai8hNBsOECCh+sV6+GQdjUDzFT7zm7++XSrfrxLAITqTKxMRcULiYwsV7lozBo1mQiqldgrvqV2WsbCgBJkwpLpVcTfFVglpYYJAwA5UY4p5erUPsAgKFVgclZTABpJFmOK0dmqi/p5SqrArPXNhQAQEkOwAGR8PmdbtcilVWB2WsbCgBJCut6IaTbtUiFHSYAGFr9HSZT1wGkUNiUq8nLtd6T21YFZq9tKAAkSepKpDI1v9QzBynJAcDQusDstx0FgCSEDbmSvLjY+8bjusDstx0FgCREoV4IKC3V39XLdSjJAcDQusDstx0FAGnS1yKn+1wRXxeY/bajAOC7uT4vhKQkBwBD6wKz33YUAKQ1a3ohRE1b18t11gVmv+0oAGQZJTmAVIsERxUNOoe+LjD7bUcBQFpTcFLRoHPo7DABwFDXwOR6JIC0iAQnFc0NmNjWNTC5HgkgLSQnFU2Xa8f0sitKcgAw1DUwB21LAUCC5JQipVSp970a3jUwB21LAUCC5JQipVjpP0uDkhwADHUNzEHbUgCQIH0tcqo8wjnMQdtSAPBRecDVcEpyADDUNTAHbUsBQEJDcHiwybXwroE5aFsKAFlESQ4gtQQHFRnpGZhMLQKQtLAuWZJXD+tlT+wwAcBQz8DkeiSAJEkO3VBMejc9A5PrkQCSJDnWTZkyeJ8ZJTkAGMrpn+t89VMX3X/wuk88oh/9UtgS5C+/Sj8gTTZsmggK2zboJ6RJVCkHzeKb+il+tUoUnCnLTd/Y+8LbVxYHXAvvGZh7Jwv7nr5px4v60Sv5a/YEG771mH5CmhQKhfYH6dM8+atg8Uf36qf41RZagbkgF5g7njvZMw87KMkBwFDPwCxV/Z1YFM2c0isApsKZ3+qVDMlrkcfLgxs+Ss/AHFTLuyya+Z1eATAVzsoGpqR5w2OUlOQAYKhvYJpuU10UvfdrvQJgQrJDrjRFJxUNvhap9A1M022qi6Lqgl4BMFKd14vsoiQHkDppm1LU0TcwTbepLorePKpXAEw0TryqV/GTnFKkHJmpGk1nY4cJAIYyG5hRhe9jAFPS/3+Rn1Rk4ViR6TbVRVGRLjlgKizJdsgj4cCcGvfgOgBgtb6BabpNdVFU4VgRYEr6WmSzIdf0KS7WjG819g1M022qizi4DpiTvhYZyQ0pCkpLDTuBCQA4Z2BgDrNddQ1DOAAz0jtMyWuRJq+m6BgYmMNsV10TzTLmDTARzb6vV/4pN8I5vRyIkhwADA0MzGG2q66h8QOYaRbf0Kv4SZbjyjDnzQcG5jDbVedwtAgwws24ZZTkAFIlrZOKlIGB6fP1yPDEa3oFoBf1tkhJYV0vhByZrdgryQEAyzIdmFyPBAaLKmW9khE25Wryci0c6vr34JJ8iO2qa+iSA4NJv8tHcrTb1PzSUKeAKMkBwJBRYA67bXUKZTnQl/S1yFB0UtFwNxmNAnPYbatLQgYJA31JX4uUnVRUf1cvjVCSA4Aho8AcdtvqEiYWAf35fC1yesir30aBOey21SkzTCwC+vH5WuRc3fKxIgDAMqPAHHbb6pKQs5hAT9LXIps1vRAy7Dlzo8AcdtvqlCpTWACYoSQHkBpRmkcVtRgF5lTZ43OYbx7VKwBrNU68qlcymoKTika59m0UmGWfS3IAMERJDqAn6SNFkeCkorl6c+iNoHFg+jy1KDxBWQ50E5b8nVQ0Xa4d00tj7DABwFBO/xzo8Rsu/dkd2y/crx+9suG+h4L8npv1U0pVFoIzX79dP/hrYmMuKFzMv8ezSE0pWpyRm7zx4OunvvzTYvlJ/WjE+FfmKNtXV0TvvaVXKVbYoheAnySnFCnFyvAzMvhXOQAYMg7MUqXOxKKE5a/Zo1eAf6SvRY5yvtw4MEfZvroimmXEG5A1o5wvpyQHAEPGgen19UhHJhbld12vV4B/GoLDg0c9V24cmF5fj+RFaAAMUJK7hKNF8FjKBxW1DRWYx8seDxJ24Hpk7vKr9ArwT1iXLMmrh/VyKEMF5vwIl9UBwBeU5A7JTW7XK8AvkkM3lFF7MkMF5qjbWBdEDgwSzl1yqV4BfpEc66ZMjfieMnaYAGBoqMD0+WiRK+9epvEDHzUbeiGkVB3tqvdQgTnqNtYFUdGNw+s5jhbBR+KTigQCEwCybKjAHHUb64Jo5pRepRvXI+EjyWuR45wnHyowR93GusCVEW8AxjPOeXJKcgAwNHRg+nw9MnJgalGOIcLwUFN0UtHo58mHDkyfr0dGVaYWAeiNktwxuQs4VgS/uDClqGPowPT6LKYL1yM5uA7PSE4pUo7MVEcaHqwMHZjlRjinlwCQKZTkDmIIB3wiP6lI8FjRONvZtAtPvKZX6Za7hDFv8EckHJhTUgfXASDLhv8O0+djRY68DC23k8YP/NFsyDV9iou1sW4rDh2Y42xn086Fg+tKrnChXgHuiwQnFZWWGrKBCQBZNVJgjrutTTMXhnBwPRI+kbwWOe458pECc9xtbZpFs26MeQMwvHHPkVOSA4ChEUtyj3eYDjR+8rsoyeEHyXJcGfcc+Yglef1dvfSPI0eLAMijJHcVL0ODB1yaVKSMFJjTHk8scuV6ZJ6pRfBAWNcLIUdmK/Il+ZzH7ycHgF4oyR2Vm2RiEdwXNuVq8nJt/I3eSIE57rY2zUIHhggrjHiDDyRHu03NL439VSI7TAAwlNM/hzZ9+6dPb92Y36YfvbLpsUN0oRNSKBTaHyRj6Sc/CGov/Fg/xW/h902x4Rs/fa/85IPHTn1ZP45k5B2mje1tWoVFN6YWAbaFpTf1SobspKLxz49TkgOAoZED0+vrkQ5MLALiEM78Vq/iJ30t0sb58ZED0+vrkTNMLEI2hbNygSnNxvlxSnIAMDT6DrNS97YkDx15VQVgU7Mo2/Bp1vRCiI3z46N/h1nx9zvMoDqvF0CG8Ot+IEpyAImIXBtV1DJyYE6VPT6HSUmODGqceFWvZDQFJxXZus49cmCWfZ5YxBBhAF1QkgNoiyqy32FGgpOK5upNKxu8sQLT66lFJ9yYWgTYIn0tUnJS0XS5dkwvx8IOEwAMjRWYtra5qSRcngBJk7wWGTZkO+S2zo2PFZi2trlpFL33ll4B2SB5LVJySpFi69w4JTkAGBorMH0+WsTEImSJ79cibZ0bHyswpzx+3W40S2AiQzy/Fmlrc0dJDgCGxgrMUpWJRYAPpK9FNgSHB9s8Lz5WYBY9HvHG9UgAa1GSAxDn4KCitrED83jZ48YPZTkyonnyV3olI6xLluTVw3o5trEDc97j2z5RlbIcwDmU5ACCqFLWq/hJDt1QbJ4XHzswbW530yZ6k4lFyAbJg+uSY90Um+fF2WECgKGxA9Pr65FMLEIGSL+LvNnQCyE2z4uPHZheX48s0iWH/6LZ9/VKiPikohQFJgBkhYWS3ONjRTOn9ArwV7P4hl7JkLwWafuc+Pgluc8H1xnxhgzw+bt62+fEKckBwJCVwCwu1rwdwsH1SPhO+lpkU3RSkd1z4lYCs7Rk530ZacT1SAAdlOQAxLg6pajDSmB6fRaTkhyekxweLDmlSDkyU7U2PFixEpjlRjinl/5hkDAAjZIcyDDpI0Xyk4pSeKzI9rY3TcITr+kV4J+wJPt63Ug4MG2fE8/pn2PZO1nY9/RNO17Uj34pbAnyl1+lHxC3DZsmgsK2DfrJbZvu+XYwsfMa/ZRO6kjR4o/u1U/xqy1EwZkFucvkO547aSXjOqz8ya7bumn3oVv+kOGRGNvExlxQuNiPb4oufPT/glzhQv2UTvWXnwmqT35HP8Wv+nEYNJZkGj/qfPjeX75zpX60wk6X3OPrkcCo0h6WivRot0hwUlEc58Np+gCAIWuBWa75O0gYGNZ5uz6nV+km+WoKRfJaZBznw60F5tT8EmU54Jqqv5OK4jgfTkkOxOGC9H9/ieFZC8zior8DOIBhpf04UYfktUjJclyJ43y4tcAsLdXf1UsA8BIlORCD/OQf6BU6XJ9UpFgLzGmPJxYBw8pfkv7AlB4cHNb1QsiR2Up6S/I5j99PDgAKJTkQg9zkZXqVXlGlrFcywqZcTR7XuXBrgRnH9hdwlQvfYUofWpcc7RbXuXB2mABgiMAELHPlDKb04I2wIVeSx3Uu3GpgUpYDakrRVr1Kt2j2fb2SITupKJ5z4ewwAcCQ1cCcs/z+DMBFE1ffoFfp1iy+oVfxk74WGde5cKuBOV2uHdNLACkn/QI0SXGdC7f6vosHd00efPDqye/qR6/kr9kT5Hddr5/Sq/GLnzj9amAfXlFx/he/HWy87Uv6Kb3KX7tWr+KndpiVj+S+xLz75dKtcfRUrAbmPTu3Hnh49/Yn9KNX8ntuDjbc95B+Sq/6D78ehG+6+3olHwJz8zefSn1ZzsvPRmP1V2ax4vGIN48HrQIw4/a/yrEeg2sT58K1SGmRD6OKWqwG5lTZ39dUhO/9Wq/SjXeoJ8+Fa5GSg4OVpuCkojjPg1sNzLLPE4scbqQAsIOS3DeXbNcLJMGVa5HSR4oiwUlFcZ4Htx6YPl+PDE+kv/ucu+RSvUISXLkWGZb8nVQU53lwdpgAYIjAHIYDNyPyO2n6JCm/w5FJRTNyk4okpxQppUo9tuONMZTk1cN66Z3ovbf0KsUKW/QCScgV3DjWJTnaTXJKkRLneXB2mABgyHpg+ny0KJr5nV6lm7r3jmSct+tzepVe0q+maNb0Qkic58GtB+aUx6/bjWbdCEygL8+v+ca5aaMk9xHXI5PD33uvWQ/MUjW+DlXSuB6JQVw4uC59LbIhODw47nPg1gOzGGNLP3FcjwQyjZLcRxwtSoQLQzeS4MmgorZYAvN42ePGjwNleY6SPBH5S9wITDU8WFJYlyzJ4z0HHktgznv8MrSoSlkOZBUluYdyk0wsSoIr1yKjSlmv4ic5dEOJ+xx4LIHp9VlMB96Xw8SiZLhyLVLy4LrkWDcl7uyJJTDLjXBOLwHAG5TkQ3LlXc40fuS5cC1ScuiG0mzohZC4z4HHEphHZqreDhGOim4cXs9xtAhdRLPv65UQ8UlFDgYmAPgonu8wfT5WNHNKr9Itv+t6vYKUiatv0Kv0ahbf0CsZTcHhwRLnv2MJzCmfD647MuIN6Eb85WeCJbnE+W9KcsACV44UYTyxBWZxsebtEA4Xdpk5hgiLmtj5R3qVbtLXIpuik4rifz1ObIFZWorvvRpJi2bd+B4TgF2U5J7KXcCxIkm5ycv0Ch0+TSnqiC0wvb4eycQirOHKaDfJ4cGSU4oUifPfsQWm19cjHRkkfN5dXyE4Y6aCcsNN+5245YPxUZJ7bOKuvww2Hnwy2PTYoWDDfQ8FE3/yZwzmsOC83bcF53/x28Hmv/uPYMtDvwguOPB9J85gSh8pkp9UFP+xopz+ad0d27fsf/yGy36mH72iXmO74VuP6Sf3qC5/ePS/g/DNo0F44rVU7ZgnNuaCwsXp+ve4ek+PCkm1i3QhGHtRHfLFH92rn+JXW4iCMwtyBzF3PHcytjzriO2/YO9kYd/TN+14UT96xfXAXEt9J9sO0FZ4qhBNUhoCU5XZE7tuCDa0QnLi6s95c8aSwBwfgTkC9b2gKnW91NptdoJThaj0mdMkAlMFogrGdkC2gtLXd/PUX34mqD75Hf0Uv+rHYdBYkmn8qHPfe3/5zpX6MTaxJnLpzqs9PFiwbNO//a9e+a1dvp842h6c3Dz6X7GX71KB2SmvVantwqtxbTjz3D+1P1IqH4ViB9fV63Xvfrl0q36MDYE5oqwE5lrt8r0VoGErPOMo3+MKTBWKahd5XmsH6VOZPQwCc3yxBub07Z8+vXVjfpt+9MrGH/47HeeWdni+1gpPtQu1cD7VVmCqQGw3alrh6HOZPYzKP98XNF5/QT/Fb+H3TbHhG4//5vSjB6c+fEA/xibWwFTfYarvMvWjVzb8zWNBfhf3tVdpleuqbFfleztAR/j+c5zAXO5kL+8gs1JmD6Py9wdED67Pn5I7V/TwydnvPXxi9qB+jI3st+vwW2FL+6zneV/52/YOXDXGzvuLbwT5PTe3f59tKhQ33valYPM3nwq2/st0UPirf2w/E5aIS6w7zIc/u/2Jey7fekA/ekWFggoHmFvZPOpVvvfbYXaO+6gyW+0mGak2nPLXrtWr+KnvLtV3mFLU95fqe0z9GJtYA/PBXZMHH7x68rv60Svq2qG6SYMRdY4vvabOf54r31cGZue4jyqzVUDyPeR4CMzxEZgjIjDt6hxfmph6ObjwM59x/lZNGkkGZuNMFFRP+xeYsX6HWYr5DW5JCh2YWOQSdeJAfcVRuP/hYNOdf01YWiY9ODis64UQibBUYg3MYsXfIcJB1Y33kwOwhy45kAFRpaxXMsKm3J2Vci0Ue0ttrIE5VV7ydohw0kMqgGE0i2/qlQzJ0W5T83I5E2tglutyyQ8AcaMkH0eK5kgC/YSzv9UrGWFDriQvLsr1SmIPTKnuVRLCIp1yuCGafV+vZEjdIVdKS/V39TJ27DABwFDsgTkn8J6NpEgP1wVG1Sy+oVfxkyzHlWnBN9TGHpjT5doxvfTPzCm9ANJN8gVokuW4MifYXKYkBwBDsQemz9cjKcnhAukzmM2aXgiRPO8de2D6fD0ymiUw4QDPr/FKnvemJAdgVRR5+yovgZK8ysQiIEmSr6VQmoKTiqTPeQuU5P4GJjd9gGyhJAc8J3mkSIkEJxVJn/MWCczjZbmDpdLUlHAgzcKSv5OKpM95iwTmvMe3fQBkByX5mML/+U92mUglNaGo9sKPg3BGblKR9LVI6XPesb4ErcPnl6GtpN6/nb9mT+vn59vvqMHwCoVC+4Phqe8qmydfDRonfhU0Xn9BfKSb4uvbIjsIzJiowMzvaoXn9Z9v/by+lQRb9O9BPwTmcNQtnnZIvv5L8eND3RCYFnz1Uxfdf/C6TzyiHzMpd/lVwYTagardZ2uN7gjM/tQuUu0eG+2QfEG8Az5IrRIFZ8pygXnt829dJHnTRyQw904W9j19044X9SNau02161zefe6hfF+BwFxPvSK3fvSF9k5S+l74sGoLrcBckAvMHc+dFMmwDgIzBdSOs12+t7//vFn/1mwiMJebNe1dpP4u0iUEpgU7CxuuOHLblW/rRwxwtnmkdp8ZK9+zGJidZk29FY7NVkgm0ayxRX1/qb7HlKDOd99x+N09+lGEWDqX7rza3xv5Mcpa8ygrgalKa7V7VOV2Gpo1tkgGpmr2qKaPfhRBYDrG9+aRr4Gpdo1q95jWZo0ti7NhENYJzLEd+dMr3t65eeMV+hE2eNg88ikwXWrW2DJ/Su5e5MMnZ7/38InZg/pRhFhgqqaPav7oR8TAh+aRy4F59kykg80aWwhMSwhMeS42j1wKTJ+aNTaooRuLH8oF5sGpDx94/DenH9WPIsQCUx1cVwfY9SOEudI8Sntgdpo17YZNRspsU77f8lHEAjOL1yPTLK3No7QFZqdZ095FtnaTvjZrbCAwLSIwUyxFzaM0BGZ7B9kKySw1a2yQvha594W3r5R+o4NYYHLbxx1JNo+SCEyaNXb4fstHITAxkGTzSCIwadbEg8C06Lqtm3YfuuUPmbTruLibR3EFZudGDc2a+FQ/DoPGkr/XIhXRhOa2j39sN49sBSbNGnm+X4tUCEzYY6F5NE5gdpo16idltjwC07Lp2z99euvG/Db9CM+N0jwaJjDPNmtSMm086yRv+agD6+rgun4UIxqY3PbJNpPmUb/AVGV1exepjvvQrEkd369FKgQmEtGrebQ2MGnWuCFqVeILHxCYVj382e1P3HP51gP6ETir0zwq7Lkx2HT6nfZ3kTRr3JGFWz6K6HvJS0v1d/USWCV679dB49l/DRa//7Vg6Sc/aO8oCUukjWhgAvCTmlQkqVxvir0pciXRwJyeO/O6XgLwSCQcmFPlZLJENDDnBN8fDAC2UZIDGFuzIXcnpbhYE51QtJJoYCbR1QIQv0iuQR6UlhrZCEwAcJl4YJZrfI8J+CYULMmnEmweiwfm1PwSnXLAM5IlebkRzumlOEpyADAkHphzCR04BRAPqZFuHUme5xYPzOly7ZheAsDQkjzPTUkOYCTqOmS9qt7jI7vDTJJ4YJaEX4sJwJ7GmVZAzofB4ofN9mdpTm7KekeS57nFA7NYSe7QKYDhqONC6n3janSbGhBcPR0GtcVIfNhGWlCSAzhLDQJWZbbaOS78vrWLnAmDM2X5XWQvSZ/jFg/MqTLnMIE0UWHYLrNnWyH5wXKZrUJT8mylqaTPcYsHZpmJRUCiVDmtymz1HnG1i1TldrvMrmeneTMqSnLAc6rMXtusUWV2Yymdu8h+iovJ9kASCUymFgHxWtmsUWW2L82apF9zww4T8EDamzW+IDABR7nUrLEl6dfcJFSSVw/rJQBDNGuSf80NO0wgpTrNGrVzdL1Z44tEApOjRUB37WbNwupmjSqzs3qzZq2kz3EnEphJTkwG0kQF4bpmzQLNml6S3mxRkgPCVjZrOgMsfG/W+CKRwCxVmViE7FjZrFEDLLhZM5o0nN9OJDCLjHiDx/o1a+A2SnLAApo18UvD620SC8zjZRo/cFenWdM5E0mzJn5peL1NYoE5z8vQ4JizAyxWNGs4E5ktlORAD50BFp1mzdkBFjRrEpGG19skFphPF8tPJT09GVhpXbNGD7CgWZM89RVeGs5v5/TPxOydLOzbe8kF+76wfctdf7x10279m5FRExtzQeFiuX+Pq11kYykI6q2gZOeYHmoz9fJHiy/9/NTis0dmqy+l5WRN4oG50tYN+W13bN+y/8aLC7fsnTx/387NG6/QvwsZEXdgqmaNasyonaT6yfeP6aHOWarBPId+t/DMVEqbwqkKzLWua+04915S2Hf79s13qZ2o/s3wWByB2QnHRq0VmOwiU6O4WHvnyOzSSz//YOHZl1th6cKMiVQH5lrt3efkBbfc/snN+9l9+slGYLbL7FY4qu8eOeaTLs+fmn/mldmlw4dOLTzj4gUWpwJzpZ2FDVfsnVTffW6+66aLN+/bujG/Tf8uOGyUwGw3a3Q4qg+HxdNDNWtemam8dKj9XaT7r6ZxNjDXonnkB9PAXA5HmjVpo5o1z7d2j698VDmcpmaNLd4E5ko0j9zVKzBp1qSXC80aW7wMzLVoHrljZWCebda0ym3K7PRwsVljSyYCcy2aR+mVn2j9opzItYMS6dA5E+lys8aWTAbmSjSPgPV8a9bYkvnAXIvmEbJoZbNG/eS9W90RmH3QPILP1M6xvYNs7SR9b9bYQmAOgeYRXKaaNYc+WHzmldnq4aw1a2whMMdA8whpRrPGPgLTEppHSAOaNfEiMGNC8wgSOmciadbIIDAF0DyCTTRrkkNgJoDmEYaxslmjdpH6NyMBBGYKdJpHN7ZClPIdaZ02DgIzdWgeZZNq1vz81EKrzK6+RLMmvQjMlFPl++2XbtlP88gvNGvcRGA6RDWPbpos7PvCJ7fcRfPIPTRr3EdgOqzTPLpx8vxb7th+4X79m5ESnTORNGv8QWB6hOZRsmjW+I/A9BTNIxmdZk0Wpo2DwMwMmkd2ZHnaOAjMTKJ5NJzOq2Fp1oDABM2jNWjWoBcCE+tkrXlEswamCEz05WvzSJ2JzMqrYWEPgYmhuNo8olkDGwhMjCztzaNOs4Zp47CFwIQ1STePmDaOuBGYiE3czaOVr4alWQMJBCZE2Goe0axBkghMJMK0eUSzBmlCYCJxK5tH127btLtUqb1DswYAAAAAAAAAAAAAAAAAkHpB8P+9vWcIPxi8GAAAAABJRU5ErkJggg==;" parent="1" vertex="1">
                    <mxGeometry x="45" y="286.77" width="32" height="46.46" as="geometry"/>
                </mxCell>
                <mxCell id="34" value="" style="shape=image;verticalLabelPosition=bottom;labelBackgroundColor=#ffffff;verticalAlign=top;aspect=fixed;imageAspect=0;image=data:image/png,iVBORw0KGgoAAAANSUhEUgAABLAAAAadCAYAAADHjLQOAAAABGdBTUEAALGPC/xhBQAAACBjSFJNAAB6JgAAgIQAAPoAAACA6AAAdTAAAOpgAAA6mAAAF3CculE8AAAABmJLR0QA/wD/AP+gvaeTAACAAElEQVR42uz9e4xl27oY9H1jzvWs7np07+rn3r0f9/og5UoXYyVRjEmkCPna5soY2/ENbwKywViEf4gNCmBCYiyCeQgpBuwI4zgykId9r03MBd+LbV5xBAFLKEIYjO37OPec0927e3dV997d1VVrjvxR1bXmrH7sfqw111hVv590dNZcu7pq1TfnGmuMr77xzRQAQNE2N3d+Y0r5p0Ti7aUUv3pvb+/PlPJ6tre3/7Gc4//ozMD7OzwcfPL06YNfEgmAi6kSAgAAAABKJoEFAAAAQNEksAAAAAAomgQWAAAAAEWTwAIAAACgaBJYAAAAABRNAgsAAACAoklgAQAAAFA0CSwAAAAAiiaBBQAAAEDRJLAAAAAAKJoEFgAAAABFk8ACAAAAoGgSWAAAAAAUTQILAAAAgKJJYAEAAABQNAksAAAAAIomgQUAAABA0SSwAAAAACiaBBYAAAAARZPAAgAAAKBoElgAAAAAFE0CCwAAAICiSWABAAAAUDQJLAAAAACKJoEFAAAAQNEksAAAAAAomgQWAAAAAEWTwAIAAACgaBJYAAAAABRNAgsAAACAoklgAQAAAFA0CSwAAAAAiiaBBQAAAEDRJLAAAAAAKJoEFgAAAABFk8ACAAAAoGgSWAAAAAAUTQILAAAAgKJJYAEAAABQNAksAAAAAIomgQUAAABA0SSwAAAAACiaBBYAAAAARZPAAgAAAKBoElgAAAAAFE0CCwAAAICiSWABAAAAUDQJLAAAAACKJoEFAAAAQNEksAAAlizn/AuiAADw/iSwAACWbH9//99OKf55kQAAeD8SWAAAPdjb2/vHUop/XSQAAN6dBBYAQD/y3t7ePxgR/0+hAAB4NxJYAAD9me3v7/1dEfEzQgEA8PYksAAA+vV8NBr+loj4L4QCAODtSGABAPTsyy+/fJxz8zdFxH8jGgAA304CCwBgBR4/fvzlYFD/moj4edEAAHgzCSwAgBV5+PDhdyPyj0XEPdEAAHi9gRAAAKzO/v7+X9ra2vqbI9KfiYjLIkKJUoqnOceziIic4+uU4vnJ48cpxdHJ472Uojl5/CilyBGRc45HJ99jlnPsHz9OhynlJ8dfmw5Syt+cPH6WUn56/Dh/k1I6OHn85OnTBxK9ABeYBBYAwIrt7+//5zs7O7+hafJPR8RERC6UZxHx9PhhehaR3/Jxepbz8XMpdR/PE0Cvftw01bOqal56PJvVz+p69jQi4vBw+Gw4PHwaEbG3t/eV0wTAqklgAQAU4NGjR39ue3v77845/m8RUYtIMZ5E5N+Xc/VNVeXHERFNk55XVf76+HE7GdQ8rarq2cnjr6uqeh4RMZvNHtd1fRQRsbe3txdxXKUEALw9CSwAgELs7e39sc3Nnd+aUv7DEZFEpAiXU0q/Yn//0U9ExEw4AGA1NHEHACjI48eP/khK8U+IRDlyjt+0tbX1r4ekIgCsjAQWAEBh9vb2/tmU4l8QiZKkv3dzc/v3igMArIYEFgBAgfb29v7RlOIPiUQ5Uor/7ebm9u8SCQDonwQWAECZ8t7e3m/POf6YUJQjpfjntre3/36RAIB+SWABAJRr9vjx3t8ZET8rFMVIOce/tr29/RNCAQD9kcACACjb88Gg/i0R8V8KRTHqnOOPbm1t/TqhAIB+SGABABTu4cOH+zk3vy4i/qJoFGMUkf745ubm3yAUALB8ElgAAGvg8ePHXw4G9Y9FxC+IRjE2Uqr+1M7Ozl8nFACwXBJYAABr4uHDh9/NufmxiLgnGsXYaZrm393e3v5CKABgeSSwAADWyOPHj/+7iPzrI+KJaJQi3c45fnZjY+OWWADAckhgAQCsmf39/f9vSvG3RMSBaBTjh4fD4Z/e2tq6KhQAsHgSWAAAa2hvb+/P5pz+toiYiUYZco4fjUg/fe3atcuiAQCLJYEFALCmHj9+9CdyTr81IrJoFON/cnDw/KciYiwUALA4ElgAAGvs8eNHfySl+N0iUZRfvb29/W9HRC0UALAYElgAAGtub2/v96YU/4JIlCPn+E2bm9v/ikgAwGJIYAEAnAN7e3v/aErxh0SiHCnFb9/c3P69IgEAH04CCwDgfMh7e3u/Pef440JRjpTiH9/c3P5dIgEAH0YCCwDg/Jg9frz5d6cU/5FQlCOl+Oc2N7d/m0gAwPuTwAIAOFe++7Su698QEX9BLIqRUoo/sL29/RNCAQDvRwILAOCcefjw4X7TzH5dRPy3olGMOuf4o1tbW79OKADg3UlgAQCcQ0+ePLk/GNQ/FhG/IBrFGEWkP765ufk3CAUAvBsJLACAc+rhw4e/2DT1j0fEA9EoxkZK1Z/a2dn55UIBAG9PAgsA4Bx78uThfx2RfzwinohGMXaapvnp7e3tL4QCAN6OBBYAwDm3v7//n6cUvzEiDkSjFOl2zvGzGxsbt8QCAL6dBBYAwAWwt7f3Z3JOf3tEzESjGD88HA7/9NbW1lWhAIA3k8ACALggHj9+9FMpxf9aJMqRc/xoRPp3r127dlk0AOD1JLAAAC6Qvb29PxCRf7dIFOVXHhw8/6mIGAsFALyaBBYAwAWzv7//z6QU/6JIFOVXb25u/1sRUQsFALxMAgsA4ALa29v7XSnFvyES5UgpfvPW1vbvFwkAeJkEFgDAxZT39vb+gZzjJ4WiKP/g5ub27xUGAOiSwAIAuLhmjx9v/l0pxX8sFOVIKf7xzc3t3yUSADAngQUAcKF992ld139zRPwFsShHSvHPbW5u/zaRAIBjElgAABfcw4cP95tm9usi4r8VjWKklOIPbG9v/4RQAIAEFgAAEfHkyZP7g0H9YxHxi6JRjDrn+KNbW1u/VigAuOgksAAAiIiIhw8f/mLT1H9TRDwUjWKMItJPbm5u/g1CAcBFJoEFAMCpJ08e/tcR+ccj4oloFGMjpepP7ezs/HKhAOCiksACAKBjf3//P0spflNEHIhGMXaapvnp7e3tL4QCgItIAgsAgJfs7e39B02T/o6ImIlGKdLtnONnNzY2bokFABeNBBYAAK/05Mmjn0wp/mGRKMoPD4fDP729vX1FKAC4SCSwAAB4rb29vX8tIv/vRKIcOceP5hw/fePGjUuiAcBFIYEFAMAb7e/v/x8i8r8kEkX5lU+fPvsTETEWCgAuAgksAAC+1f7+/u9MKf6wSBTlV29ubv9bEVELBQDnnQQWAABvI+/t7f32iPhpoShHSvGbt7a2/08iAcB5J4EFAMDbOtzf3/wtEfk/FYqi/I6tre1/RhgAOM8ksAAAeAfffVrX9a/POf4rsSjKP7G5uf07hQGA80oCCwCAd/LVV1/tzWbDH4+InxONcqQUv29zc/u3iQQA55EEFgAA7+ybb778XkT+sYi4KxrFSCnFH9je3v4JoQDgvJHAAgDgvezv7//3KcWvj4jHolGMOuf4o1tbW79WKAA4TySwAAB4b3t7e/9FVaW/JSIORKMYo4j0k5ubm79KKAA4LySwAAD4II8ePfpzOae/LSJmolGMjZSqf+fy5cs/IhQAnAcSWAAAfLDHjx/9iZTiHxKJonxUVdXPbm9vfyEUAKw7CSwAABZib2/vD0bkf1okSpJu5xw/e+nSpZtiAcA6k8ACAGBh9vf3//cR+V8WiaL88GAw+Jnt7e0rQgHAupLAAgBgofb39/+RiPx/FYly5Bw/mnP89I0bNy6JBgDrSAILAIBFy/v7+78tIv59oSjKr3z69NlPRcRYKABYNxJYAAAsw+Hly5f+FxHpzwtFUX5sc3P734qIWigAWCcSWAAALMX3vve9b3Ke/YaI+G9EoxwpxW/e2tr+/SIBwDqRwAIAYGkeP378YDCof01E/LxoFOUf3Nra+T3CAMC6kMACAGCpHj58+N2I/GMRcU80SpL/yc3N7d8pDgCsAwksAACWbn9//y9F5L85Ip6IRjlSit+3ubn9W0UCgNJJYAEA0Iv9/f3/PKX4jRFxIBrFSCnFH9ze3v4JoQCgZBJYAAD0Zm9v789E5L8vIhrRKEadc/zRra2tXysUAJRKAgsAgF7t7+//2xH5HxaJoowi0k9ubm7+KqEAoEQSWAAA9G5/f/9fjYjfKxJF2Uip+pOXL1/+EaEAoDQSWAAArMT+/t7vTin+kEgUZbeu65/Z3t7+QigAKIkEFgAAq5L39vZ+e0rxJ4SioJOS4+Oc42cvXbp0UzQAKIUEFgAAqzTb29v8OyLSnxeKovzwYDD4me3t7StCAUAJJLAAAFix7z7NefYbIuIvikU5co4fzTl++saNG5dEA4BVk8ACAGDlHj9+/GAwqH9NzvFd0SjKr3z69NlPRcRYKABYJQksAACK8PDhw19smurHI+KRaBTlx7a2tv+wtQMAq+RDCACAYnz99Vf/v6pKvykiDkSjKH/71tb27xcGAFZFAgsAgKI8evToP0wp/lcR0YhGUX7H1tbO7xEGAFZBAgsAgOLs7e393yPyPywSpcn/5Obm9u8UBwD6JoEFAECR9vf3/9WU4l8QibKkFL9vc3P7t4oEAH2SwAIAoFh7e3v/aET+IyJRlJRS/MHt7e3fIhQA9EUCCwCAkuX9/f2/PyL+tFAUpc45/s2tra1fKxQA9EECCwCA0h2ORsOfiIi/IBRFGUWkn9zc3PxVQgHAsklgAQBQvC+//PJx08x+XUT8d6JRlI2Uqn/n8uXLPyIUACyTBBYAAGvhyZMn91OKH4+Iu6JRlI/quv6ZnZ2dz4UCgGWRwAIAYG3s7e395ZTi10fEE9EoR87xcdPkn7106dJN0QBgGSSwAABYK3t7e/9FSvEbI+K5aBTllw0Gg5/Z3t6+IhQALJoEFgAAa2dvb+/P5Jx+e0Rk0ShHzvGjOec/GfHJVDQAWCQJLAAA1tLjx4/+LxHp94hEadL/bGvr8Z+MiLFYALAoElgAAKyt/f1H/3RE/iMiUZwf29ra/sPWGwAsig8UAADWWd7f3//7I+I/EIri/O1bW9u/XxgAWISBEABcLFevXv3k6Gj2H4nEWq3PL4kBvNFhVaWfaJr4f0fkHxGOovyOra2dL/f3H/1TQgHAh5DAArhgZrPZMCJ+SCSA8+TRo0ePrl69+msPD2f/n5TiExEpSf7dm5s7e48fP/oXxQKA92ULIQAA58LDhw+/W1Xxt0TEE9EoS0r5n9/c3P6tIgHA+5LAAgDg3Njb2/sLEflvjYgj0ShKSin+4Pb29m8RCgDehwQWAADnyv7+/k+nFP+QSBSnzjn+ze3t7V8jFAC8KwksAADOnb29vf9zRP6XRKI4o5zjJzc3N3+VUADwLiSwAAA4l/b3939XzvHHRaI4l1Kq/uTly5fdMRKAtyaBBQDAedU8frz5d0ekPy8Uxdmt6/pndnZ2PhcKAN6GBBYAAOfYd582zdFvjIi/LBZlyTk+bpr8py9fvnxdNAD4NhJYAACca0+ePLmfc/PrI2JPNIrz16RU/+z29vYVoQDgTSSwAAA49x4/fvwXc05/T0Q0olGWlOKvzTn+3Rs3blwSDQBeRwILAIAL4fHjR/9ORP6nRaJIf/3Tp89+KiJGQgHAq0hgAQBwYezv7/8zEfn/JRJF+rGtrZ1/wxoFgFfx4QAAwEWSZ7PZPxARXwlFkafn79za2v794gDAWQMhAADgPLty5cr24eHh7ZSGvywifyel5pdHxFRkivU7trZ2vtzff/RPCQUAL0hgAQBQhNu3b298/fXX46Ojo/FgMNhommZQVdVmRKSI2Dn5su2IqJomXa6qPGya2EkptiLSZkSzlXPaTCl2co7dlPK1iLQ7mzWjqqpj3r89CXbx8u/e2tp5uL//6F8WCwAiJLAAAJZue3v7b805ftt5+71yjkFKsfma/1zFcbLpVdoJqYiIrYionzz5OiIi6noQOUekVEXOr/kGKZ98zemriYh0enz8/xJVa36F/UubmztfPX786I+IBQASWAAAy/d5RPzq8/ZLJfkhln2JpfyHtre3v97b2/tjwgFwsWniDgAAlKrOOf7N7e3tXyMUABebBBYAAFCyUc7xx7a3t/9HQgFwcUlgAQAApdvMOf69y5cv/4hQAFxMElgAAMA62K3r+md2dnY+FwqAi0cCCwAAWAs5x8dNk3/20qVLN0UD4GKRwAIAANbJL6vrwU/fvn17QygALg4JLAAAYN38iq+//vqWMABcHBJYAAAAABRNAgsAAACAoklgAQAAAFA0CSwAAAAAiiaBBQAAAEDRJLAAAAAAKJoEFgAAAABFk8ACAAAAoGgSWAAAAAAUTQILAAAAgKJJYAEAAABQNAksAAAAAIomgQUAAABA0SSwAAAAACiaBBYAAAAARZPAAgAAAKBoElgAAAAAFE0CCwAAAICiSWABAAAAUDQJLAAAAACKJoEFAAAAQNEksAAAAAAomgQWAAAAAEWTwAIAAACgaBJYAAAAABRNAgsAAACAoklgAQAAAFA0CSwAAAAAiiaBBQAAAEDRJLAAAAAAKJoEFgAAAABFk8ACAAAAoGgSWAAAAAAUTQILAAAAgKJJYAEAAABQNAksAAAAAIomgQUAAABA0SSwAAAAACiaBBYAAAAARZPAAgAAAKBoElgAAAAAFE0CCwAAAICiSWABAAAAUDQJLAAAAACKJoEFAAAAQNEksAAAAAAomgQWAAAAAEWTwAIAAACgaBJYAAAAABRNAgsAAACAoklgAQAAAFC0gRAAXCxHR0dP63rwH4gE51lK6WFhL+nnIsL7Dhbo8HD4VBQAAAAAAAAAAAAAAAAAAAAAAAAAAAAAAAAAAAAAAAAAAAAAAAAAAAAAAAAAAAAAAAAAAAAAAAAAAAAAAAAAAAAAAAAAAAAAAAAAAAAAAAAAAAAAAAAAAAAAAAAAAAAAAAAAAAAAAAAAAAAAAAAAAAAAAAAAAAAAAAAAAAAAAAAAAAAAAAAAAAAAAAAAAAAAAAAAAAAAAAAAAAAAAAAAAAAAAAAAAAAAAAAAAAAAAAAAAAAAAAAAAAAAAAAAAAAAAAAAAAAAAAAAAAAAAAAAAAAAAAAAAAAAAAAAAAAAAAAAAAAAAAAAAAAAAAAAAAAAAAAAAAAAAAAAAAAAAAAAAAAAAAAAAAAAAAAAAAAAAAAAAAAAAAAAAAAAAAAAAAAAAAAAAAAAAAAAAAAAAAAAAAAAAAAAAAAAAAAAAAAAAAAAAAAAAAAAAAAAAAAAAAAAAAAAAAAAAAAAAAAAAAAAAAAAAAAAAAAAAAAAAAAAAAAAAAAAAAAAAAAAAAAAAAAAAAAAAAAAAAAAAAAAAAAAAAAAAAAAAAAAAAAAAAAAAAAAAAAAAAAAAAAAAAAAAAAAAAAAAAAAAAAAAAAAAAAAAAAAAAAAAAAAAAAAAAAAAAAAAAAAAAAAAAAAAAAAAAAAAAAAAAAAAN5dOvvElz/zN/3Xucm10HAB3w4pUlRL+96R0lK+dU51VGlZMalyTukcnumISJVr/nyd1RzhnJ4jOVVVEoY1OVmRI5osELz7QiTPRIFXDClNLGlESalpIpbz3XOOnKJplheZJX7vnJcWF/iwz4nU7P66f+9HXhwPzn7Bs7t/5UfMQQAAAAAoxSv+Wi15BQAAAEA5XkpgpVCwDwAAAEA5Ogmsr776akdIAAAAAFi1/P/4idGLx+l739vfHQ4P/6EczW+KSD96+O//T6u8zN5zAAAAAPAtJj/+H3+/SYN/v4n4g4PB8PmfzxHfOb0hYRUR8lcAAAAArFCePb8V9eDvqyL+3ioibnT/sx5YAAAAAKxWjqMXD1MVKR4KCQAAAABFabW4qiLHg/Z/S0kFFgAAAACr9oYEFgAAAACsUkoRMdw5Pa5ySp0EVk6VKAEAAACwOqmK4zsNHqtSzme2EIoRAAAAACs0GHQOq5zymS2EMlgAAAAArE41GHWPU07duxDKXwEAAACwQmkw6RxX6WwFVqpFCQAAAICVyfVG57jKuer2wKpHogQAAADAylSjze5xVZ1p4j6YihIAAAAAqzPa6hxWs9msu4VwcEmQAAAAAFid0dXOYTUcDrsVWGdKtAAAAACgV6PdzmF15cqV/Yg4fPFEGl4RJAAAAABWJk2ud46rlFKOiK9OnxlfFSUAAAAAVmd8s3NYnfz/fBvh6CNBAgAAAGBl0sbH7cNvThJY6f7pU5ObogQAAADAyuTRPD+VI748TmClfO/Fk2lyQ5QAAAAAWIlUp4hqND+OeFBFRKQcpxVYefyxSAEAAACwEqmqu8cvElhNzCuwYnwtUhIsAAAAAFZgMOoc5kjHWwhTavXAiohIlWABAAAA0LtquNF9IuX7x5mq5kwCazAQLQAAAAD6N7zUOUw53T+pwGrudf5DPRQsAAAAAPo33O4cNtEcJ7COqqpTgZUGE8ECAAAAoH/jK93jpjrZQvj8ebcC60ypFgAAAAD0oRpf6xynNLtXRUTcvHnzQUTMTv/LaFu0AAAAAOjf5HrnsKqqFz2wUhMRD07/y9lSLQAAAADow+TjzuGz0ehkC2FEpIjTPlhptCtYAAAAAPRveqd9NPt4c/Or0wRWjjjtg5UmNwQLAAAAgN7lySftwwcppaZq/ef5nQgnt0ULAAAAgF6lOkWqJ/Pjkx2D8wRWTqcVWHn6sYgBAAAA0KtU1Z3jfDaBlVKaV2BNPxcxAAAAAPo1GJ95It+LaCWwmmjmPbDqSaQqCRoAAAAAvamG0+4TOZ3ZQthU99v/PdW1qAEAAADQn+HlzuGLHYOtLYSze52vGIwEDQAAAID+jLY7h03K3QRWVZ2pwBpMBQ0AAACA3qTxle5xc6YCazgcdiqw0pmSLQAAAABYpjS+1j1OTTeBtbW19VVEHJ5+xZmSLQAAAABYpjy+2Tk+Otkx2OqBlXJEfHn6FWdKtgAAAABgmdL0dvf48PDMXQgjIiKf9sFK449EDQAAAIDepOkn7cPmxo0bDyPOJLBSpNM+WGlyU9QAAAAA6E2e3GkfPUwpHUWcSWA1keZ3IpzcEjUAAAAAepGqFFGN2s+c5qm6FVgpn1ZgdTNeAAAAALBEg8GZJ16TwIom5hVY008FDgAAAIBeVINx94mUX1uBNW/iXk8iVYIHAAAAQA8G085hyvHqBFaT5k3cIyJSPRA8AAAAAJYujS53jpt4TQVWzLoJrDhbugUAAAAAyzDc7hym/Nom7rP77eNqOBU8AAAAAJauGl3tHKfX9cAaDAbdCqzhJdEDAAAAYOnyZLdznFqtrjoJrKtXr+5FxMHpE6Md0QMAAABg+cY3O4dHR9VremAd+/LFgySBBQAAAEAfprc7h1V19MYE1ml5VhpfEzwAAAAAlq6a3mkf5mvXrj04/W8vfXWaJ7DOlm4BAAAAwDLkycftw0cppcMXBy8lsFKO+Z0Ip7dEDwAAAIClSlWKqEbtp+63D15KYDWR5xVY3dItAAAAAFi8wfDME638VLyqAiulVgXWpwIIAAAAwFJVg071VaRIX3b++0v/oknzDFc1ilQnUQQAAABgeQYbncMm0rdVYDWdL0hVLYgAAAAALE0aXeoep/zmHlgppbudJwZjUQQAAABgadJop/tEk96cwHpe190SreFUFAEAAABYntFu5zCl5s0JrNmTJ50EVgwvCyIAAAAAyzPpJrCaqnpzAuvOnTtPI+Lx6ROjbUEEAAAAYHkmNzuHaTb7lrsQHjvtg5XGVwQRAAAAgKVJ0zvd45R+0D5+dQIrxXwb4fi6KAIAAACwNHnj087h7u7ut1dgpdxKYE1uiSIAAAAAS5FSRBq3thDmeJhSOmx/zSsTWE2k+RbC6cciCQAAAMByVFW0U1Q5zVtbnX7Jq/9lc1qBlbolXAAAAACwMGkw6h5Ha2fgiVdvIUzp9Avz5BORBAAAAGAp0nBy5pn8dgmsaNK99pekOokmAAAAAAuXhpfOPJHebgthSk0n05UGQ9EEAAAAYPFGW53DlNP9s1/yygRWVVXdUq3BRDABAAAAWLg03DnzTPN2FVhPh8POF1ajS6IJAAAAwOJNrnUOm5TergfWx5ubDyPi8PSJ4ZZgAgAAALB44xvd47fvgZVyRHx5evxSKRcAAAAAfLg0vd194ujoLe9CGBGdWxZOPhJNAAAAABYuTz/pHL/Umz3elMDKrXKt8XXRBAAAAGDhqo3P2odPr1279vilr3ndP04pWhVYH4smAAAAAAuVqhS5vtx6Iu6+6utem8BqWlsIq407IgoAAADAQqW67hznHPde9XVvqMCa37IwX/pcRAEAAABYrMGoc5jiHRNY0cwTWFFvRSQxBQAAAGBxquHGmWfyu20hjJh1/kE1qEUVAAAAgMUZXu4e5/T+WwgjImIwFlQAAAAAFme00zl8KR914rUJrLquO/8gDaaCCgAAAMDCVKOrZ55p3i2Btbe3101gnS3pAgAAAIAPkCe7neNZSu/WA+uLL754FhH7p0+MtkUVAAAAgMWZ3u4eH1XveBfCY/Os1/iKoAIAAACwMGnycfc4Hb5PAiuf/qNqfE1UAQAAAFic6Wfto+b69esPXvVlb05gtW5dmCe3BBUAAACAxRnfbB99mVI6etWXvTGBlVJrC+HZPYkAAAAA8J5SnSKqwfyJHPde97VvTGA17S2E009FFgAAAICFSPWwe9wupDpj8MZvlNK9yMeP85mmWgAAvNpwI8fgkjgAQEmePYzIsyQQRU2aJp3DJtJrK7DemMCKJt2LdJLBqkaR6iryrBFgAIA3SMOIeiIOAFDU53MVkWfiUJJq1P2LX0r5/bYQptR0/mGqa9EFAAAA1pDqq+IMt7rHTbxvAit19h6mgT8lAgAAAGtI/qo8o53uKUrp/RJYw+Gw+w9HmjkAAAAA60f+qsBzMt4980zz2ibub0xgbW1tfRURh6dfPNwUXQAAAAA+WJpc7xzP3rcCK6WUI+L+6RPjbdEFAAAA4IPl8e3uE0eD90tgnZiXb412RRcAAABYO9kewuKkjTtnnnn2AQms1OoAP74hugAAAMDakb8q0PTT9tGTmzdvfv26L/3WBFbK8wRWmt4SXAAAAAA+TBURw53WE6/vf/Xiy9+oaX+DyR0BBgAAAOCDVPWg+0TOd9/49d/6HVOeJ7AufSbCAAAAwPqxh7Asg1H39LRbWL3Ct28hbFrfYHg1onLGAQAAgPWSsxiUJA2mnePmQ7cQRlSdEq5UVaIMAAAArJdGCEqShpe7x+kDtxCmNOtkwKozJV4AAAAAxVOBVZbRdve4iftv+vJvTWBVVdUt4RpOBRkAAABYK/JXZUnjK2ef+bAKrIcPH97rnOfBZVEGAAAA1osthEVJk+vd49R8WA+s73znOwcRsTf/AVuiDAAAAKwXJVhlnY7Rjc5xVVUfVoF1onUnwiuiDAAAAKyP7C6Exdn4uHN4cDD80LsQRkTk02+SxtcEGQAAAFgb2fbB4lTTT9uHs1u3Nh++8evf6rumeSOtNL0pygAAAMDakMAq8JxMOhVY91NKbzxLb5XASrm1hbD7AwAAAADKJoFVlFRVEdWo9Uy++23/pnq78zzfQhjdEi8AAACAojUSWEVJw0H3iZzufdu/edsthK0E1h2RBgAAANZGzkkQCpIG4+75SbGYBFZqWgmsahSpcuIBAACA9ZBnbkFYlOGls2doMVsII2bdTNhgKNgAAADAelCBVZRquNk5TmlBWwhT6y6EERHVYCTaAAAAwFpQgVWY8Xb3uFlQAms4HHa/0UulXgAAAABl0gOrsPMxvtY5TqlZTAJre3v7UY54fvqNz5R6AQAAAJQqNyqwSpLG188+tZgeWCmlnCLuz3/QtmgDAAAA66FRgVWSNLnVOa7rejEVWCfm2bDRR6INAAAArIU8E4OiTO50Dr/++uv73/ZP3iGBlU+zYWl6Q7ABAACAtZAbMSjKpc/aR/t37tx5+m3/5O0TWLnVEf5MqRcAAABAqSSwClKliOHV9jN33+qfve33TynNv+H0EwEHAAAAiid5VZZUnU1F5Xtv8+/eOoHVRDPfjzj5TMQBAACA4klglaUajM6coLTwCqx5Rmx8LSLp4A8AAACUTQP3wgynncOUYrEVWNF0M2KprgQdAAAAKFujAKcog8vd07PoLYQpNZ1vWA2Hgg4AAAAUzRbCsqTJVve4vePvDd46gVVVVfcbDqaiDgAAABTNFsLCDK90j5sFJ7CuXr16LyLyi+M0vCzoAAAAQNGaJgtCQdL42plnZgtv4v48Ih6dHg+3RB0AAAAomi2EZUnTm53jl3b8vca7dmJv3YnwiqgDAAAARZPAKszk487hYDBYbAXWsda+xJdKvgAAAAAK4y6EZZl+2j463N7efvQ2/+zdElgpn2bF0vi6oAMAAABF08S9MNM77aN7KaW3alL2bgmsprWFcPqJoAMAAABFs4WwHKlKEdWo/dS9t/2375TASmm+hTB3M2YAAAAAxZHAKshgePbs3H3bf/pOCawm5dMEVtr4XOABAACAYklelaUajM6coLScCqyYtb5xNYpUa4QGAAAAlEn/q8IMNzqH7Z1+3+ZdtxB2S7vqgeADAAAAZVKBVZQ03DpzepplJbBmnW9cDcaiDwAAABQpN3aOlSSNt7vHy6rAGgwG3W882BB9AAAAoEh6YBVm9FH3uEnLaeJ+5cqVRxFxMP/BlwUfAAAAKFKjB1ZZxtc7hyktaQvhifun/3i0LfgAAABAkVRglSVNb3WP05IqsE7Mv/l4V/QBAACAIklgFWbjTuf0fPTRR/ff9p++RwIrz8u7zpR+AQAAAJQiN1kQSjL5rH30KKX0/G3/6bsnsPK8Q/zZ0i8AAACAYuiBVY4UEeNr7Wfuvcs/H7zzz0tx9zR/OfnECQA4Zx8qKeVv/aL0Ln/+qCIi8tv++IjKrY5Zf1UtBgBQgtyYWxaz1KjPTpDevv9VxHsksJrI99PxEiPy9I4zAPDK1WtElXJEShFVjpTScXIoIuJFgqiK4+cjzxNC6Xh8PU7k5PlTJ0mdVOV5Lii9+Pdnf3aOSJOIdDzE5zSINJiefNPWx0UVEWkYUW284feYRE7D13wCpYhq8/WThTSMVI3f8L03IqfBYuKdUkTV051xF/m6T4P1LFLzvIxrt3kSkVdfap/yUUTzTSExeRaRj979ny30GskRzeMFX3OHC/peCz5XzdeRFnUNNgcR+cBnEsAFpgdWOdJgcHbCt9wKrEjp7ovFU5rciJSKmOcCLH6ArSOqwUmipzr+/6rOx4mjKk7+fxQxmEQMNiINLh+XXQy3jpNH1UbkahQpjSKq6XEiqJpGpMFxAqSdOKovxWmGqZoeJ5YiIkcVub40/wCuL0XE8V8uchpFVKOT/1JF1JedNIDlLYEiZgtMIjZPI+UF7WtZdBJx9nWkBaVgc3MQaWFJxBwx+3qB5+Cb42T5ws7B08XNQWaP422rl7/1peXni/sjSW6O/9DxLa89Pf2LhgzKGb0lsMpZXw2mZ8bhJW8hjFm696Iq4LjEoIqYuSKANR1EqxzVKEU1jKjH40jT6xGTa8f/X+9EHnwUebhz/Li+fJx0qi5FU1+OqC4dZ7kAuAifGBH11uK+Xb0VJf8NOBf6vViDd8qzvxTDv/T3CARljGVSFWWND8NL3eOUlt0Da3av3fs9DYeRZ0qzgfUyuDyJwfVfEXH9b4yYfB559Ek0g22BARairuuoq0oguBCaArZj5AW8hpzzW3+fbAvK62NTXxEEyrkeNXAvy6i73mqWvYWwqqp77btQHpeASWAB62Pw8V8X1S//V6IJDR2B5RiPR3FpY0Mg4KItll+T2Gqa5q2/Prefz/PHx/+fO/89nyzMcuTTti75pOTk+MtbX59z5MjRNHm5CbjBThy3RZDko4D3pAqsoqTRmQT3bMkVWB999NG9+18+yPGiF/HwUkQ8ciaAtVHt/IoIySsAYNGLs/Tq+UVdl9dy4EXF2Yv/HSe2mmiaHE1uIjc5Zk0TzWwWs6Z5+6RXGkQebEU62nNBsHoSWGWNkeNrZ8fM5d6FMKV0ePf+l1+liKsRcVIC9kvOBLA+RrtiAABc7IVkSq9NuL1Kzjlms1kcHh3F0dEsjo4O4+joNfuzBlcjJLAoQGMLYVHy9EanjOC4RdXbe6/7gKeIe3GSwEojPWOANTO+LgYAAO+yBkwpBoNBDAbzJeRsNouDg+fxzdOn3QqtwdWI+KuCxsrlxq6LosaRye3O8WAweKcE1nt2F23tU7QQBNbN+KYYAAB8oLquY2NjGlev7HS2SWrkTin0wCrsfEw/aR8e7OzsvFOp5vslsNqd4icSWMCaDZxnMv8AALy/qqri8qX5jSvy4KqgUMa8XwKrLNPP20f3UkrvdLeH90tgNXHaaCtNLQSB9ZGqFKmeCgQAwAK1txbGUAUWhdADq5x1WP3SOuzeu36P90pgpTTfQpind5wJYH0GzsFQEAAAFj3HajWEV4FFKVRgFaQ+24L93e5AGPGeCawmmnmmbPqFEwGsz+RqOBYEAIBFz7FadzXMtQQWZWhmWRAKUQ3OrMNS7ieBFa0KrFRPI1U6+wNrMrkaXRYEAIBlzLNOElhpYAshZXAXwoIMzrRxaXraQhizqpMpS607TgAUbbgtBgAAS1CdFDbkoQosCpBP/kcR0mize9wqjHrrMea9fnA66v6ggS05wJoMnGN/EQQAWMo8Kx0vL/XAogRZA/eyjLqFBE3K/SSwBoNB5wel4YaTAazHxGp8QxAAAJagetHIPY0jKmtEVqvRwL2sddho98wTPVVgXb16dS8ins1fiJ4ywJqY3hIDAIBlLFCr9p0IVb2zWiqwCjM5k8A6OuqpiXtE5Gg13BrtOBnAetj4VAwAAJagSvPlZR58JCCslgqsskxudseLquqpiXtEpFYCK43scQbWQ778HUEAAFiCF3chjIiIoQosVjzvl8Aqa3yY3umcnt3d3S/f9XtUH/Dj59myyXVnAyhflSKNb4sDAMAyFqitLYRRS2CxWs0sCUJBcmcnTH6QUjp85+Xc+49OrY7xZ0rBAEpU1bUgAAAsa65lCyEFUYFVjpQi0nieN8rx7g3cIz4kgdXEacOtNPnEGQHKHziHE0EAAFjWXKtdgaWJO6umiXs56ira6ad2S6p38f49sFK+/+JxnmqKDKzBpGq0KQgAAEtStXpgZT2wWDEVWAWtw+rR2bNz932+z3snsJqU5hVY01uRbC8FSh84x244AQCwtLlWO4FV20LIajUSWOWMDWd3wqS+txB2fmB1UhIGULDpNTEAAFiSqmqtCQf+cMhqZVsIi5GGl7rHOd1/rzHmvV/AbNbJmKV66KwAZZt8LAYAAMtapKZ0WoWVBzsCwurkk/9RhtHWmSeafrcQptYWwoiINNAcGSjcxmdiAACwRKfbCOvNyGkkIKyE/leFjQvDnc5x0/cWwt3d3fsRMb8szpSEARTn8i8TAwCAJWpvI0zuRMiKNLYPlmV6pifemYKotx5f3vfnp5SOIsdXp8cvlYQBlCVt/JAgAAAsUedOhBJYrIgKrMKMbnWPj456buIeEZHi9IemkcEJKFcaVBGVMnYAgGVqV2BJYLEyKrDKWotNb3eP+67AOjH/oVO3SQUKnkwNxoIAALDshWo1r8CKgTUiq6ECq7DzMf2kffj0+vXrT95rTfeBL2NegTW+6awA5U6mRvr0AQAsW6cCa3hVQFgJPbAKGxfaN9NKcfe9v88HvYo87xyfJ7edFaBcox0xAABY9kI1tRJYtfkXq5GbJAiFSFWKXF+en5sc9973e31QAiu1b304+diZAco12RUDAIAeFqunbCFkVWwhLGdMqOvucayqAiua0wRWdekLZwYod+Cc3hIEAIAla28hDE3cWZFsC2E5BmdvpJVXU4HVtCqwcn05olKmBxRqekcMAACWrErzNaEeWKxKowKrnDFhuNF9otWK6p2/1we9kln31ofVmdIwgFKkSz8kCAAAy16stiuwagksVkMFVkGGl7vrspRW1QNr1v3BL5WGARTi8l8jBgAAS5ZSinRShZXrrYikyIGe5ZP/UYaXbqbVrKYHVl3XnQTWS6VhACVMpKoUMdwRCACAPuZeL7YRpvo4iQU9yrYPFqUadSsxZ6uqwProo4/2I+Lp6RNnSsMAiphEDQaCAADQ14LVNkJWqLF9sCj57N3gj6oV9cCKiBQx/+GjbWcHKE5SHQoA0BuN3FklFViFmZy9G/zz1WwhjIjIrQRWNfrIyQHKM1a6DgDQl9SuwBpIYNEzFVhljQfTTzpn58aNGw/e93tVC3g5pwmsl0rDAEoYNMeS6wAAfamqeQWWBBZ9U4FVmOln7aMHKaX3TjF+eAIr5Xn510ulYQCrlybXBAEAoCftHlh5cEVA6JUEVmHGN1snJ+59yLf68ARWM38BafqxkwOUZ3JbDAAAelIlCSxWp5klQShEqlNENb+hVkpx90O+34c3cW/dAjFtfOoMAeW59JkYAAD0tWjtbCHUyoGeqcAqZyyoh2dOTVpxBVY0pxm0PFLlABRIch0AoDcqsFglWwgLMpx0DlMrf/ReY8uHvp5ZSvMXUA2OS8QACpI2fpkgAAD0pN3EXQKLvjXuQljOWDC61H0ip/sf9P0++BUdVZ0SsLMlYgCrdLzveiQQAAB9LVpbTdzT4GpEKHKgP1kCqxzDrbOrs9VWYEU8776A0dRJAoqRBpJXAAC9zr9SipSOk1Y5DSPqy4JCL3KOiCwOxRhdOTM2NKvtgXXjxo0HEXGa46wGG04SUM4EamRMAgDofQ6WbCNkBfS/KmscGHdv4jBLK27inlKaRcSD0ydG284SUM6g+VLZKgAAy9beRhgSWPQkz2xXLWotNr3VPT+H9aq3EEZEitMXkUYGJ6AgY2MSAEDfqnYFVv2RgNALDdwLM/m4c5jz09VWYEVEpDxPYMXkmpMEFCMZkwAA+p+DtSqw8tAfFOlH1v+qrPMx/aR9+OT27dvffMj3W0gCq4mYZ9HGN5wloByT22IAANCzqmpt5bKFkL7MZLCKGgc2PmsdfVj/q4hFbSGMPN9CuGGxCBRkekcMAAD6XrimVgXWwBZC+pE1cS9GqlLk9h1Ic777od9zMVsIUzp9IdliESjJ5R8SAwCAnnWbuF8VEHqhB1Y5Ul13j1MUUoHVtErBpl84U0A5A+eGBBYAQO9zsM4Wwh0BoRfuQliQwbhz2ET6wYd+ywVtIZzNtxDW00iVcwWUMHGqIqqRQAAA9KxdgWULIb2xhbCctdhw4+zJKWYLYacULNUDZwsoYNAcCgIAwApUaV4Jk20hpCd6YBW0FhttnnkilZHAqqrqbnfROHG2gAIGzQ1BAABYgU4PrGoaUVkjsnyNBFZBa7Ht7hOzQhJYDx8+vBcR8/tVDqbOFrD6QXO4KQgAAKuYh6UUqV2FVV8RFJYq57CFsCSj3bNjQhkJrO985zsHEbE3f6EWjUABxsrVAQBWpWo1cs9D8zKWTPKqLJPrZ544KiOBdeK0D1Y13nGygJVLk2uCAACwIlXr7l5JHyyWrJmJQVFrsentznFd1yUlsFrlYGdKxQBWM2jeEgQAgFXNxdp3IrSFkCXTwL0w00/aR88++uij/Q/9lotLYKU8T2CNrztZwOo/xCafCgIAwIq0G7m7EyFLpwKrLNPPTx+miLuL+JaLS2A18y2EaeO2kwWs3uXPxQAAYEXaPbBiqAKL5cqzJAilSBExnrdzaUpLYHU6yndLxQBWY/pDYgAAsCLtHlgqsFi2xhbCYqS67h6XlsBqork3XzR+7owBqx00qypSPREIAIAVsYWQPumBVdB7fzg8e3YK20KYzjRxT8r3gNVJLw2aAAD0uohtbyHUxJ1la7IYlGIwPbM4S4UlsGbVvc7rqyWwgNVJw6kgAACsULsCK1RgsWTNkRxEMYaXz5ycuLeQMWVhi8V01MmoVYOxkwasTBptCQIAwCrnY50eWFsRaSAoLI0thOWoRttnR4OCm7hHvFwyBtCnsTJ1AICVLmLbWwgjRQx2BIXlkcAqRh5112IpNWUlsK5du/Y4Ip6ePnG2ZAygR2l8XRAAAFas08hdHyyWJDcRWQusctZik2vd4+J6YEVEivm+xjSxfQdY4aC5cUsQAABWrF2FlQcfCQhLYftgYWuxyc3O8XA4LC+B1US07kRocAJW+CE2uSMIAAArVrX6YMVQBRZLMhOCokw7a7HDra2trxYynizyNaZWAqsaX3PSgNW5/IUYAACsWGcLoTsRsiSNCqyipOmn7cN7KaWFbPCsFvsy8+kWwjyxfQdYoakEFgDAyheyrQRW1BJYLEdWgVXW+Zh83D68u6jvu9gEVrsx1/S2swasaKKUItXuhAoAsGqdOxEObCFkOXKTBKGUtVhdRVSj9tkpNIHVpNMKrGrjc2cOWM2gORgIAgBAAdo9sLIeWCyJCqyC12ILugNhxKJ7YKXm9IXl8cfOHLAaQ9VXAAAl6PbAcqMvliM3WRAKkQbj7hNNqVsI23sbq0F3vzNAXxOl4SVBAAAoYV7W2UKoBxbLkTVxL0YaXu4el1qBdVRV97ov3DYeYAXGO2IAAFCATgVWvRORFDmwePlID6xSpOHmmWeaMhNY+WDYfWGDibMH9D9ojvx1DwCgBO0EVqQ6cr0pKCycCqyCjLq97malVmDdurX5ICIOT7/5yDYeYAUm18UAAKAQKdlGyHJJYJW0FtvtHldVqU3cU46IL0+fGG45eUD/k6TpLUEAAChEpwpLAosFa2a2Dxa1FjtTTJAPDopt4h4Red4Ha+Q2qUD/8vSOIAAAFKLbB8sakQVzB8Ky1mLjj9uHs5s3bz5Y2Fiy+Fc739+Yxm6TCqxgkrTxuSAAAJQyN2vdiTCrwGLB8kwMirLRKSa4n1Ja2AbPhSewUop5Ass2HmAVH2LdrD8AACtUte88OFSBxWI1+l8VJV36rL0yu7vI773wBFYT6XQLYZ7cdvaAfgfMQRVRDQQCAKAQnS2EKrBYtEYPrHLe7CmibvVCz6nsBFakVg8sfWiAnqXBUBAAAEqan7W3ENYSWCyWLYTlqOq6+95v7dBbyPdf+OAU8xdYbXzhDAL9TpCGG4IAAFDSotZdCFmibAthOQajs6uzwiuwmvkLzPVGJ9sOsPxBc1MMAAAKogcWy9TM3IWwmPf6mWKCJprCK7BSc69zfKaEDGCZ0nhHEAAASlrUugshy6QHVjmGl88szlLpCawzL3AwdhKB3qSJSREAQEk6WwjTOKLS8oHF0QOrIOMzFZalJ7A++uijexFxWsOnHw3Q76B5XQwAAAqSUoqUVGGxHI0EVjnv9dGZ9/bRUfEVWIc54qv5L3DZWQT6M/1YDAAASlvYSmCxDDla5TOs3KRbTFBV1b1FfvtqGa85RZy+yDTacRKB/iZH088EAQCgMJ1thBq5syC2Dxa2Fpvc7pye3d3dLxc6jizpdc/LxEa7ziLQn40vxAAAoDDtBJYKLBalacSgKNM7rYP8IKV0uNBxZDmvOs8TWBP9aICepBQxviYOAACFad+JMGoJLBZDBVZh56OVwEqx2AbuEctKYOU030I4veUsAv1MjAaVIAAAlDhPS6152sAWQhakSWJQiJQi0uTG/NS0d+YtahxZ0mufv9BOCRnAEtVjMQAAKFBnC6EeWCyILYQlrcXq6KaY1qQCK6V8WoGVJ586kUA/E6PRhiAAAJQ4T2ttIcz1RwLCQthCWI40GHSPo1mPBNYszTNtaXIjQlUf0IfRphgAAJS4uG3fhVATdxalyWJQynt8MD3zxLr0wDrzQlNdO5vA8gfN0Y4gAAAUqN0DKw/M2ViMZqZappi12PDymZOzLlsIj47udX7IYOhsAsvnDoQAAEXq3oVwM3IaCQofLOuBVYw02j7zzGw9Elg55+4LHU6dTWD5g+b0piAAABSo3cQ9IiK5EyELoAdWQedi3H1Pp3XZQnjz5s2vI+Lr0xd+tpQMYBkmH4sBAEChOncilMBiEVRgFSOd2Q1TVdWa9MA6fvnzRu4vlZIBLMHGZ2IAAFCoKrXuRCiBxQfKTUTWw70YadLZDZMfPnx4f+FjyPKupnzaByuPDE5AD4PmpR8SBACAUudqnTsRfiQgfBDbBwszvd0+evSd73znYNE/YmkJrJRiXoE10VgZWPaEKCLXtisDAJSqs4VweFVA+CAauBdm+nn76O4yfsTSElhNpNMKrDOlZACL526nAABFa9+JMNc7AsIHybMkCCWZ3mkfrVcCK6XWnQi7vwjA4gezwVgQAABKnq8lWwhZHBVY5Uh1iqhG7bOzXgmsaGJegTX9xBkFlmt4SQwAAApWdXpg2ULIh8mNDu6lSPWZ3TAprVkCq3UXwjxRgQUseULkbqcAAGXP19pbCIdu9MWH0cS9HOnsbphm7bYQNndbK8tIdeWsAsv7ABubBAEAlKxTgVWrwOID5/+2EJZjuNE5TOtWgZXSvIl7RESqaycVWJo0dbdTAICi52utHli53o5I1oi8P03cy1GNts4806xXAms4HHZecBpOnFVgeca3xAAAoORFbmsLYaTqOIkF70kFVklrse5umLWrwNra2voqRzw/fUKDZWCJ0vRTQQAAKHm+llKk1Epi1VpA8P70wCroXIy7dxV9Xtdrt4Uwp4j7pz9ouOWsAsuz8bkYAAAUrt0HKw/1weL9qcAqRxrf6BzPnjy5t5TxY8m/x/xFj2TXgSWautspAEDpOtsIBxJYvB/VV2VJk047l/07d+48Xcr4seTLal42Ntl1VoHlDJhVFVGNBAIAoHBVq5G7BBbvSwKrsPXYxmftw7vL+jnLTWDleeOuNLnurALLGTAHA0EAAFiHeVt7C+HALh3ej+2DhZ2PTj/ivJ4JrJTS6RbCPP7YWQWWM9YMp4IAALAG2lsIJbB4X80sCUIxb+qIGO60FmdpTSuwoplXYG184sQCS5FGlwUBAGAd1rpVewvhRwLC+2myGJTynq67u2FSjntL+1lLvaZaFVjp0g85s8BSpNGOIAAArMNiN9lCyIfTA6sg9dlexOtagdUqHcv15YhKmR+whA+wsQagAADroLuF0ByO99PogVWMs+1cmtZOvIWPH0v9TY6OOi+8qmtnF1j8QDa5IQgAAOswb2tvIayvRIQiB95D47opRRptnnliTSuwqqrq7n0cuM09sHh5cksQAADWQCeBVQ0jar1MeY/5vy2E5TjbzmW2pgms3d3d+xHRzMenDScXWLi0cUcQAADWYd6WupUz+mDxPpqZJu6lqEZntwIfrWcCK6V0FJEfnj4xlF0HFi9PvxAEAIB1WfB27kSoDxbvMf+3hbCgtdj1znFa1y2EERE55ncijLHsOrBYKUWkqS2EAADrop3AyrUEFu+oiQgFWOWY3GwffXP9+vUnSxs7lr64jDjNvqWRwQlYsLruYygDAGBRi9D2nQiHihx4N+5AWJY0abdzyXeX+bN6WPW1yscm151dYLGDmJtDAACs1/wttbcQSmDxbmwfLOx8XPqsdZDWPIGV8ukWwjS57ewCizWcigEAwBrpbCEcfCQgvJOsgXsxUopI45vt4zVPYDWtX2D6sTMMLHbQHG0KAgDAOs3fWlsINXHnXWVbCMtRV9FOKzWx5hVYKc2buOfpZ04wsFijHTEAAFgj3bsQmsvxbvLMFsJSpPpsO5dm3XtgzX+BNLkVybUGLHIQG+8KAgDAOs3fki2EvL88E4NSpOGke5zWvwKr+wvUtbMMLO4DzM0hAADWSucuhJq4867zfz2wyjHY6B43a57AOjys77WP02DgJAMLk6afCAIAwBrpbCGsNiKqiaDw1hpbCMtZi413zjwzW+8E1tHRk84vkAbuGAYs0MYdMQAAWCOdBFZE5FoVFu9AE/dipFH3vbv2Wwjv3LnzNCIen/5Cw8vOMrA408/FAABg3Ra+rebIeehOhLw9dyEs6H08vtY5rut63Zu4R0TEvJH7aNtZBhY184kYaeIOALBu2lVYaSCBxdvJWQKrqPMxvdE+PLhy5cr+UseNfhaZcdoHK4+VhwILGlrqShAAANZQO4FlCyFvzR0Iy1qPTeb9iHPE3ZTSUjvs97P6a1oVWGdKzADee8AcjgUBAGANde9EqAKLt5MbDdyLOh/TeT/i1Np5t7Rxo5dFZmolsCY3nWVgMWPLwB1rAADWUZVaS1E9sHhLTZMFoSTTT9tH5yOB1US+N/8FbzvJwEKk0aYgAACsoc4WwoEthLwlWwjLWYtVKVLdLijI5yOBFe1bKbpjGLAoox0xAABYQ7YQ8j6amS2ExRgMu8ftvM+yxo0+fq/UpFYF1h0nGljMADZ2B0IAgHWUWhVYIYHFW3IHwoLWYoNR94nmnGwhjJjNf5FqFKmSNQUW8AE2uS4IAADruPhN7bsQSmDxlvTAKsfw0pknzksFVmpVYEVEOltqBvA+Y8tETz0AgHXU3kIYg82IyhqRb9ccKYYpZi027PYjTqm5t/Rxo49fbDAYdDJx6WypGcD7sCUZAGAttZu4R6SIekdQ+Fa2EJYjjbbPvqfPRwXWlStXHkXEs9MnXio1A3gPG1+IAQDAOi5+U4qUNHLn3WR3ISzH5Frn8OlweF56YEVExP3THzracrKBD5z1RMT4mjgAAKwpdyLkXanAKmg51u1HfPTx5uZXSx8zevz95vshx1ecbeDDBsy6EgQAgDXWbuQeGrnzLVRfFabbj/heSmnp6cUeV4DzjvR5/JGTDXzY4DUYCwIAwDrP51p9sPJQAos3y40G7kWZdPoR3+3jR/aXwEr59BdK4xtONvBhhlMxAABYY6mdwBrYpcOb5VkWhJJcavcjzucsgdXMtxCmyS0nG/iwCc/wsiAAAKyxdg+s0AOLb6H/VUmLsYgY7rROTuolgTXo7fdL6W6O44xp2vjMCQc+jF56QMGaWRPPDw+jOrnD1ou7bZ296xbARdbeQiiBxbexhbCg9+6g7hynlO718XMH/f2Kzb3jNF1EvvS5Mw582KA50ksPKNezg4N4dnDwxq9JZ5Jb88cRKVXH/x8p4vS5kwRYHB9H6/GLrz9+LiTLgPWYzyU9sHh7mrgX5OV+xD/o5cf29fs1Kd1NL7as1lvHuSxbWIH3/QCbXg/LMmCtx7GcO/+/LBJlQKk6FVjuQsi35RRmOcIKoAhpcLYfcXO+thDGrLoX1XzTajUYRHN45MwD70cvPeAt5OYoYvb0eLJ19OQ4WTR7FtEcRs5NpKMnJ/OUp5Hz0fHXH535+uYgojmInHP362dHETGLfPTNydd/HTnPIprDqO78hqg//1+WEYMeE2Xz5FecJMROEl1V6ibJIp0+9yIxFp3kmW2XcBG0e2Dlejsi1cpseP3n2cxnQSnS6FLnuKmq87aF8PBuRGuf5GAcIYEFvO+gOb0jCFCq5iDy7Pnx49lBRPP8NGmU8lHko/2T555GzL4+/trZ84h8klhqDiNmX0eaHbS+30HE7PAk8XR0/H0jTr7+KKKZReSTecXsMKI5OnkN/ZV7t39SevJfRfXki7f7d9XliBcJmmoSkUbHz6fB8fHxd4yoN8teWOS81CTZiyTWi4qNeXLrbNXYScIrxXEPshfPdxJmKaqqkhiDFetUYKUqcr0T6eiBwPCa+YUQFGO00z0+OmdN3K9fv/7l/S8fzOIki5UGk4j42okH3m+htPGpAmJ43fvj8HGk3EQ+OvmcPXx8nDh6/iAiZpGffxUpcsTho5OKo6/nCaXmJIk0exbRHEUcPTtOGDWHxwmi2fPj2wCdVDDF7CgicuRZE3oDtBZle382Bn/1zy7xB2xEpONpXE7DiOpFL4o6om79VbS+FPnkptOpmkQ+SY7FmeRYbifH6o04/aNjdSlyevE908l/G0RU05ME2zQiDSOqSeQ0iFRNj1/PMq7rk+TYbLb46oyz1V4vqsJOE2Avkl6tLZRVSsdbKqt5xVhnMQ689XvvNPk9uBIhgcVrNBJY5bx3R1fOfEY/P189sFJKs3v3v3wQEdePf+HLEWFwAt5nPIlI45sCwZrNug4j8tOI5iBSPoz8/H7E0ZNIh48ijr6JfLR3nEw63D+uIDr6JvLs6XEVUvP8OKE0O6lOag4imhx59vxky9pxIinncI/pC3M9fTMfE79tzHzN4+UO1OPjpFo1Ok6aVeOING49Hp4kvwanya+oThJn9cb8OKWI6lJEqiKqy8fJuPrScZVaNYlcX+4m5t7TIqvH2omwKp1UfqWqc1ydfk115th2SS6eqkoxm51sdR5ejfRMTHjNWG13aTkmN9pHsxs3bvSS3Bn0+kumuBv5OIF1XHL280488O7qOiL8lZseJ9eP/nSk2TcRzZOIfBjRPIt8tB/p+ePIzx8fb287/DqiOYjm6HnE7OCksukoIs+imc0imojc5Iic5Ji4AKuMg+NtnrO+EmgnWyyrceQ0jqgvnyTGJscJr2oauRofJ8XqjeOvqTZaybDp8VbOqvW4Pk66vfOv3kqGve9a68X2xm4S7KQCrDr+/6pKkaoqqqo6TYDBWn7GpipmJ3vDskbuvI5C77J0iwkepJR6SS/2msBKOe69uOaq0UdOOvB+E53BUBDo95r7+X82DvcOonke0TQpYhbxfsUaFpiwHDlitr+chFm9dVJJNp4nyapJRHX5uIqsuhS5vhy5vnRcLVZfiqg2j7dv1pcjnz43fft12nvsk3mR7Kqq6iSx9SLRdfK4qqOqq6htc6S0z9jWNZkGVwSE14yLYlCU6e32h+3dvn5srwmsJuLui4lEnl530oH3HLmmYkB/Zo/j6PHzOHwi+QQXcwxYUGIs1afJruNE1+Xj3mP1duTBZkS1HVFvHj+utyPXWxGDrcjVVrev2WvknGOWc8zeYpWXUoq6rk+SW1XUdRV1VZ8mu+q6dt7pTWolsPJAkQOvGeNsHyzrfXupdaOaJn7Q18/ttwIr8r3Tj/yJ/jXAexpeFgP6++w6/DJe3FAP4INWX7P9SLP91tz4bQeiOnK1GTHYiqivRB5sRx5+FFFfjRhsRx5cOV7419sRgyuRBztv/O455zg6ev3dwF80pK+rKqr6JMnVquByB0cWqarm11JWgcXrxi0VWGUZ3ZqfmxT3+vqxPffASndf7FtNkztOOvB+Q8lkWxDo73o7ehDNoTgAq1y5zSLNHkXMHkXEL3x74ivVkeudiMHViNGNaIY3IgbXI0bXoxneihheizy4FlG9ekt+zjlms9nxHR9fMf5NJ5O4fPmS88JCdO7eOZTA4rXDIKXMjesUUbVTSel8VmBFk+5FOrnDxPRTZx54P3ro0eeH9LPvRWPSBKzZSi8dPYg4ehDx7C9Fe0Pg/HGKPLgaMfk8mvHnEeMfjmbyReTxDx1Xer1pSq8UggWqbCHkrYY1VZ/FzI0HZ+/825zPHlgpNXfzyd+M0vRWpPS+TXCBCz1odm/bCkvVfPNXBQE4j8vB4yTXkwdRP/kvI6KV3Bpei+by/zia7V8dzeZf//K42JjAszhVaiWw3IWQ141YTQ43wylkLTY8c4felHpLYPV9G5K7nR9duwsK8B7Gt8SA/nz9S2IAXCyH96P66qdj8HP/SFT7f/blhaQKLBa5IG31wIpv6d/GxZUb10UxBmf6Ec/OaQKrrutOc69Uj5x84J2l6ceCQH8Tpqd3BQG4sKr9/+yl51RgsdBrrN0DKw0i13qd8jLtHApai42728xTmp3PBNaDBw/uRsTpJ14aTpx94J3lyz8kCPQ3YTp4KAjAxV2oPP2LL4+LjQosFniNpdS9q6VG7ryKBFY579nRlbPv4fOZwPrOd75zEBGn9w5OQ3cvAd51khORxjcFgt7kgyeCAFxcBz/3ytt/ZY1sWeSitF2FNdAHi1fMx+TNyzG+1jk1u7u7X/Y2Vqzg151n50bKQ4F3VFcrGrq4oNOlaJ4/Fwbgwkr5eaTDl++QrgqLhS5KWxVYuVaBxZnZWJbAKkrnhlr5QUrpsLexYgWX32kfrLOlZwDfOpEeDAWB/q63o/2Tu94AXGDPXr4bqz5YLHRR2qnA+khA6LJ9sKz58fT2/HGkXpvF9p/Aau2PTN3SM4BvH0IGU0GgN/nZL0T4ix9wwVUHv/DSc41yCBZ5jbUSWNkWQs6ON4absubH00/njyPu9TpW9H/1zbcQ5ukNZx94J2m0KQj058lfFgOAw++9vIBRgcUi53dVawvhcEdA6I43KrDKMv28/e493xVYKaX5FsLJJ04+8G7GeufRo6c/LwbAhZeev5zAUoHFQhelthDyJoabcj4PqohUt3bEpHy+E1hNNK0KrDuuAODdjExq6E/+5vuCAFiwvCqBZU8Pi1yUtrcQ1rYQcna8SYJQipf7EZ/7HljzCqyNz10AwLsNWpPrgkBv8sF9QQB4/v2I6G4ZtIWQhc7vUrsHlht9cWY+NjPeFPNeHYy7TzTnvYn7rJr/gtWos98Z4Fs/wMa3BIH+PPtKDIALL+XnkY4edtcsthCyyEVpa02Yhh9FhDUiLTPXQzEGG93Ph9Sc9x5YR91fcDBwEQBvP4Zs6J1Hf/LhE0EAiIj0/Jc6x40KLBa5KG1vIUzDiPqSoNAab8SgGOOXbqh1vhNYdV13brP4UgkawJt07noBy5WfPxUEgIiTbYTtBaUVJYuTUoqUWncitI2Q9nzMcFOMarTTPa6q853A+uijj/YjYr4iGMquA+9gfFMM6Gu6FM2RGRNAxMuN3HNWgcWCF6adOxFq5E5rvDkSg2KcuaHWw4cP7/U6TqzkAzBi3sh9uOkiAN5u7BhUEZVtx/Tk2XcjLNAAjj+Dz1Rg5ZwlsVjswrTVByvX7jpNa7zx98RyPgumN9qHj77zne8c9DpOrOKXblr7JNNo21UAvN2AWY8Egf48+UtiAPDiM/jwey/P6fXBYpEL0/adCIe2EHJyLUhelWXSuaHW3b5//MorsGJyzUUAvN3YMZwIAv355q+KAcALBy8nsLKVJYtcmNpCyCvYPliY6Z326uxiJLAi8rwCa3LdRQC8lTS8LAj090n1zXcFAeDFZ/DRvZdWkhq5s9CFaftOhBJYvLgWDDNlmX7W+mDIFySBlVOrAuu2iwB4u8mzLcf0+VH19K4gAJwOirNIh91evY0eWCxyntfqgaUCi9NxRgKroDdpihjttk5OXJQKrFap2eSOCwF4u7nz2GSGHq+3Zw8FAaA9gz9zJ0IVWCx0YdreQljrgcWJWRKDUj4D6pfSRxekB1Zq5n++ufSFKwF4u7FDzzz69HxPDADazjRyz5q4s8iFaXsL4dBdCDm5FmbGmWLeo4PuDbXSRdlCmFKrAmu4EyGpCrzN2DG25ZgeJ0zPnwoCQPtz+Pn9znGjOQ2LXJim+aJQDyxOx5lGsqAYw+nZZy5GAuswdbvVp7p2MQDfKm98LAj0dbVFc3QoDADtOfvh3TMLS5URLHBh2t5CWE2O/wfy5OV8Bpy5odYsXZS7ED5/fq8biLGrAfj2AcuWY3r7nHoUoTkxQNdRd62S9cBikYvjlCKpwuKMPBODYpy5oVY+rC9GAuvmzZsPIuL0PrxpMHUxAN/+ATayhZCefP2XxQDgjPT8TAWWRD+LXpzqg8UZjQRWOc7cUCvnp/d6HyNW8uGXUhMRX54enylFA3hp3KhTRDUQCHqRv/4rggBw9rP4pS2EKrBY8OK0avU7cidCImwhLOn9ObnePnx8+/btb3p/DStcHsw/Acc7rgbgzZPmM3e9gKX65hfEAOClheSziNn+fDafc2RVWCxycdrug2UL4YWXGx0dijof45vtw7ureA2rS2DldFpulsay68CbpYFGnvT4EfX0e4IA8KrP48PujhEJLBa6OE2tLYQDWwgv/HxM9VVZpu0bauWLlcBKqZWxG193MQBvHjOGlwSB/iZMzx4IAsCrPo/PJLBsI2Shi9NOBZYihwtP/6uy3p8bn7Ymy+liJbCaaP3Ck1uuBuDNbDWmR/ngkSAAvIJG7ix1cdrqgZWHElgXnQbuhc2Px5/MPwvSRdtCmPJ8C2GnFA3gFUPGWB8EevyAPvxaEABe5Uwj96wCi0XO99p3IaxtIbzw87EmCUIp782Xbqh1wSqwUrvp1/RzVwTwZrYa0+eE6fBAEABe5ejsFkIVWCxwcaqJO+35mPGlGGkw7I790VywCqymmn/6TW9HklwF3jRoTm8KAv2YPVWzDvC6xcNLWwhVYLHA66vTxN0Wwosum46VYzA9szhL91YyRqxsMZpmdzsvo5LBAt5gekcM6Gey9OxLQQB4nTNbCFVgsdDFaXtNWF+OnEaCcpHnZDM5gmLem8ON7hOz6qLdhbC7ZzINDE7AG8aM6aeCQD+TpW++KwgAr3N4LyLmSSs9sFjwGjFSa2tOGtpGeKHnZIaXcoy2zrxXjy5WAuujjz7qfPqlwcRFAbz+A2ziZg/05OnPiQHAa6R8GOno0emxuxCy8AVqZRshJ+dfhWc5Rt334tmCpN7Gh5V9+KV0GBHzT7/hJRcF8OrxoqoiKlWa9OTpL4kBwJu0thE2KrBY9AK1tY0w1yqwLrLmyBbCYtZj093ObPnatWuPVzI+rDgOp59+abztqgBePWAOBoJAb/LTu4IA8KbP5cN5795sjw+LXqB27kT4kYBc1PlYjvZuZVY97o9bN9RKsbLJ8ooTWPPO9Wm046oAXm00FQP6mzAdaOIO8MYZfKcCywqTBS9Q3YmQiAi58bK02rmkfFETWCnPf/HxNRcF8OqhYmCLMT1ebwePBAHgTV66E6GVJgtcoLZ7YA0lsC6qZiYGJcnTT+bnJi5qAqtp/eKTG64K4JVsMabXD+jDx4IA8KbP5efdtUvWyJ1FLlBbPbBsIbzA8zEJrLLelxuftT8FLmYCK6XWFsLpbVcF8OqxYuSvb/SnOXwmCABv+lw+vN8dN1VgscgFarsCqzYHvLgTMg3cixnzqxS5vjw/bu+k63t8WPFVefqL5+lnrgzg1YPm+Log0It8+CTCQgzgzVpN3CP0wWLRi+V2E3d3IbyomplxpZj3ZF2ffepiJrCaVgVWTD93ZQCvZosxfdHAHeDbFzOzL6N9e7DGnQhZ5AI1SWBhC2FRBuPucZMuahP3+S+e6kmkyrUBvMLGJ2JAP57dEwOAb9McRprtzReaKrBY5AK11QMrD7Yi0kBQLqBsC2Ex0nDjzDOzC5rAOjrq/uKDoasDeJkKTfqaLH3z84IA8DZafbBUYLHQxXJKkdKL5EWKGOwIykWckxlWynlPjjbPvkc1cY+IqM6WpgFEREzviAH9TJaeflcQAN5mHt9OYKnAYtGL1E4jd9sIL+ScTA+scsb7UfeO8IPB4GImsK5fv/4kIr6eR2LD1QF0B8y6iqhGAkE/19uz7wsCwNs4nPcMzG5+waIXqe0E1uAjAbmAbCEsyHi3fXSws7Ozt7KxoYBLc16FNd50cQAdaaDvAT1+Ij3TxB3grT6fbSFkmYvUVh+sGF4RkIs4J9PEvRzdO8LfSymtrDxu9QmsPN8/WY12XBxA12AiBvT3kXTwlSAAvIV0OP8btC2ELHyRmtoVWLYQXrj5mJx4WeP99Hb78O4qX8vKE1g5xfzTb6Q8FDgzSI0uCQL9OXwiBgBv46jdA8tqkwXP/yoJrItM9VVhpu07wqeLncBqByBNb7g4gK7hlhjQm+b5M0EAeJsZfGsLYUREzqqwWOAitbWFMA1sIbxoJLAK074jfMoXO4GV2gGY3HJxAN0xYuSvbvQ0WXq+b8YE8LaOugksVVgsdJHqLoQXWjPTwL2cxVhEjK+1Ts4F30IYTWsL4fSOCwTomlwXA/pxoIE7wFuvaY72IvLBfEqvAotFLlLbCayhBNaFo69eOWN9XZ99xhbC04fTz1whQNf0phjQj2f3xQDgXWbxhw9OH2cVWCzy2molsEIPrAtHE/dyVMNh972Zmou+hbBpNXHfjaiUCwKtMWLyiSDQz2Tp2XcFAeBdHLYbuauYYIGL1DRfE+Z6OyLVgnKB2EJYkHrj7DMXPYHVLUHrZNsBNlRm0pNvJLAA3mke374ToZIJFrtGjPQiiZXqyLWb+lwoWpKW48wd4Wd1vdItCyvPFj0bje51BqvByEUCnMoqsOjrWnv6fUEAeBedCiwJLBa8UG0XNmjkfqGo6CxHGm93jo8Gg5VOmFeewPp4c/NhRByeBmg4dZUAx+NBlSLVE4GgH880cQd4p4VEK4GVLThZ9PWlkfuFlRtbCIvRvSP80cebm1+tdFxY+QI1pRwRp59+aXjZRQIcjweDgSDQ32Tp+UNBAHgXh7YQssSFars3skbuF4sthOWsx8a77cN7KaWVDvalNJya98EabbtKgOMBc6j6iv7k548FAeBdHM47gdjyw8IXqu5EeDHnY01ENpyUsx4b324f3Vv5uFBGVGIeiLHBCTgZGlRk0t90KeLoqTAAvMvntB5YLHOhmlpbCAdXBOSizMgMJWXZ+Lg16Oe7q345ZSSwmnkFVjW57iIBjo3ccYaePN+LbPEF8E7S7MuIOC6VkMBi4QtVPbAuJkNJWeP89NP2uZHAiohIKZ0GIo9vukqAYyN/baMf+eC+IAC880LzMNJsbz6W2vfDIheq7R5Y7kJ4cYaVIw3ci5ojT+YVWO28zcrGhUIu03kgph+7SoDjQXK6Kwj08+HsDoQA78c2Qpa1UG1XYOmBdXHmZIaRctZidRVRjVrPNBJYERFNmjcDqzY+c6UAx4Omikz68kwFFsB7fVZ3ElgqsFjgQlUC60LKxpFyxve67hw3KrBeRKa9hVAFFnBiYjygp8nS0+8KAsD7OJxXsDZKJ1joErG9hXAnImwtuxBzspkYFPMeHEzOviklsCIi4uhoHohqEKk2OAERWUUmfXn6fTEAeJ8FztG8AsvNMFjotZXSPIlVDSMGm4JyEeb/M7mAYt6DozN3hD+SwHoxOHUCkeqhqwWImH4uBvQzWTq4JwgA7+PowelDWwhZ+GK1vY1QI/eLMSebGUeK8dId4Q8lsCIirl27dj/aN8wcTV0scMGlKkWqJwJBP5Olg0eCAPA+n9eHrQSWLYQserHaSmCFPlgXY07WqMAqxminfdRcv379wcrHhCI++FKaRcRpMNLgkosFLrqBSkx69HxPDADeZx5/1OqBpQKLRS9Wq3kyQyP3i8FO5ILG93HnjvBfppSOVj4mFBOdHKflaOmlUjXgwk1YBiNBoL+PoMNvBAHgfRY4rQosPbBY+HzQnQgv2IQs2vuyWPX4PmndET7F3SLGhGKC0wpIGl9xtcBFN1SJSU9mzyKaI3EAeB9HDyJOtg7aQsjCF6uptVwdWiOed4aQws7H+Nbp45QlsDqaSPMOuuPrrha46BMWlZj09eF88KUgALz3IHoUqdk/ns/bQsii54MqsC6UZiYGRdm4Mz83IYHVkaKZB2QigQUX3sgkhZ4cPBADgA9xePyHgMYWQha9WG33wHIXwvPPEFKUdOmz1lGWwOpGJ823EE4/cbXARTfZFQN6kQ8eCgLAh0zjNXJnWYtVdyG8WHOymTsQlvPmSxF1a0dMK1+z0pdVTICaeUDy9DMXDFz0yfD0liDQz2Tp6XcFAeBDHM4TWFkTGxa5WO0ksPTAOu+amQR4Me+9uu6uzWwhPGs2r8Da+NwVAxfd5GMxoB/ffF8MAD5AOppvxbaNkIUuVtsJrOFHAnLOyX8X5Owd4ZvqXhFjQjEffKnVxL0aRaqUD8KF/gBrNQ2EpV5rB3cFAeBD2ELIcteJx5/XaRRRu0v1uZ6T2UJYjGq4ceZ9OFOB1XkhVdUNyGDoqoGLPGhOPxcE+qGJO8AHSc9bFVhKKFj8OvH0sUbu51t2F8JyjDbPPvODIsaDUuLz8OHDexFx+ieb6mzJGnBxJsJVRK43BIJ+JkvPvxIEgA9hCyFLVGvkfnHmZIaPcox2Oqdmd3f3fgkvq5gE1ne+852DiHh0+sRQeShcWCow6dPhEzEA+ADp8H5rAWoLIQu+vtoVWAN9sM4zFVgFve9GrWRxjocppcMSXldVWJzuzQO25aqBC6oajAWBnmZKTcThM3EA+BBHX8aLjRS2ELJo7QqsPFKBdd6nZRRicv30YUplbB+MKC6BleZ3Ihy7TSpcWCow6cvhXuSsWgDgg2bw+TBi9jgibCFkCQvW9s299MA6txoN3Msa1ye324cSWK/59DtNYOWx8lC4sAOmCkx6kjVwB1jMZ/fh8XjqLoQsfMHarsAaWiOeW8aOskznd4RvIoq5ZXdZCawmWhVYN1w0cFEnwSow6cszCSyAhXx2H315PJ1XgcWiF6zuQngh2D5Y2PloJbAisgTWKz/4UjrtgRWTj101cFGNd8WAfj6cD+4LAsAi5vGHxwmsnLOt2Sx2wdq5C6EKrPOqObKFsJjxPEWkyY3WcZLAes1lO6/A2rjjyoGLOmhOVGDSj/zNLwoCwCIczStabSNkoQvWzhZCFVjnlnGjHHUdZ1JFemC9yqyV2UuXfsiFAxdUHqvApB/p4AeCALCI8bSdwLIXiEVeWylFSifVOfXViFCpcx41MzEo5j03GJw5OSqwXjc6zZu415cjKoMTXEgqMOlrsvTMFkKAhTjZQhihDxZLWLS+SGBVw4jBpoCcQ7mx9i9FGkzPPDOTwHr1B1/dCUxV164euIiTlEtfCAL9OHgoBgCLWPAcSWCxxLlhexuhPljnkwqscsbz4eXusR5Yr9Y033QDMxi5euCiDZhVOq7AhB7k5/uCALAIh/MthFkvGxa9aO00ctcH6zyyhbCg9dhouzNd3t3dLWbLQlEJrNu3b38TEV+fvrjhhqsHLtqAqfKSXhdcX4sBwCI+v2fzilYVWCx80dqpwJLAOo+0zivoXIyvtI8epJQOixkLCvz4m1dhjexvhgs3AR5OBIF+NIeRZ4fiALAIs68jmmfHw6sEFotetHYqsHYF5FzOy4SgmPXY+Pr8cZSzfTCixARWzq0E1o6rBy6agcpLenLwpRgALHLRM/vqeB2qlIJFL1pbN/fKgysCcs7kJkW287icsXxyo31Y1C27i0tgpRSnCaw0kl2HC2es8pKeJkvPHggCwCLn8Sd9sBo9sFj0olUT9/M9J5sZM4oy/eT0YROhAutNmnaJ2uS6iwcu2gRluCMI9OO5BBbAQh0d98GyhZCFzw/bWwiHemCdN4o2CzP9tH12JLDerJlXYE1vu3jgon2ATSWu6elae/pLggCwSCcJrJxzZPuBWOSiVQXW+Z6TNUkQSjK9c/owJT2w3iildG8euE9cPHDBpPENQaCfyZIEFsBiP8OP5pWtqrBY6KK108RdBda5m5PZQljOOF6niGo0f6KxhfDNmlaGb/q5KwgumsnHYkA/nt0TA4BFOvpqPqXXB4tFL1zTcZVOrnciUi0g50ieiUEpUj08+4wm7m82myewxtciknJCuFCD5sYdQaCfydLBfUEAWORn+OHD08fuRMjCF64vqrBSfZzE4vzMyWwhLGccH4zPPDNTgfXGgJ3ZY5lqFzNcKJc+FwP6cbAnBgCLZAshy1y4drYRXhGQc6RRgVWO4UbnUA+sb1HXdSdA1UsZQOD8zkxSRL0lDvQiHz4WBIAFSketCiwJLBY9Tew0ct8VkPNEAquc99mosxbLu7u7RW1ZKC6BdfXq1b2IeHb6xHDqKoKLMmDW+hnQlxz58JkwACxQu4l71gOLRc8T2xVYQ43cz9WsTL67HON2dWN+kFI6LGocKHNZEfPOuoPLLiK4KFRc0tfnzPPHZksAi9Y8jWiO/zigAouFL1w7FVgfCch5GjpUYJVjPK9uTFHW9sGIQhNYqZXASuNtFxFcEOnMnmtYmucPxABgGZ/lJ9sIJbBY+MK1mvdGznpgnR/55H+UYXy9ffSD4saBQj/6TjN9aaw8FC6M0aYY0M9c6eChIAAsYxZ/ePwHgpkEFoteuHaauOuBdW7mZKqvyjL5+PRhE6EC6+0++fI8UJMbLiK4KBOTsb+m0ZNnd8UAYBlUYLGseWJnC6Eih/PCUFHY+2zjTusoS2C93VXcyvSNb7qK4KIY+WsaPXn6XTEAWAJ3ImRpC9dOBZYE1rkxS2JQkDz9dD6eJz2w3vajb76FcOMTVxFclEnvVMUlPX04P/2+IAAsgwQWy5onphQpHSc7NHE/P5qZBljFqCJiuNM6ObYQvuXg1MwDNf3chQQXxeS2GNCPZ/fEAGAZZvObZDSNhSkLXry+aOQ+2IychgJyDrgpdEHvr3pw5pmkifvbSCnNVxbT25FUFcKFkDY+FQT6mSw9/0oQAJbxWa4Ci2UuXtOL5WuKZBvh+dBY7BejHp15YqYC620cdvZaVhF15WKCCyCruKQvz/fFAGAZJLBY5uK13ch9KIF1HjTuQliMNJx2j/XAestF7MGwE6hUKw+F8z8jie6ea1jmZOnwa0EAWMYC6LC9hVACiwVPFzuN3PXBOg+yHljljN+jzc6p2d3dvV/ikrE4t25tPoiIw9NADiauJjjvE5KX9lzD0mZKEUfPxQFgGQugo/kWbQksFj9fbFVg1Sqwzse0zBbCYoy222fmQUrpsLgxoMgPvpRyRHx5ejy67GKC824wEgP6mSg934sIf+0DWIrmaUQ+OH4ogcWiF6+dLYQqsM7FvMwwUc77a7x7+jhFedsHIwpNYJ2EbB6wTiYQOJcD5nBDEOjH8wdiALBMR48iImImgcWi54vtLYQqsM4FCayCzsXkWvvwB0WOAcVGL+XTBFYaG5zg3OvuuYblfTgfPBQEgGVO42d7EaECi8Wr2xVYI2vEdaeBe2Emt+bnJkIF1rtdzfOApdGuiwnO+2R3tCMI9OObXxIDgGV+ph8+mk/pJbFY5OK1ncDSxH39SWCVNXZPPmkdZQmsdwpeSvdODyY3XE1w3o0lqunJUwksgOUuSh+dPpTAYsFrxEjppOm3BNbas32wsPNx6bP2e00C61000cwDtvGJqwnO+4RkelMQ6MfBD8QAYJmf6Z0ElptmsOAF7EkVVh7YQrjumsYdCIsZt1NEGrfWY40thO8awXnApp+5ouC8G98WA3qRDzRxB1iqo73WAlWJBYt12ger2oioJgKyzmYS3AW9saKbHkqauL+TTgLrUxcUnHfe5/QkH3wlCABLXZQ+On0ogcXCF7C1PljnRTNTgVWKVI+6x6m5V+T7v9gIHh3NE1jVKFLt4oZz7dIXYkA/nu+LAcAyF0KtJu4zCSwWvYDVyP38UIFVzrg9fKmaUQXWOw5MnYxfqoeuKji3I2ZEDHfEgV7kw6eCALDMj/VOBZbbjLHwdeL8YKgP1jrTA6ugcXt4qTNd3t3dvV/k+7/UAJ4E7PRPNmkwdlXBeZ2IDGpBoB95Frk5FAeAZWolsGYzFVgsVq0C6zxNyyjFaLt9Zh6klIqcMBebwEopHUXkh/OAXnJRwbmdiUhQ09NE6eCriKxcHWCpjh6dPtQDi4UvYNsVWIMrArLO3KW0GGk8r2ZMke4W+/4vOoitwFXDLVcVnNeJyGhDEOjH84diALDsOfxsLyKOF6Y552gsUlnkvLFTgbUrIGtME/eCxu1R5730g2Lf/0Vf0BHzzN9Idh3OreFlMaAX+ek9QQBY+mA7i5g9ns/p9cFikQtYFVjnZpigIJMb8zG7nYcp7f1fdhRbpWsT2XU4t8YmH/Tk2S+KAUAfs/ijvdPH7kTIwhexL5JYemCtrayBe1mmn7TPjgTWe33wRXMauDS56aKC8zrJHUlQ09Nk6en3BAGgj8/22VenjxuN3FmwF43c88BdCNd2TjaztbgoG5/Nx++kB9Z7fvKl070eeXzLRQXnlQpL+vpYObCFEKCXxWmnAsteIRa8iK1P7mA9VIG1rhRmFjZmT1oVWE0qdsJcdgKraWX+Nu64quCcStOPBYF+PlYOHggCQB+f7bNHrYWqlSqLVdcnFVhpFFFvCsg6ktcuZ7yuUqR60n7q+6W+1rK3EKb5FsLq0g+7suC8mkpQ05ODr8QAoJfF6ZP5Q1sIWbC6qk8f20a4nhRmFmQw7Bym1KjAek+nCaxcb0SqNHqDc2n6uRjQi/z8a0EA6EHqJLCsVFmsFxVYx4tv2wjXck6miXsxqsHo7FM/KPa1Fh3Iquo0D0t17eqCczfDjYjxNXGgH0ffiAFAH2aP5wvVnG0jZKHq1row64O1nhpN3IsxvNQ+yru7u/dLfalFJ7AePnx4LyLmV/Zg7OKCc0Zimr7k5jDy7EggAHpZnD7pHKrCYqGL2KqKlI4rePLwuoCs4xAxU4FVzHps2O4jlx+klA6Lfe+XHMjvfOc7BxGxNw/shqsLztsEZDgUBPrxXP8rgN4+31sVWBERRxJYLPoaq04auQ9V8q+jbEgoRprszB9Hulv0+34N4nnaQCyN3GECzp3BVAzoZ6J08FAQAPpyJoGlAotFO+2DJYG1nuwqLsdot330g5Jf6hoksOYZwDTecXHBeTO4JAb04+n3xACgL7Nuz0F3ImTRTu9EWEtgrZvcRGQtsIqRxjdOHzetG+mVqPwEVsrzAHYzg8A5UElM09fHydNfFASA3laoB51DFVgs2otG7s1ID6y1Gx4MB2WZ3mqfHQmsD9LMM4BpesPFBeftA2x0RRDo51p79n1BAOht0H3eOZzNZpGVXLBAp1sIB7sRyU2B1mp4UJBZlLTx6fxx0gPrw4LZDuDklqsLztuAOVH2TU8O7okBQF+ag5efaqxaWeBC9sWdrFMdud4RkDWiAquw8zH9vDVQ20L4oZ9+8wBO77i64Jxp77mGpX44a+IO0N/n+ysSWO5EyCLVVWspaxvhes3JmiQIxQzWETHcaT+hifuHaFKa/8l84wsXGJw300/EgH4c7IkBQF8L1Hz00nP6YLHQdXdKUZ0ksfJARf9ajQ9HthOXohqc3X47U4H1gSPTPIDDq8cZQuD8TD42VFbSj+bwiSAA9PX5ng81cmfpXvTByiqw1mtOpgKrHINxd+zWA+sDHR11AphqDfrgPMmTTwWBnj5PDsQAoL9P+EjPfq7zzGymBxaLVVcna8NaBdZakcsuRhpMOgP37u7u/ZJfb/EJrJy7t3FMw7GrDM7LgFmniGokECxf8zzy7EgcAPpcaDz6U901qwosFqx+UdwwlMBaq2mZoaCc9dhws3WUH6SUDkt+vYPSA3rz5s2v793/8uuIuBTxIkP4jSsNzsOAWQ8EgX5o4A7Qu/rBT0ae/A+iufLjx4vWpomvHulHyOK8uLNlM7we9umsj6wYsxzjnfl5iVT8LbvXZPWY7kbkH4p4kSG0EIHz4EzJKixvgvvsS0EAWMEqdfDd3xN5/z+M2Uc/Ec2l/2EcHamGZQmGemCtFRVY5azHxldOH1cR3y/99a5HAivnu5HihyLiJEP48640OA9Gl8SAfj6cn/6iIACsagze/09isP+fRB58FHnjr43m0o9GjH848uSTyIMbEUntDB+4XLSFcH3OVRPhHoQFGc+Tv03E3dJf7loksFKKey8u8jS66iKD8zKh7ey5hiVOlp59VxAAVv25f/Qg0v6fi2r/z82frIaR62uRh1cjDXYi11ciD7Yjqs2IaiPyYBpRbURUlyNHFVFfejGJiKimJ99jEjmdLGuqyxGpEuyLpppE1FsRs32xKH1OpvqqLONb7bMjgbUITaS76UWediK7DudmItsqWYWlevZ9MQAocqJ/GKn5XqTD7x3PDRY2yagjqpcrvY+TYBvv/e8pV26eLu76YXnnaeYsFbUem348f5ySBNaCPtnunn6cTW+7yuC8GO+KAf1Mlp7eFwSAi7VKfmU1ToqImD0SH1jVW7PJEVKN5dj4fP64KX8L4VrU17YzgWlyx0UG58VYw0168tzNPwAAVk0FVmnrsZutg/SD0l/uemwQb+YJrHzpMxcZnBeTj8WAfiZLzx8LAgDAqudkjRiUIg2qiKq9KW+mAmsx5oFM45uRJG3hXKg2VFTSk6OvxQAAYMWamXsQliLVw+7xGvTAWpcthPc6L7l2ZxE4D/L0U0Ggn8nS4YEgAACsfFKmGqUUaTDpLM12d3eLbxq7FpmgwWDQyQSmeuRqg3VXRcRwRxzoYaJ0ENGoVwcAWLU8E4NiDNt3Ws0PUkqH67CELN6VK1ceRcSzF8dpOHGxwZqr6oEg0I+DB2IAAFAAf1MsRxpvzx9H+dsHI9amB1ZERJyWs6XhZVcbrDuVlPQkP/2+IAAAlEAFVjHSaKd9+IN1eM3rlMCaN3IfbbvaYN0HzOFUEOjH018QAwCAFctNiqyHeznG108fNq18S8nWKIE1L2nL4ysuNlhzabQpCPQzWXr6XUEAAFj1nMwdCMsyud4+OxJYi13tzgOaxtddbLDuVFLSl2d3xQAAYMWy/ldFSdNP5o+THliL1cS9eaBvutpgzVWjjwSBfmjiDgCwcnmWBKGk8zG9Mz9obCFcqE5GsB1oYE0HTJWU9HStHTwSBACAFWsaWwiLMv2sdZA0cV/w5T7fQtgqdQPW1EQlJf3Iz/cFAQBg1VRgFSPVKVLdvqnWTAXWQgPcqsDKExVYsPaDpvcxfTl6KgYAACumB1ZB6kF3baYH1mIdtgNajSLVlYsO1vkDbPqpINCL5uhAEAAAVj4nE4NSVINxZ2m2u7t7fy1e99osdg+GnYxgGgxcdbCmUopI01sCwfLNnkbotwAAsHoqsMox2Ggd5AcppcN1eNlrk8C6dWvzQUTMc7aDiYsO1lVdxVq14GNt5YMvBQEAoADNTAyKMd48fZhiPbYPRqxXD6wcEacrkWp0yUUHayrVQ0Ggn2vtm18UBACAEqjAKkY12mmfFgms5cjzwA63XHWwptJwKgj086nxzc8LAgDAqudkTUTW1aEco9320Q/W5WWvVwIrt0rbRldcdLCm0lAFJT159n0xAABY9VJe9VVZ67Hp9fbZUYG1lCCneWlbmu666mBdjbbFgH4mS8/uCQIAwKpJYJVlPL+hVkp6YC1JuwLLHcxgXSUVlPTl+QMxAABYseYoCUJJNu60To4eWMu56KM5/VN6mt520cG6GqugpB/54JEgAACsek7WaIBVlI0vWgdJD6ylaJW25XbGEFgv05tiQD+TpedPBAEAYNVzspkYFCOliOHV1hMzFVhLMWttIZx+4cKDdR0zJyoo6WmydPRUEAAAVj0nm9lCWMxarO6mgfTAWlag0zwzmOpppMrFB2v5ATb9TBDo51o7OhQEAIAVa2whLEYajDrT5d3d3fvr8trXLIF1JjM4GLr6YB1NPxUDli4fPonIJksAACunAqsYaThtz5gfpJTW5i++a5XAOskMnt6AsxqMXX2wbgNmnSLVE4Fg+dfawX1BAAAoQNOIQTFz5OHl+eNYn+2DEetXgXUUkR+ePjHYcPXBuqkHYkAv8jd/RRAAAEqYl2niXo7R9unDJkICa5k6GcLxposP1ozKSXrz9LtiAACwak1E6OpQjnH7DoTxg7VaS65brHPEvdMXP9xx8cG6GaqcpKfPi2ffFwQAgBWzfbAs1eR6e8asAmu52hVYu64+WDcjlZP05KkeWAAAK2f7YFHy+Nbp45dulFe49UtgpXmGME1vuPpgzVSjHUGgH88figEAwIo1Elhlmd5unRw9sJZtHuDJbRcfrJuRykn6kZ/vCQIAwKrnZE0ShIJUlz5vHSU9sJaqmZe4pY1PXX2wZtL0uiDQz2Tp8GtBAABY9ZxspoN7Uedj1C4EmqnAWuriNzWnTdzz9HNXH6yb1p5rWOqH89EzQQAAWPWcTAVWMVKdIqrB/FgPrCUHvB3g4U6E9wKsl407YkAfU6WIoyNhAABYMT2wypHqYWfCvLu7u1Z3PVq7BFZVVZ0MYTWoXYWwTja+EAOWLh8+jpyVqwMArJwEVjmG0/aM+UFK6XCdXv7aJbD29vbudZ4YjF2EsC5SihheFQeW75tfFAMAgALkRgxKUQ035kuzWK/tgxFrmMD64osvnkXE6a2l0mDqKoQ1kepKEOjHNz8vBgAABbCFsCCjrfl5iZDA6sn8ToSjTRchrIk0GAkC/Xj2S2IAALBq+eR/lGF0pX30g3V7+WuawGqVuo12XISwLu/coYpJeporPfuBIAAArJjqq8LWY9Pd9oxZBVY/UZ8Huhp/5CqEdXnrDi8LAv04uC8GAAArlpskCCUZ3ZqvzZIeWP1o4rSRe55cdxHC2gyY22JAP5Olg4eCAACw6jnZzP7BkqTp7flBowdWP0FvZQrT5LarENbF2B0I6cnzx2IAALBi7kBY2PnYuNM6Snpg9aOZZwqnd1yFsC4DjopJ+vpwPvpaEAAAVj4ns4WwqPXY9PPW0UwFVh+aVgVWlsCC9fkAG98UBPq51g6fCwIAwKrnZI0thKVIVYpcb8yP9cDqK/LtLYS3IiR1YT1MPxYD+pgqRcyOhAEAYNWzspnFeilSXXdOze7u7trd9Wg9E1hHR3ffcCKAUgecjc8EgeV7/lVkf+wDAFg5TdwLMhi3z8yDlNLh2q0n1zHuKaV7nV9iMHQxwjp8gI1VYNHDdfb1XxEEAIAS5mWNCqxSpGFr+2Cs3/bBiDVNYF2/fv1JRMw79A6nrkYofcCsU0Q1EAiW79kvigEAQAGamRgUsx4bbc7PS4QEVr/yaRVWGl52NULpA6ZKSfry9JfEAABg5Uv2k/9RxnpstN0+/ME6/g7rm8DKrUbu3RMBlGigUpKePh6e3hUEAIBVz8lUX5VlvNs+Oyqw+pTSvOQtj6+6GKH0wWa0IQj08/lwcF8QAABWzPbBwoxvzOfLSQ+sft8MraZj1fi6ixFKN9wSA/r5fHi+JwgAAKtftFOQNL3VPjcSWD2/G+YBH990NULpRjtiQD8OH4sBAMCqV+wqsMqycad1UElg9SmldNrEPW987GKE0t+znT3XsDz58KkgAACsek7WJEEoyeSz1sGRJu69alpbCDc+dzFC4dJEpSQ9TZYODwQBAGDVc7KZWxCWsxiLiPG1+aEeWH2btZq4q8CC4j/Apt6n9HGhNZFnGi4AAKx+WqYCqxSp7qR+8u7u7lre9WidtxDOM4bVIFLtzQFFm0hg0YNn3xcDAIAC6IFVjmo4ah3lBymlw7X8Pdb1BAwGg07JW6qHrkooebC59IUgsHzf/JwYAACUoLGFsBj1xunDFOu5fTBijRNYV65ceRQR80Ynw6mLEgqVqhS5viwQLF1++guCAABQgObILqlijC7Nz0uEBNaKnN6JsBpuuCihUKmuBYF+PPueGAAArFo++R9lrMfG2+3DH6zr73FuElgx2nZVQqkGYzGgH8/uigEAwIpl/a/KMrraPjsqsFZjvnczja+4KKHUgcYWX/qaLB18JQgAACvWuCl0UdJ4d/446YG1orPQyhyOr7kqoVSjTTGgHwePxAAAYNVm+l+VJI1vzw8aPbBWox34yQ1XJZRqtCMG9POxcPhEEAAAVj0ncwfCouSNj1tHlQTWKrRL39L0E1cllPpe7ey5hiU6eioGAAArpgdWWarpp+0Jsybuq9GcNnHP089clVCqyXUxoJ/J0tGRIAAArHpOZgthWedjMq/A0gNrRWbtCqyNz12VUKg0uS0ILF/zPPJMx1AAgFXLM1sIi1mLVVVENTo9Nbu7u/fX9XcZrPWZqKq78WKxUo0iVSmyvbZQnunHYsDyJ0qHX0Y1GQsEq5oedo8m2xEb7pDMe5jtX4zf8+hxwR8oRxHNN65F+JC3UaMCq5gZyqBunZh4mFI6XNffZa0TWPng4G4Mhq3fZhDx/NAVCqW9V6efho8wlv7hPL4dg7/xzwkEK3Hp0kZsTKcCARdJ8zxy8+29F/PsWUTz/C2+7slbNQ7KR/uv+LffRDSHra95HBH5xX88/t6nr/sw8uxpK9HwtPP68tGTiDgpEsi5+/Py0fHPiojIhyc/9+S5/Lzzfbng8389sMoxnM9PUoofrPOvstYJrJs3bz64/+WDoxe/RzUYx0wCC8pKKqSINLkpEADA+VKNIs235bx+LjTYvlhxeZHYa56fJO8OIjfPIh/tRz56cpxMO/o68uxJ5KOvIx/tRZ59HflwL/Lze9E8fxj58KEMyJrLujqUM1QNN+Zvz4i76/y7rHUCK6XU3Lv/5ZcRcbw6Hl6KCLdQh6LUdaz9/SIAAHjL1fI8sfchFfj58GHk5w+jeX4vmm/+asy++avRvPjfs++Kc8FylsAqymirfaQCa8Vvj7sR6WZERBptxZonFOHcSYOBIAAA8G5zyOHVSMOrUV36ZRFXflXnvzUHd+Po4X8a3/zgz0Ta/4862ycpgORVWUbtnpxZBdZK5XT3RWo/jbddnFDa5GOgJwwAAItTjW/E8OZvjsPh/zzS4fdi8HP/WKRn/73AFKKx+7Os9dh4d/44pbVOYK39vp6U4t6Lx3l8zdUJpb1Hh5cFAQCAhZo1x2U+eXg7jm7/bwSkINqXFbYem9yYHzQhgbVKTcwziGl8w9UJpQ2Y3T3XAADw4evAWStLktzvuiQSWIWdj8nt1lElgbXioWt+AiYfuzqhtAFzfFUQAABYqNls3mgpPdcHuaj5vx5YZZneaR0crXUT9/VPYLX2cFYbd1ycUNpb1NZeAAAWbNZqtJSeuythWSdHRVxJqktfzN8remCt/M1xegLypc9dnVCYNLkpCAAALHYZ2KnA+r6AFKRpsiCUsharUuT6tCdx3t3dvb/Ov885aOI+O23iHvXWudgUCefK9LYYAACwULNZuwLrlwSkIFkFVjFSXbfPzIOU0uE6/z7nIIHVLYGr6oGrFEoy/VwMAABYqKZpV2BJYJVED6yCDMbz90mktW8Wt/YJrN3d3XsRMX+LDEYuUijJVG86AAAWp2mayPl4m1rKhxFHXwpKQfLMFsJSVMPp/H0TIYG1aimlo8jx1fwEbbhKoZT3Z5UiKkllAAAWp93/Kg7vKfkpSI6I3NhCWIzRZvvoB+v+65yLjlE5tTKJw8suUihEGgwFAQCAhWrfgTAO7wtISY6EoCijndZB/v+z9+cxsm3Xfef5W+fEnHlv5s2b0807P+qJomhOksg2JZUlS7ZVtOVBKg/lhqqAaqBRQBXa6Ab6j/67G6g2UO1qdHW77T8MtLsLhQJKsC3Lkqosl2xK5JNEPtEURYrzIJF89+Z4p5wjzjm7/4jhnLgv75gnIldEfD/AxYt8fCRfrjPsvVesvTYVWC4WycVSuPoVblLAy7PJll4AAACUbKiBO9sHXckohvO1Hqst5Z+NHlheLstWfoGWuUsBL6pzxAAAAAClyoa2EFKB5UlIiYErjdXCg2Pbk/7rTEcCywqlcMULBOBiH83aZYIAAACAUqWFMp+IBJYv9L/ytR5rXi/+RA8sHw+JtvMLdI27FPDywqwvEAQAAACUu/zLqMBye204gdCXxo3CDwkJLCfL5LwCq3mTmxRwItRXCAIAAABKNZzA2iYgnub/9MDydT2atwef6YHlhFlWSGDd4S4FvDybNbb0AgAAoMQFeQgKIa/yMSqwfF2flC2EbtZiJlljUFAQlpeXJ/5hmZIEViGTWF/pXikAF/9sNjcIAgAAAEozVH2lIHEKoSuBLYR+xLHylE/YM7POpP9KU5HAiqJoqBTOYhJYgAfWYksvAAAAylNMYFn6WBY6BMURKrD8iCrV/FnR5G8flKYkgfX48ePt4QtV524FPAxgbOkFAABAiWjg7nz+Tw8sPyqN/LmRSGB5cffu3RNJT/IL1eRmBS6aSaouEgcAAACUJi1WYHXYPuhJCCSwXC3HapeKP25Ow+8UTdH1yTOK1XnuVuCiXy6VmCAAAACgVFRgeb44hMATq14u/BSowPIlvyBWX+BuBS4aW3kBAABQsizjBEK3K3ISWL6uR/1K/qwYPbB8KVwQqy9xtwIX/UiylRcAAAAlG2rinmwTEE/XJiUGrtZj9dXCxaEHlrOnJb8g1ljlbgUu+udMLUUAAIAASURBVIVZYysvAAAASl72DSWwHhAQT0hg+VqPNdYKP0UksFxdnEIFVqhf424FLlptkRgAAACgVMM9sGji7urapEYQPGneKPyQ0MTd1cOibFA/aq0b3KzABbPCnmsAAADgvEIICqHQAyvZIyierk+hPxkcrMdat/LP9MDydnUKF6R5h7sVuGh1tvICAACgPEPVVwpS8pCgOBKowPJ1PRo3Bx+Xl5en4sSD6UlgpcUE1oaMZwe4WA228gIAAKDEJV+x/1X6WAoJQXEk0APLDYtNimr9K7NnZp1p+L2mJ4GlZGvo14rIYAEX+tJsspUXAAAA5aH/lW8hIwZu1mJxJf+s6dg+KE1pE3dJskqNuxa4SM3bxAAAAAClGTqBsEP/K2+owPLDKo38uZFIYHmzurp6IOnwrAsG4ALU14kBAAAASjNUgUUDd3eowHKkNlf8aXNafq1oyh6Z/CTC2jw3LXBBrBJJUYVAAAAAoDTDFVhsIXR1bai+ciWqXir8FKjAcrlolg0SWKotcNcCF/UsxlWCAAAAgFINJbCSBwTEExJYvtSv5M+K0QPL5wutsLfTale4aYELwhZeAAAAlL7ey0L+A1sIfV2blEPUXKkvFy4OPbC8LpvzBFZ9hZsWuCjVOWIAAACAUg1XYLGF0NfFCcTAk/pq4YeIBJZHZoW9nY01blrgop7FOlt4AQAAUJ4QgkIoJEk4hdDX9aECy5fG9XxtZun2tPxaU1aBVSiNa93gpgUuiNUWCQIAAABKM3QCoSRjC6Gz60MMXK3HWjeLP96flt9ruhJYWaE5WfM2dy1wUdjCCwAAgDKXesUMSXYiZUcExdUFYguhK3N3+p/C8vLyzrT8WlO2hTDLS+Oat7hpgYvCFl4AAACUiP5Xzq8PWwj9iCTFl3s/hD0z60zTrzY1ho6HjGqyiIcIuJBnsblBEAAAAFCaoRMI6X/lTmALoRtRXMnXZYWD7qbid5umX6ZSqQxdHKtUuXuBixjA2MILAACAElGB5Xz+nxADN+Ja/twU+4RPgalKYC0sLDySdDp4sVXq3LzARSCBBQAAgBJloZjAogLLGyqw/IhqreKPm1P1u03TL2NmQVLeoKw2x90LjPs5jCSLmwQCAAAApRlq4k4Cy9e1of+VL9X5wg+BCiznBhcoql7i5gXGja27AAAAKFmxB5a1SWD5ujicQOhKbTF/VoweWM4VLlBtiZsXGPdLha27AAAAKNlwBdYDAuJISImBq/VY/WrhwaEHlm8WtgefG8vcvcC4Vdg+CAAAgHINN3HfISCurg1bCD0JjZXCTxEJLN9PT55htMY6dy8wbjW27gIAAKDEJV72VIdwemD5krKF0JXGteLDQhN3z4p7PEP9GjcvMO6XSn2RIAAAAKA0xf5XCqksfUxQPF0fmri7Ys2b+Wd6YLl/fPIL1LrJ3QuMW+0qMQAAAEB5K7xQ7H/1UAoZQfGECixXQuvW4OPy8vJU7bedugRWWsgwRnN3uXuBcauvEQMAAACUZrj/1S4B8XZ9qMByw0yyer+VUtgzs840/X7TV4EV5U3KQjwvi3iYgLG+NJts3QUAAEB5hhNY9L/yhoI4R6JI/TSPabq2D0pTmMAKp6dDF8nimJsYGCe27gIAAKDMNV6xBxYJLH/XJyUGXlilNvicSSSwvFtfX9+TlAz+RqXOXQyMU+M2MQAAAEBphiqwOmwh9IYKLD+s2ij+RALL/QUzyyTt5hewxV0MjO0BlFRfIQ4AAAAoTTGBpeQBAXGE5JWz5Vh1rvjkbE7b7xdN6WM0yDRa7RJ3MTCuF2YcEQQAAACUqngKIU3cna28E2LgSm0hf1aMCqwJeYryC2X1RW5iYFwvlGqNIAAAAKBUWbEHVuchAfG09KYCyxWrXSk8OPTAmoyLZoULVbvKXQyMS8yWXQAAAJRruAfWDgHxdG1SIwieNFYLP0QksCZDoVSuvsZNDIxLbY4YAAAAoDRD/a8kGT2wnF2gQAwcscZ64aeEHlgT8Qwpy7cQtja4i4FxvTDrCwQBAAAA5a3tigms9IkUTgmKp+tDBZYvzTz/QQ+siVlFFy5U8yY3MTAutSViAAAAgNIU+19RfeUPPbCcad4ZXJrl5eWp2287/Qms1l1uYmBcj159mSAAAACgNEMVWJ09AuJNyhZCVwYFPGHPzDrT9utNZwIrSfIEVnVJiihrBMZheM81AAAAcD5ZocSHCiyH1ydjre1mLRaZFHVPhTdN3/ZBaWpPIRy+WBZF3M3AOLBlFwAAACUaqsBKdgmINykh8MIqlfy5kUhgTYqVlZWd7jXrX8gadzMwDo0bxAAAAAClGe6BRQLLG3pg+WHVRvEnElgTc+HMUkl7+YVscjcD40AFFgAAAEpUrMAyemC5ElIp0ALLDavOF5+czWn8Had3b13IS+aseom7GRj1C7Ow5xoAAAAow1ACiwosX0tu+l/5Wo8V8h5Pt1WaFlObwDIr7PmsL3I3A6NW2HMNAAAAlGG4BxZN3D0JnEDo63rUrxQeHHpgTdaLrtC0zIoXEsBoXiaVOkEAAABAeQvyEBQKe9TYQuhszU3/K1esvlxcnZHAmrDXXaECa5W7GRi1Cr3mAAAAUOKKrpi8Ch0p3SconqRsIfTEmtfyz5ZuT+PvOMVbCC2/YM0N7mZg1M9cdY4gAAAAoDRD2wc7u5LYsuYJWwidXY/aevHH+9P4O05vBVaWNy2zBiejASPHVl0AAACUuaQbauDO9kF/14cKLFfmbvc/heXl5Z1p/BWneAthOkhghdZtbmZg1C+TGgksAAAAlIcG7t6X3ITA1Xqsdaf/cdfMOlP5O07rxSseG2mNdRnJYWCkQoNecwAAAChPlhUbuO8SEG/XhwSWGxaZQtxr6RKm8wRCaYoTWFFU7LofSXHEXQ2MUn2NGAAAAKA0wxVYDwmIM4FTCN2wOM4/mzan9fec2qzO0tLStgpd/iyucVcDo3xpNq8TBAAAAJQmK2ZIUnpg+btAhMDNWqzaKF4WKrAm7gKatSU9OuuCAhjBM9e6RRAAAABQmuEm7vTA8iRkUuAQQj8qreLKjAqsCZX3warOc1MDoxzEho9tBQAAAM6l2AOLJu7O5v5UX/lSv1R8cqjAmlB5Aqu2wE0NjIjFkRSxTRcAAADlGarA6rCF0JOQckqaJ1FtsbA4MxJYE/pYDS5cqC9xVwMjUmwaCAAAAJx7JReCQmGPGlsInV2flP2DrtSWC4szthBO6Ko6zzxaY4WbGhjVo1apEwQAAACUZugEwuxIyk4IiiNUYDlbjzVX8x+ShAqsyXzrFbYQ1je4q4FRqc4RAwAAAJS3lMuovvKMCixnGkMnwlOBNYmsuPezdZ2bGhjVs1a9RBAAAABQmqzYJTyh/5W765NRgeVqPZafCJ+urq7uTuvvOeU9sPLu+9a8xV0NjOqFWeeQBAAAAJS4kis2cKcCy5+UEHgSmnf6H3fMbGqvzsxUYIXGTe5qYFRqHJIAAACA8gyfQEgCy9/1IQZumKTqYu+HsDXNv+pUJ7DacZxfvKgiiyJubmAU6qvEAAAAAKUp9sASFVjuBCqw3IgqhRPhp/gEQmnKE1injx4NZR+tWuHuBkbAmtcIAgAAAEoThrYQ0gPLHSqw/CieCF84yG4aTXUC6+7duyeSHucXtsnNDYxCg1M+AQAAUB56YPkVUilwCKEbVshzDB1kN4VmYU/d9uCXrba4u4FRDGItDkkAAABAeYqnEAYSWL7m/mwfdMVqQyfCs4Vwwh+vPANZ46Q0oPQXpklWXycQAAAAKE2xBxZbCJ2tsNk+6EttsfjkUIE14avrwQW0+hVubqBscaTZKOYEAADAOIQQFAp71KzzkKA4kqVGEByJ6lcHn1OauE/601VoYlZf4e4GSmYRhyMAAACgxCVcof+V0gMpnBIUVxeIBliehEbhRPgoogJrohfXxSZmjTXubqBsVQ5HAAAAQHmyYvVVQvWVu+tDBZYrVjhQKzupUIE14Y9XvoWweYO7Gyj7JcLhCAAAAChzBVeswKL/lT8pFViuNG8OnpZr1y5N9YkHU5/AygoVWKF5m5sbKJlVLxEEAAAAlCYUElg0cHe4xs6owHL1vOR5ji0zm+oW+7PVxL11h7sbKFt9kRgAAACgNMMnED4gIM6ElBh4YSZZY9Dre2vaf9/pT2AlSX4Ro5osIlsMlDqAFU69AAAAAM5raAthhwSWu/k/CSw/4lh5Wme6TyCUZiCBFUIYzkJWqtzkQJkvEU73BAAAQImyUNxCSALL3Ro7IwZu1mLF/IYFKrAm3fr6+qGkw/wC17jLgTLV14kBAAAASlPcQkgTd2fXhhMIfSmeCJ+JCqzpkPfBUnWOmxwoU4vTPQEAAFCe4hZCS6nAcoUTCH2pzhd+MCqwpkJhG6HVLnOTA2VqcLonAAAAyjOUwKIHlrNrQwWWJ1ZfyD9bRgJrKi6q5d34rX6Fuxwo79mS6IEFAACAkoQQFEK/yico0APLFyqwfKktFX9iC+E0yIqldPVlbnKgLHFMDAAAAFCaPHklKd2XhQ5B8bS2pgeWK1F9dfDZjC2E0/KY5RVYjTXucqAkFnOqJwAAAEpcuWWcQOhZyKjAcnU9GtcGnyuVChVY07HKzjORoX6duxwo69GqNggCAAAASlNMYIkElj9UYPnSHOQ3ThcWFh5N+68bzchDlpfStW5ykwMlMU71BAAAQImyQoUPFVgOr09KDDyJ5u5IkoK0ZWZTXx43I03c8wRWNHeXuxwoS/USMQAAAEBpslCswNojIM4ULw8cXI/ahiTJpK1Z+H1npAdWkm8hjOdlEWWPQClqi8QAAAAApaEHlm+BCiw3LDYpqvR/3JyF33kmElhxHG8NX2hOTgNKeWnWrxIEAAAAlGZoC2HnIQFxJAQqsFytxSq14tWhAmtaXL169Ymk48HfqNS524EyXpqNdYIAAACA0oShJu67BMQTkle+FA/UMqMCa6oW2tL24HO1xc0OlDHBqJPAAgAAQHmGtxBSgeVq7s8JhK5YZehALSqwpupFWLigVqPxNFDKC4RTPQEAAFDmui0UTyGkibura5MGguCI1RcKF8dIYE3VxS0msOqL3O1ACULzFkEAAABAafIKrCCljwiIq4tDBZYnVlsq/JSyhXDKltp5RrK2zN0OnPvtYVJ1kTgAAACgFMPbB59IWYegeLo+VGC5YvWV/LNRgTVlVze/oNZc424HzvtIRRFBAAAAQGmyoQbubB/0d4GowPIkFPIaURRRgTVdD1uhqVn9Gnc7cN6Xx9CxrQAAAMA5l2yF/leigbu/60MFlivWuNH/eHz16tUnM7EGnaHLmyewaDwNnF+lTgwAAABQmuEthA8IiDMhIwaurkezn9cIm7PyO89OE3fLCgmsu9ztwHmfqeocQQAAAEB5C/KhLYS7BMTb9UnYQuhK/0CtMBv9r6SZSmAVLmp1SeLZA86ndpkYAAAAoDRZlm9RM7YQukMFlh8WmSxudD+bqMCaNpVKZSgraXHMXQ+cR5UEFgAAAMozvIWQJu6ehEACyxOrVPPnRlRgTZ2FhYVHkk4HF7xK/x7gXOpLxAAAAAClyYoZkg4VWL4uDiHwxIb6EWdUYE3dBTYLknbyC97krgfO8/KoLxMEAAAAlGZ4CyE9sFxdm5QYuFJt5Z+NCqxpNbiwVpvnpgfOo75ODAAAAFCabKiJO6cQupLSRNqTaLgfMQms6VTITNYWueuB82hcIwYAAAAozSCBFTJZ+oiAeLo2aSAIntQK7VxSYwvhVLIwSGCx/Qk4p8YNYgAAAIBSZKGwfTB7IgX2rHkSMiqwfK3FivmMhATWdL4V89K60FjhpgfOgy2EAAAAKEkY2j7ICYTurg/5RFeska/FQghsIZzKi1xsbsb2J+D1n6XYpKhCIAAAAFCKYv8r69D/ypvAKYS+rkd9kM84WF9fP5yV33vGemBleRP35k3ueuB1xVViAAAAgPJWakMnEFKB5Q0VWM60BvmMzVn6tWe2Ais0b3PTA6/74qjUCAIAAABKU6zACslDAuIMCSxn67G5u/0rszVTv/cs/bKdQgLLGtck+tABr8UqDYIAAACA0mSFPWpUYDm8PiSw/KzFIlOI53s/GBVY0yqcVoeykxbH3P3A66jOEQMAAACUJhtq4k4PLF8L6d4fuDCUxygcVDcLZiqBde3apT1JncEvX6GPD/BaqpeJAQAAAEoz3AOLBJara0P1lS+Vev6sFA+qmwGz1gMrSNrNF+FNbn7gdZ6l2gJBAAAAQGmGTyFkC6EnnEDobC1WbRWfHLYQTvnlzjOU1XnufuB1VElgAQAAoDyBLYR+rw0VWK5Y7dLgc0oF1rRf7bxLv9VZhAOvhS2EAAAAKFEWelsIQypLHxMQR0LK6WeeWH2x+CMVWNP9Ziw0OastcfcDr/PSrF4lCAAAAChFCEGhl8Cy9BElP96uT0YHd1dqy4OPWRyTwJrqhXehxC6qr3LzA6+jTgILAAAA5eAEQt+owPLFmmuDz+nBwfYs/e4z2AMrGySwQuMadz/wOurLxAAAAADlrNCKJxB2SGC5uz4UxDlbiw3yGI9v3rx5PEu/+swlsLJik7PmdW5+4HXU1ogBAAAAylmjBSqwfF8gQuBK62b/0+as/eoz2MS9sIWwdZubH3idx4j+cQAAAChJcQuhJQ8JiDO0JHOm2c9jzNYJhNIsJrCS/CKH5k0Z23mBV59kiAcHAAAA5Sg2Cbdkl4B4m/uTwPIjskIT94wKrOnX2Rr69SMW4gAAAABwUWji7ljo/YELFhVSOEYF1tRbXV3dlTTIIVulxlMAAAAAABeEBJbja0P1lStWrRcujkhgTf0FN0sl7Q3+RrXBUwAAAAAAF6TYxN1IYDm7OITAE6s0iz/N3BbCymxedW0paLV7A8xJesyTAAAAXlsIQSGwxwIzNqWmmSxKkhV6YFGB5ezapDznrt67tfnCOzibuQqsmUxgWdBWkD4gSVZfkHSPJwEAALy2o6NjHR0dEwjMznzaTMtXOZUY5RhsIQypLKW4wNW1SYPEAU5+1BaLP9HEfSYeQuV7Ra3GwAsAAAC8imq1QhBQimIFq6WPpMCeNVeowHIlql3NP0cRCawZeU3mCaz6Ck8BAAAA8AoqFRJYKEcW2D7oeuVMPtHX9WiuDj4+ePBgZ+bGnpm86mZbg6NAG2s8BcArik7vKYubBAIAnjXViKpSVCcQmLIbuyZF3QOQqiSwUNaCvHACoXUeEhBnsoQYuNJY7z430sM333zzdNZ+/dnsgVXYQqjWDR4C4BWdfvI/IQgA8By1haDaZeKA6ZKu/W+Vrv5vuosIElgoSVZMYKVUYPm7QITAE2ve6n/cnMXffza3EGbR9uBz8w5PAQAAAPACod5dOEVRpCiKCAjKWZoVTiAMCRVY/q4PMXD1Hm5138NDRTkzZCZHHrM0v9jNmzwFAAAAwIsWTvXbktg+iHINVWAlewTEm5QQeGEmWb2/hdCowJqdC295AiuqySJOVgAAAACeM4NWqHVbb1Q4gRAlykIxgUUFlichk4o99nHBokj9FI4powJrVly9enVbGrRxl1WqPAwAAADAs1RXpah7gAv9r1Cm4hZC0cTdlUD1lStWLeQtikU5M2RWK7A6QRq8Ha3CKUEAAADAs2T1QeNgVeKYgKC8e4sthG6FjJ1KnlilcAp8RhP32br4xaZntTmeBgAAAOBZC9leAsvMaOCOUnEKoePnPmX/oCdWu1T8iQTWjBkksKIq51wDAAAAz9RLYMVUX6FkYZDAClLyiIC4ujZUYHlitYXCTylbCGfs8g8ylqF+hacBAAAAeNZClgQWRiTrdwlP9qWQEBBPz31CBZar61HL8xZGD6wZY2F78LG+zNMAAAAAPGvhNEhgsX0Q5WH7oPfrQwWWJ9ZYGVya5eXlnVmMweyOQFm+hdAa6zwNAAAAwBmCVRUqa93FA/2vUOaSrJDAUkICyx1OIXTF6hv9j3tm1pnFGMzyFsJBAis0r/M0AAAAAGep35Ksu3UwJoGFEmVZvkXNSGA5vD7EwJPQ6uUtbDZPIJRm+RRCy/I9o82bPA0AAADAWYum2q188RDRAwvlyUJhCyEJLH/PPhVYrkStO91nJWhrZmMwq794selZ1LrL0wAAAACctYht5F/20gMLZRraQth5SEDcXSBC4OpdXL/W/0gF1sz94lGUbyGMW7KIBnUAAADAuxZNtduSJDOTGXNmlHhvsYXQ77VJpcAhhG5YFElRTZKUyajAmjWPHz/eHrohOBIYAAAAePdCttbtu0IDd5Rt+BRCKrBcPfdsH3TFqpXik0MCa9bcvXv3RNLj/IZo8FQAAAAATy9kq5xAiNEoJrACFVi+nnu2D/pSaeafzdhCOKPyzGWlxUMBAAAAFFksVVe6CwcSWCjZUBP3DgksV9cmZbuwJ1G1kK8ggTWzI3KewKpf4qkAAAAAiqor3SSWSGChfFmxBxZbCJ1dHBpguVJbyD8n9MCaTRbykwhrizwUAAAAQHENW1kdfI459Ahl31/9LYTZkZSdEBBP14YKLFesdmXwOYQ2FViz+VQWthDWlnkqAAAAgKLaWr5woAILZS7FOIHQt5QKLFcaK4Mrs7a2tjerYZjpUcgsL72z5hoPBQAAAFAQquv5woEEFko01P+KBJa/60MFli+NQb5ix8xm9ozIGR+FCsdPNjZ4KAAAAICiKhVYGI1QOIFQHfpf+bs+xMATa97of9qc5TjM9CiUFiuwWrd4KgAAAICCjAQWRnVvZVRgeRZSYuDqejRv9x6WsDXLcZjxJu55Ais07/BUAAAAAEW9HlhmJjO2FKE8xR5YSvcIiDNUYDnT7BXcZKICa2Z14jx7WV2UGJMBAACAfBHbq8Ci+gplK1ZgKXlEQDxdG/pfuWKRyeJG97OJCqxZ1ensD2Uvo0qFpwMAAACQpKgpxZe7H0lgoWRDTdw7bCF0hRMIfRnKUxgJrFl18+bNY0kHg78R13g4AAAAAEmhupovGiIqMlCu4hZCS0lgubo2VGC5ElXqxavDFsIZN8hgRrUW0QAAAAAkqbqcLxqowELJhrcQksDydXGowPL1Lp4bfDTjFMLZVtxDWp3n4QAAAAAkhQoJLIzO8CmEDwmIp2tDBZYrVrs8+NwxthDO+NNZSGDVFnk6AAAAAEmhejVfNJDAQtn3V+hW+VhoS+kBAfF0bajAcsXqVwaf02qVCqyZvhkKFVhWv8rTAQAAAIgKLIzw3gphkMAKNHD3hwosX89LnqfoXL90aabLFWd+JMoU8gqsxipPBwAAACBJ1ZXBx5gEFspcg7F90Pf1SYmBJ1Zf63/cNrNslmPBSFTYQ2rN6zwdAAAAgKRQYQshRmMogZWSwHL37GfEwJXGIE+xOeuhYCQqnEKo5k2iAQAAAEhSbwuhmcmMLUUoT1bssZTsERBnAhVYrlirn6eY7QbuEgksKY0KCaw7PB0AAACA8ibuVF+hbFmhxMc6VGC5eu4DFVjuzN3pPSyBCqxZD4BZkiew6isS3y4BAABg5lcJTSlqdT9GzI9RruEeWDRx93VxCIGvd7FJ8eX+tdme+XDMegDMhsvwLOYbJgAAAMw2TiDEKA1tIUxJYLl69jmB0JUojgs/GRVYsx6AlZWVfUlHg4BUqzwlAAAAmG3VQgN3I4GFcgUqsNzK0kAQPKnUij+RwOKOkGSFUry4RTwAAAAw06jAwigVe2ApoQeWr4tDBZYnUTXPT5hlJLC4JSQLhZMIq/MEBAAAALOtupIvGOiBhZINbSHsUIHl6tpQgeVL7dLg49Ptj2YRCSxJmfIEltUXCAgAAABmWqjkWwiNCiyUvf7qbyEMqSx7QkBcXRwS1p5YbXHwOY5jKrC4JSTJCgmsJcIBAACA2VbsgUUCCyUKISiEbpWPpY+kwLF3nlCB5Ux9sJ37dHFx8fGsh4PRSJJZyEvxGmsEBAAAADNtqAcWTdxRoqHtgzRw9/fscwqhL/VufiJIW2Y289lFRqOuQgLrGtEAAADAbC9iK8UKLBa0KE+xgbvR/8rfs58SA0+sOchPbBINEli9t2hhC2HzOvEAAADAbC9ie1sIzUxmJLBQ4r2VFRJYVGA5vD7EwJXWze6zUiy6mWEksCRJaX4zNO8QDgAAAMzuAtZqUny5u1ig/xVKlhUSWCF9REA8PfuBBJY7vfxEkFGBJRJYkp46jrK5Ib5kAgAAwMwq9r9i+yBKVuyBZckeAXF1cQiBK2ZSrf8+zkhgiQRWd4yuVLaGQhITFgAAAMymUCv0v6KBO0qWDW0hfEhAPF0b+l+5YpX8/TtUdDPDGJEkXbly5ZGkk8HNEVcJCgAAAGbTUAN3lgsoV7GJuzoksFzhBEJXLK4VHhwSWBIJrKKdwY1SbRINAAAAzKRAAgsjxBZCx9cmDQTBkeG8BD2wJBJYRflJhNU5ogEAAIDZVLmSL5nogYWSDW0hTDmF0JOQ8bx7YtX5wk8JFVgigVW8PfIborZAOAAAADCbi1gqsDBCeQIrSMkjAuLp2acHli+1xcFHMyqwJBJYOQt5BVZ9iXgAAABgNlXyuTBN3FG2ELrb1Cx5IoWEgHi6NpxC6Io1Bu/i45WVlX0iQgIrl+VbCFVfIR4AAACYTcUEFlsIUeaSq7B9UCkN3L2hAsuZ+mr/ylB91R+TCEFfvoXQGuuEAwAAALO5iK0WE1gsF1CeoQRWQv8rd88+CSxfmhu9C8P2wcGYRAi6zLK8Aqt5g4AAAABgNhex8VJvfmwyowIL5Rk+gZAElrvrQwLLFWtc772LRQP3HhJYubwCq3WLaAAAAGD2xHNS1OguFKi+QsmGTiAkgeVL6P2Bn0vSvNP/SAVWD6NSPxBRNEhghcZNAgIAAIDZWzDFxQbuVF+hXFmxS3iHHliurg3VV66YSda81r02ClRg9cclQtB1XK3mN0VUk8WEBgAAADOmQv8rjA4VWH6FjIS1K3GkQrqGCqz+uEQIuq5fuvRAUmfwQq1UCAoAAABmaxFbuZovFEhgoWRDPbBSEliunv2U/YOeWFwr/GBUYPXHJULQvycsSNoZ/I1Kg6AAAABgthax1Sv5/DiiIgMl31+cQuj32qQ8755YtZCPME4h7COBNWyQ2Yxqc0QDAAAAs4UthBghemD5FTIqsDyx6nz+Q5JQgdUflwjB0GOb3xjVy4QDAAAAszUbriznCwUSWCjZ8BZCEliunn0qsHyp5fmIEGjiPhiXCEHxqS3sLa1dIR4AAACYrelwJZ8DR8ZSAeUaNHHPjqTshIB4ujacQuhLfVANu7++vn5IQHrjEiHImeVbCK25TEAAAAAwW/PhoS2EVGSgPJxA6P0CEQJX7+L6av8j1VcFJLCGb5NCBdY1wgEAAICZEuiBhRHJQmH7IAksf9eHCixXrLnefyuTwCpgVBp+bPMKrNYG4QAAAMBMCdVuAsvMZEYFFkpcaWU0cHf97JPA8qV5U72XMScQFpDAKr5ULa/ACs3bBAQAAACzI56XrN5bM5G8QrkCWwgdX5zeH7hhzRvdD5lIYBWQwCo+t0mUl+c17xAQAAAAzM5cuNjAne2DKFnxBEKlewTE07Wh+srf+7jRrcCyQpENSGA9pZ1vIYwbsphvngAAADAjKlfzRQIN3FGyoS2EySMC4gjbB32xOJKiWv/JoQKrgARWwdra2p6k/PGNKwQFAAAAs7GILSawjGUCypWFwhbCDlsIXT37GQlrT6wylIegAquADE3xRjFLt3d2dyWtSVJUqSttdwgM8PSLY+19MvLfGNUEd/+7So/2CQQAjHsRW2ULIUY4vhd7YKUksFw9+2mQRBLLC6vU8880cR9ehxKCdz2+W5KtSZKqLUkHhAR4Svzh/4dCPE8gMBLR1/++0m/+KoEAgLGvDPIKLGMLIUo21AOLCixfK+CU590Tq+XrrHYcU4FVXCcQgqef3rxJmlUvEw/grMckSwgCRjdoN64RBAC4iPG9spQvEthCiJINV2A9JCCu5vbEwJVCHuL00SMSWAWMTE8vnCzfY2qNRQICnDkDYWstRjiJmrtDEADgIt6/cSGBRQUWyr6/QrcCy0JbStnl4ura0MTdl9pgO/eju3fvnhCQHAmsp9flyiuwQn2FgABnDXIigYXRsdZ7CAIAXIShUwhZJqDEuWMIgwRWYPugv+tDAsvXXLi53P9I9dVTGJneJcsrsOprhAM468UR2EKIEWpuyPjiHwDGr7KYL6BIYKHMFdbQ9sFHBMTd9SEGrtQG7TRo4P70OpQQPMXyCiw1rhMP4MxRjq9pMOKhKY4JAwCMWagWe2DxTQJKnDoWE1jJHgHxhqm9K9ba6L+VSWC9e5WA4Yc3T2BFrZvEAzhrgkudMUY9cFdqBAEAxroqaEnWPbrdzGQksFCioRMIE7YQuprXZ1IIxMHVNWne7k2IjS2ETw9VhOCpRZOleQ8sGgkDZ79UQ5sgYLSDU22OIADAOMf2ypX8HUwDd5QsKxxzZx1OIHT17PO9tD/9BFZGD6x3rREIwTAz2x78EF8mQsBZzwk9sDBqtcvEAADGuYgtJrCMCTDKNdwDiwSWq2c/I2Htap0VSRY3+z+xhfApjE5PWV5e3pY0eMNGcYWgAE9L+aoGIx688+ODAQDjUFkqLKBYIqBcQ1sIO7sExJGQsn/Q17u4mr+LLaMC6ymMTk8vmswSBeVfC9CHBTgDFVgYsSanwALAeBdNi/kCgS2EKFmgAsvxteF59ySq1Is/UoH1dHwIwRkPseV7TaNqi4AAT8tIYGG0rLlBEABgnPPfuHgCIUsElDx1LCSwaOLu7NlPqMBypZB/iKKICqynMDqdtXBSoVla7RIBAZ4e6EKHIGC0mpwCCwBjHduri8VFEwFBqYpN3ElgObs2VGC5YtVBH9iwtLS0TUSGMTqdfdsMElhWWyQcwNNPCMeVYNRabxADABinuNgDiwUtyjXogRVSWbpPQDxhWu9rnVVb6D0remBmHP3+FBJYZ6/O8wqs+jLxAJ4WeJdixKjAAoDx4hRCjGraGIJC6CawLH0kFauxcOEyEli+9PIPxbZGyDE6na2QwFolGsDTkhNigBGPTjVZhSEKAMYlVAsJLCqwUKLh/ld7BMTbs08+0ZfGev8TDdzPWiIQgrPesoUthDQSBt4tPSYGGDkrHCMMABixuJjAYomAEpdWIW8SbiSwHF4gQuBq/pvnH0hgnYHR6aybxrK8AqvFNhbgaSE9IggY/bu4MkcQAGAsL9xIIV4ozIWpwEJ5hiqwOg8JiKs5vRQ4hNDX67h1u3912EJ4BhJYZ8tvluYdogE8/WLNSGBhDPcZp8ACwHgWsdFlyeLuu9eMBBbKvb8KCSzjBEJf14b+V/6uSfNW/11MAusMJLDOCkoU5TdLbVmiDwAwLKUHFsagsUQMAGAcqkvFeTDxQKkGJxCKBJY39L9yJpJUXew9ODRxf1aI8JQHDx5sSxq8aY2BHBhGDyyMgdVXCAIAjEOFBu4YneEm7iSwXF2blOfdkyiuFGfC9MA6K0aE4N3efPPNU0mPB7dOpUZQgIJABRbGoXGNGADAOMb1YgN3Y3mAcmXFMp+UHljOLg4x8CQu5h1SElhnYIR6tvwkwmqTaABFVGBhHJocogEA4xAq+RZCdh6gbMUKLGtzCqGra0MFlitRrZU/K/TAOjtGhOBZrJDAopEwMIQEFsZh/g4xAIBxqCzmiwO2EKJkxR5YStlC6GtOTwWWK9X5wWOzvLy8Q0DejQTWs1jh2MraAvEAipJDYoDRa75BDABgDEKFLYQYnUEFVkhl6RMC4urakLB2pbbY/7RrZgkBeTdGqGc+zYUthJyEBQxPdDN6YGH0LG7IYiZWADByleIphLx3UeKcMQSF0K3ysfSxFFKC4un6cDl8zX3rV3sfOIHwWUhgPVt+09RXiQZQ1GELIcY0kFeqBAEARq2whZAeWChTFgpb1DiB0B0SWM40enmHTDRwfwZGqGctmopbCJsbBAQoSk+JAca0qOIQDQAY+SK2WIHFFkKUeW8VG7h3SGD5uz7EwBNrXu9eF9M20TgbI9SzFbYQchIWMCTrEAOMZyCvzhEEABj1IjYu9MBiCyHKnDIWE1g0cPd1bTiB0J/eCdyR7D7BOBsJrGdIC8dWhrnbBAQoTnRTegpiPKy+SBAAYJRjutWkOP+yIGILIUpUPIEwJA8JiKsFLycQutO8031ulNED6xkYoZ41mHfivAKrvi4jQQ3kz0eWSWLQw+hZnUM0AGCk79lqsYE7SwOUa6gCK9kjIJ6uDRVYzl7Gkuorvc9GD6xnYJR6hiQ52BoKEwM6MBBCkDIauWMMOEQDAEY7pseL+YyXb2xRsiwUE1hsIXR2cYiBIxYX8g2F3WAYRlbmGW7evHksaX9wD1U5CQvIBzxJyRPigNEP5g0O0QCAUSr2v+IEQpQ+ZSxUYKnziIB4ujZUYLkSVWv5e7lDBdYz40QInivfRshJWED+Us0kyx4TCIz+XmvdIAgAMEoVthBidIo9sCzZJSCu5vNUYLkStwo/tKnAegZGqec/1nkCqzpPOIACO+F0V4zhPmu9QRAAYJSz3SonEGJ0hiqw2ELoCxVYvuT5hnRtbY1s7zOQwHruiJ7vPbXaAvEAio9HZ4cgYPSaGxyiAQCjNNQDi6UBypUnsIIspXrf1bVJiYEnVh/kG7bNLCMiZ2OUet5NZPkWwsBJWMDw83FKAgtjGqbY0gIAozO0hZBvDFCuELrb1Cx9LIWEgHi6Nmwh9LW2ql/tf2L74PNXBnjObZRXYDVWCAdQHPROOQoZYxqoCk0tAQAlj+eFBBZN3FGm4QbubB909+yzhdCVPN+Q0cD9eesCQvCcl66yPIFV5yQsYGjQS0hgYUwqLWIAAKMaz6s0cceI1lJD/a8eEhBPz33oHsoER9ekfq37wTiB8HkYpZ7H8gqs0LpOPICi0yfEAON5Fdc4RAMARqa4hZCmgyhRMYFlNHB3dnEIgbv5bv/k7UxsIXwOEljPk+YJrKh1h3gABSHZJwgYj/oVYgAAI1kxRQrFJu5UYKFEWbHHEpX7vubxbB/0p3mn+1o2emA9D6PUcyWFJu5UYAFD2ofEAOMZqGpXCQIAjGIRG12WLO4vmmRUYKFEWWGPmqVsIXR1bVIauLtTX+9fHbYQPm9dQAiebSj7GVVobAkUpcfEAONZYDXXCAIAjEI1/4KAEwhRtqEthDRxd3ZxeN49sUokRZXuZyqwnouMzHOsrq4eSDrMb6wKQQH6klNigPEM6k0qYAFgFEIl36JtxrIA5WILoeNrQwWWr7luXC28i2ni/jyMVC8e2rcHH6tNwgH0n4wskQJJLIxB6xYxAIBRqHACIUZnuIk7Wwh9XRwqsDyxSmPw+bhapQLrORipXrhKLzRyr3KUOzB4NFKTkscEAqPX+gFigEmcPxAD+FdhCyFG+BrkFEK3qMDypXDiduf6pUs8LM9BAutFN5MVjrGsLRAQoD8pCUGWksDCGFQXJdZVAFD+WF7YQkgFFsqWN3EPClRg+Xr2OYXQlzzPsGVmZBefg5HqRS9e5RVYxlHuwNDAZ1RgYVyDFT0IMWlYG2ASxvIqWwgxwnVUvwdWui8LHQLiah5PDFxNGeqDdzHbB1+0JiAEL3z15jdRfZVwAP2BL5PEt2kYl0qdGABA2eJCAosm7ihzBUX/K+fXhxi4Ul/pPy00cH8BRqoXGDrGskECCxjS3iEGGM+7mB6EAFC6QBN3jEgxgSX6Xzl78CWRwPI1zx0UymQksF6AkepFz3eaZ0GteYOAAMXn43SbIGA86peJAQCUPY4PJbDY94ryDLYPSrJkj4B4ujZsH/Sn1cszFItncCYSWC9QrMAKzdsEBCg6ZUKCMQ1W1UWCAADlznKlOH+3UoGFMuUN3NlC6A39rxxq3uk9OPTAeuGagBC8SJLfRM1bhAMoalMSjjFNtpps4QaAUsWXpKgqSTIzmVGBhfIMbyEkgeVqTsX2QX+aN3sf6IH1IiSwXjS2x3F+CmHckFFeDeQDYPsJQcBYWI0EFibuDUkI4PsOpf8VRmhoC2GHin1Xzz4VWL7muLFJUa372TIqsF6A0eoFrl69+kTS8eBvVKoEBejrkMDCmAb35gZBAIAykcDCCIXiKYQpFfuurg0JLF9z3LhS/JEKrBdgtHqpuyrfixpVasQD6A+AyRFBwHhewy16EAJAqWM4CSyMEKcQOn72U3YUuZrjVhuDz5VKhQqsF2C0epmbKhSaqVXnCAjQ1zkhBhjPZGvuDkEAgDLfq5xAiBEqNnEngeXs2lCB5YpV5/sfT65cufKIiDwfCayXechVqMCqcZQ7kA+AqSy0CQRGL74ssb4CgPJUqcDCCOeIQz2waOLubXELP6x6qftXcQLhy2C0ernbKr+Z6lcIB9ATMikkjwkExjNgVSoEAQDKGsMr+ZyWBBbKNthCmB5K4ZSAeLo2VGD5ehfn+QX6X73MeoAQvJhZKCSwlgkI0JdKlpLAwpjE9CAEgNJUruYLAhJYKFFGA3f383f4Yb38QkYF1kthtHo5g5vJGmtEA+gJmSQqsDCuAb7aJAiYoBuWPa9wLl7MFwQksFCioe2DCdsHvc3dA2HwNV1orvc/UYH1EhitXuotnN9MoX6deACFQdCSPQKB8QzwtUsEAQDKGsM5hRCjWjoNNXBnnujquecEQn8aN/pPDhVYL4HR6qWk+c3Uukk4gKKT+8QA41FbIAaYoFUCIYDzW7TYxJ2KQZR5bxW3EHbYQujq2qQMTu6uSbObwDKzbaLxYiSwXoJZ3sQ9mrtLQICiU74swJgGLHoQAkA54jnJ6t2PMcsBlKu4hVBsIfR1bajA8je/bXXzCyE1qgJeJl6E4CXG+DgerNBDPC+LePCBwTNxskMQMJ57rbFCEDAxmCnA9fs0ZvsgRmeoiTtbCJ1dHCqwXM0VIlOIW93PhaIZPBsj1ktYWlp6LOlkcKPFMUEB+pPgNqXhGJPGNWIAAGUY6n/FvBblKiawlDBPdHVtqMByZTivkNDE/SWQwHrZm6t4rGWlTkCAvg6nEGJM7+EmPQgxSTcs33LDLxq4Y5SGm7g/IiC+Lg4x8DRVqOZ5BSqwXg4j1ss+64UEllVbBAToa+8TA4xnwdW6RRAAoIz3aTXfkh2TwELZ66ZCksSSXQLi6dpQgeVLnlc4WllZYVH1EhixXlKxAouj3IHCJLhzTBAwnvdwfV0clAUAZSya8kMxqMBC2YZ7YLGF0NW8PSUGrtQu958Utg++JEasl3/c8wRWfZFwAP0nI+lI4ZRAYDxDFgstADi/QgUWCSyUbZDAyk66f+Bn3k4Cy9fMtrbY/WCBBNbLrwbwUop7Umsc5Q4MBsLMZB2+XcOYXsWVGkEAgHPKKoUthDHLAZR4bw1tH2R+6GrOLqnYngwO9PMKmUhgvSRGrJd+Gxe2EDbXiAfQHwxT0aATY2PVBkEAgPOiAgujWjIVMiTW2SMgniSEwN28Ns8rkMB6SYxYL3975TdVnaPcgb6QSZbyDRvG9CauzhMEADjv2N3rgUXyCuXPCwslPulDAuJIRvWVP42N7vyWEwhfGqPWS0vzm6p5m3AAg4mKpPYOgcB4DJpdAgBeb/bf6v4RCSyUr9jAXWwhdHZxCIE3NjhhO6MC62WHMELwkjdXMSs6d4eAAEXH94gBxqO+RAwA4BxCYftgTAILJRvugcUWQlfXhi2E/t7HeWEMCayXxKj1kiqVSp7Aql6ROModyF++p9sEAWNh9RWCgAm5WZkowKlqfhgRFVgo23AFFlsIXc3XM8YlX/MEdfMKksyMBNZLYtR6SVeuXHkkaXAOrMUxQQH6TthCiDGN9Y11goAJWSkQAvhUPIGQBBZKv7+GmrizhdDVsJQyMHkSVfJ8QjuO6YH1snEjBK80Fx2UmVi1TkCAvs4jYoDxaG4QA0zGnMFYKMCp4gmEMUsBlGt4CyEJLFfjUkoFliuVPJ9w+ugRCayXxKj1Ckwa3FhWaRIQoD8gnj4mCBiP5h1igEmZMwA+FbYQ0gMLZaOJu+P5OhVYvuYJeT7h4d27d0+IyMth1Ho1eQKrxlHuwGBA7BwSBIxH8yYxwKRMTQkBfI7ZQz2waImBchUTWJaSwHL17NMDy9csoXap/5H+V6+ABNarPfZ5aV9tkXAA/ScjaUuBs3kxjlGrJouZgGEi3oyEAD7FhVMI2UKIst98ofvus9CWUr7g9CRLiYEreT6BBNarLAUIwSswGySwovoy8QD6k5U0k6X7BALjeRXHVYIAAK87ZvcqsGjgjtLvrRAGCSx19giIq4sjvldxJqpf7V0aTiB8pbgRgleQ5VsIQ2OVeAD95yE1+hxgbKzCIRoA8Jpv0EEPLKqvUPpSaaj/1UMC4unaUH3lb/00yCdkJLBeASPXqw36+c3FUe5A/gLOJKVMVDAm1RYxgP8Zg7HVFQ7H63hBwbpVrPS/Qtlo4O754hACd3r5BCvs8sKLkcB6pcloljdxp5EwkE+IM0mdXQKB8QxctcsEAZPwZiQE8Kda6H/FFkKULMvy9x4N3J1dm4QvVbyx5u3exREJrFdZBxCCV7jJCtnR0L/hAHSfj6N7BAHjUV8gBgDwGkIhgRWxhRAlGzqBkAosX88+Wwj9XZNBPoEeWK+CkesVVCqVvAKrcY0TsoHiS/iUdy/GpMYhGpiAdyJbCOFRNX9/UoGFsmXFE6k7JLBcjUlsIXTFTLJG/wuFlEXUK2DkegULCwuPJJ0ObryY3gHAwMkOMcB4Bv3GCkHABKwWCAEc3paV/BCiiHksSjZcgUVvVFfXhgosX+JYhVQMCaxXQALrVRZNZkHS9iB4FY5yBwaTYr5pw7g0rhEDTMCcgQwWHI7V9MDCCA31wEr2CIgnJLBcKeQR0pWVFaoAXiV2hOCV5U3Wqk2iAfSdPCEGGI/mDWIAAK+jt4XQzDgpE6XjFELP14YY+HoXD/IIO2ZGevEVkMB6ZYVjLqvzhAPoCck+QcB4NDhEA5MwXSA5AIdjda8CK2b7IEZxfwW2ELpFisSXQR4hbBOMV0MC65UnpCFv5M5JWEAuOSYGGI/6CodoYAJWcoQADlW6FVgxJxBiBAZbCLOOlPLFpqtrQwLLlUEewew+0Xg1jF6v/PQXthDWlogH0H80klQKpwQC4xn4qR6A+5uUDBZ8CVZTiLuLpjjiHYqS768QFELvvZc+FFl8R9eG7YP+9PMIGQ3cXxUJrFefkQ4SWFF9lXAAxcGxQ7k4xvQmrlQIAnzfo4QA7hZM65J1p/5sIUTZhk8gpP+Vqzk61VfuFPIIJLBeNXaE4JUNbrLASVhAPjgmkqWPCATGkxyocIgG3N+lhAC+xunqxuAzWwhRtuETCPlC09W1SRiP3Gmsd58VK/TXxkth9HrV6ahl+U3WvE5AgP7EOOPIZIzxXVydIwjw/U5k+wy83ZP1/ItXKrBQtuETCHcIiKuLw3jk7n08OFE7owLrFZHAetVFUyFLGs3dISBA0fH3iQHGo3aZGADAq6gMvvFXFLEEQLmy4gmEnUcExNO1yajA8iZqDU7UJoH1qrEjBK+mWq0OElihcYNTsoGCcHyPIGAsrLpIEOD8JiUEcDZG17tbCEleYRSGK7B2CYinZz+hAsvf+7i7k8vMSGC9IkawV3T58uWHQWoPwhcxQwUG67UTtnFjTJpXiQG8vxEJAXypdrcQsn0QozDcA4sm7p4EKrB8zQ5ik6LuYUSVSoUE1isigfWqN5xZMGl78HOlRlCA/uTllB5YGNO7uL5OEOB8vsA33nC2iK31E1hM/zGC+2voFEIqsHxdG8YjV/ODuNr/eLqwsPCIiLwaRrDXMygzsUqDaAB9bU6dwZgmY40NggDnNykhgKcVU12hckUSFVgYjaEthB2+0HQ1HKVUYLlSbfanCVvGt12vjATW680C8gRWbZ5wAP0Bsn1AEDAeDU6BhfepAiGAo/G5vjG4KUlgYRSyUNxCSALL1fOfEgNX04PeSdpWKIrByyOB9Vp3XchvNk7CAvIBMjkiCBjPa3juNkEAgJcdn6v5tusKCSyMwKACKzuRsmMC4uXZD1LhgEh4mMPWF/of6X/1GkhgvdYburCFsLZEPID+IJkkUjglEBi9+DIjGJzPUAkBHI3Pte62azPjFEKUf3+FoNCrwKL/lbt1K7xND2rd7dxBdp9ovDpGsNe56aywhbC+QkCA/gQm4+QZjHEAiysEAY7nCsQAjvROIKxUqL5C+Yb6X7F90Ne1YfugP4P8QUYF1uvM/wnBa70K8putsUY4gJ6QSEbjTowLp8ACwMuNz/X+CYQk/jGCldHQCYTMA109+ySw/Gn2tnQXimLw8khgvZ78ZmvdIBpAf5DMJLW3CQTGwipNggDHNyghgKPxudrdQkj/K4xClhUauPNFpq9nnxMI/U0PGoP8ARVYr4EE1usELYryBFbzDgEBio6+SwwwnglA7xQXAMAL1Lrf+MdsIcQIDG0h7NBKwpNQSC7CiVbvIKI0ogLrNZDAeg3H1WohgXWTgADFgfL4HkHAmBZkC8QAAF44228pxIuSqMDCaAxvISSB5WpeTgWWv2syqMDqUIH1OkMaIXh11y9deiCp041gTRbzYgAGL+VTthBiTOqcAgu/aOION+Nyr4E7JxBiVLJQbOLOKYSurk1KBZaruUFksrjRfydTgfUaGMVea1JqQdJglW5xlaAA/YnyCRMXjOldXL9KEOD3XUgI4OVebNyVJFWrNHDHaNDE3TEqsHzNXSuDvMH+6urqARF5dSSwXt9WfiPWiQbQ135CDDCeSUBjnSDA7/1JCODEIIFV4QtXjMZQE3cSWL6uDacQ+pob5Cdos33wNZHAev3pQF7yV6ORMDB4MjqHBAHj0bhODOB4lkoKC07G5fp7JEkVKrAwIoMKrJBJySMC4uriEAJXBgcQGQms10QC6/UnpoMEVlS9TDyA/kS5c0IQMB4cogHP0wQ2EcLLuNx8o7tuqpDAwmj0E1iWPpZCQkC8PPuZFBiKXIlqvbyBBfpfvW4MCcHrvqnzLYShfoV4AP3nIQlSypZujEHzFjGAXxRgwcV9WFeobqhSqcioCsQolkSF/ldKOYHQ1Zyc6it/ar28QcYWwtdFAut15wOFCiyrLxMQoDBYcoQyxjOC1WQRCzJ4nSgQAjgYk1vvlyymgTtGZqiBe5uDfFw9//S/8qex0v9EBdbrTv8JwWu/rgdZU2teIxxAf7DMJJ3eJxAYD7bEAMCzZ6sLPyVJqtdqBAOjuceGTiDkC0xX14YElj/11e6zYvTAel0ksF5TsQIrNDYICFB0/KfEAGMRL71PFlPqAgD5JDVSNv9nldz5B0qv/m1VKrGqVU4gxGgUTyAUCSxfUuZH7gzyBhkVWK+Jr65fU8dsK+53xaORMDDs+PvEAGMR/cg/7n4T8+jzCvd/VdnO20oPH4j+2bjQ/AFrBlyA0Lir7PLPKrvyCYVad5FUr9U0N89p2RidLBQrsPYIiKdrkwaxn92Z1q3ePIEKrNdFAut1Jwmn1S1V290FVOsuAQGKz8cJXypgzBY/Ilv8iOL3SXH6RLr/Kwpbv6300beUnbaJD8b7DiQEGAtTaL5X2cLPKlv8WYXqtf7CSI16Xc1GQ5VKTJgwUkNN3Elg+RqLMpJX7t7ac3f672kSWK+JBNZrunbt0t7O7l5HUjXELVnESQ/AYMA82eP7Hlyc+LJ04z+V3fhPu4Pc4bcV7v1zhZ3PKt2/p5DyssaIJ6i8ADGq8dVqCnMfUnb5J5Rd/vNSdTWf1FcqajbqqtfrnDiIsRnugUUCy9X7gh5YvkQmxZckKSwtLfFt/2sigfXak1ML2zu7O5I2JMniikKWEBhAUjh9SAILfsy9IXvz/yh7U4Pthtk7/6Oy3c8rO3pCuQwA32NqvKjs8scVLv2Esksfl6LW4D+L41j1ek2NekNxTGtbjN9QD6wOpxC6enfwfZ0rUdytiA3SQzNje8BrIoF1PlvqJ7CqDalzQEQASWrzLMCxxY8oWvxIN5mVPpHu/2p3u+Hjbyo7OSU+OD8jK4pzLjwbd5Vd+klll39CofkByfLkVBxFqtVrqtfqqlaZyuNicQqh4/cIFVi+VOqSpEjiuPbzhJEQnOu1sDVojFdpSWLRDkhS6JwQBEyG+LJ045dkN35JFUl29C1lm7+usPN7Sh99VyElEYFX192+xb2DVxg3h7YG/rRUXRv6z6MoUp2kFRzqJ7AstKV0n4B4eq+QwPI1N6gOqmfpf3UOjIDnm21sDfZJ1S9J2iYmgKSQdrp1y8Z2BkzYvdt6j+yNvyd74+8pyhJp97eUbf5rZQ+/rHD0RIGcBF5qlkoI8BLvm+LWwPk/K8XDpwXGcax6raZ6vaZKhSk7HN7DISj0B0b6XzmbixMDd1OD2iVJUtbdxYXXxGh4npvQtNVfy0TVRfGeALqyRLL0sULlCsHA5Ioq0urPKVr9ue52w85Dhfu/Iu38ttJH31F22iFGeNb8ADjjxoiVNX9IYf7jCpf+rLLm+971RU+/p1W9RtIKEzDfK24f7LB90JOQMhC5GwLqi/1PbCE8B0bG892GW4MtAo0VwgEMRk1Jp/ckEliYJtUrslv/mXTrP+udbvgtha1fV7b5O8r277PdEIXpASFAbziMFxXmf1TZ/EcVLv+kQuXqu18t1Yrqtbrq9ZqiiMplTI5iAosKLGfXJg0MRt7UlvtXhwqscyCBdb5Xw6AHljVWCQdQdPgn0tz7iQOm11x3u2H8xt9TzHZDFBhN3Gf44scKjTcLDdjf+65FpJmpVquqVutWWhkle5jUlVDhBELjBEJnF4f3irvhobnWHwRIYJ0DCaxzSM02o/57u7FBQICCcPw9goDZ8a7tho+krV/jdMNZff+xbpit6125quzSx3q9rD4mxZfe9c/Ecaxqtap6rapqtUrSClNhuALrIQHxdG2owPKnca37V2ML4XmQwDrXgiXaUto7eaN1i3gARce8mzHDqotDpxvq0ecV7v+qsr3PKzvYVsgI0TTjFMJpv8Cxsub7FS7/ZHdr4BlVVlJ3a2CtVlOtWqWfFaZSVhjMLKECyxN6YDnUvNm9Nh3jFMJzYDQ9z4vh9HRLlWr389wbBAQoOt0hBkDf4kdkix9RLCnO2tLuv2O74TRj3TB9c77ahsL8R5XNf1TZpY9LUetd/0wURYOkFVsDMQuGK7Bo4u7qnZVRgeVO627vQ5sthOdAAusc1tfX93Z29xJJFcWXu+8IFiFAd1Jz+lC0ogXOENWe2m74QNr6DWX3/43Sh99WSDjTdtKRt5iG57ShrPWBbtLq0k8qNO6e+Y/Fcax6raZaraZqlWk1ZmyuRxN3v9eGCixnY4pJ1SVJStbW1ihXPAdG2nNNUC3b3tndkXRNkqJKRVknITCApNDeJwjAy6guSTd+SdGNX+omtB79gcL9f9XbbrjX+xYVkzVB4JpN4EXrNV//mML8/0ph7kMKVj1r7jfoZVWrcWogZttQE3cSWL7wXZivESYfK7bNjEYS50AC6/y345YUuh3Z4ppEAgvoSo6IAfA6Fn9MtvhjbDec5JkBX3xPhFBZUpj7SG9b4I9L1ZUz/zkasANnyyuwgtQhgeXq2pDA8jUvqNb7H+l/dU4ksM59N4at/rbBqNZSdsKiHZCk0GkTBOC8nt5ueLot3f9lZVufVvr4ewoJX+L5nBsQAp/PU0PZ3EeUzfeqrJ6xLVDSUC+rOI6JHXCGQQIr3ZeFDgFxMwkXbW28TQsqjf4nEljnRALr3G9ubQ0mqtV5SWxpBSQpSzJZaCtYjWAAZamvSnf+S0V3/svedsPi6YY7bDcEhlYMkULjB7snBc5/VGHuw2duC5S6DdhrvW2BNaqsgBfP8wr9r4zqK1/Xhuorf8NR9VLvQ9gmGudDAuu8N6PZVuinuGuLBAToC5KOvye13kMsgFEpnG4YpafS1v+ssP1vlD34irKTY+JzUXODiFNdLmzoqVxVmPtwN2l1+ScVKlefNX9TtVJRtVZVrVpVpcKUGHgVnEDo+D1IAsuffp4g032CcT6M1ud/fW/19wpY/SrhAIoOv00CCxgTi+vSxl+Xbfx1RZLs5LvK7v2Kws7vKX38fU43HOe1oIn7+BRPC5z/qELzh575j9LLCihxBUQDd7cCJxD6G6oGeQLbIhrnQwLr/PJ9rI1VogEUB9Dj7xEE4KKev8Yt2Rt/T/bG33vXdsP0YEdiu+EIZ6qEYGQs7p4W2NsWmLU+LEXP3hZYrVZUq3JiIFC24QosEliuxv8siGaMzq5Jc7V/ReiBdU4ksM778jbb6n/Ras3rBAQovqyP7zF8Al4UthtW0iNl9/+ltP3vlD76hrKTU+JTIgp7Sh5LahsK8x9TduljyuZ+VIovP3tiW6moVquqXquxLRAY5Rqo2AOLLYS+3plUYPnTWO/NDzISWOfEyH7eF0QSbVnce4E3bxIQoOiEdzTgcuyKW7Ibf1e68XdVkWTH31N2/1+w3bAkxqF157w/FxXmf1TZ/I91m6/Xnv0FYX9bYLfKim2BwLhkoZjAogLL1bVJqcByNy/I8wQsjs6JBNa5tbf6YQyN24QDKDrlGzlgIhIGzZtPbTf8A4V7/0rZg88rPdhju+Erz1QJwSt5uo9V4wclO3u7n5nlfaxqNcVsCwQuBFsIPV8cBiF/86xbMklxHJPAOicSWOe0tra2u7O7l0iqWGO1u28gMNEHJClr74tCBGACLf6YbPHHFEuKs460+2+Vbf5rZQ+/rHD4hPP1XsDIqbwgQMN9rMLchxWs+uzJaqXbx6p/YiAAB3O8YhP3DgksV9eGCixfQ55J1rgmSSdLS0uPicj5kMA69w1p2fbO7q6k9e6czBQSpvaAJKl9SAyASRdVpdWfU7T6c93qrOSxtPmvFLZ+W+njb9I/68yYEYKndftYdSussvmPSfGlZ/6zbAsE/BuqwCKB5et9Sw8sZ3OCqDcxCPcJxvmRwCrnNbEl2bokRZW60uSYkACSsuSUCixg6mYOC9KNX5Ld+KXuJOLo2wqbv6aw9WmlT+4ppNlsx8f43luSQuWqwtyHuwmrSz8uVVeeHTKzoQqrOGbkANzP8foJrJDIsicExNXFIQSupgW9ymGTbRONEqahhKCMWZptDWarlaYkElhAd04TFJJjWaVJMIBp1Xoj758VMmnvd5Vt/oayB3+kcPhg5nbVz2pLprzx+kcVWh9QaLzx/Ako2wKByX3eQ1Dov9yTB1IgY+Lm2qR0s/GmsA6iAqsEJLDKuClNW4P3RHVeEo2rgYHjb0mX/gxxAGZiQIyk5Z9UtPyTve2Ghwrb/1ra+i2lD7+m7ORo+mMwKwmsV2i8LrEtEJgmxe2DlrDu8SRwiLC/qVFtsGWeBu4lIIFVzm25pV5LW6svEA6g+HQckMACZneWMSfb+EVp4xdVkRQOvyvd/2fKdj6jbP8dhWT6ZtpTm5eJqgrNH1Y2/2PdhFXz/ZI9exoZRZGq1UovYVVTxGmBwNQYauBOAssViuEcqnYTWJnCFsEoYWpJCEp4iSvbst4eQqsvERCgOJAef49+MAC6Y+TcLekH/g+Kf0Dd/nj7X1W49yvK9v69sif3FLIpmHnHU7J3o3BSYNb6oMLcR6R47tn/uJmqlcpgS2ClwhQTmNq1T/FdnewSEE/zbiqw/Klf7X+iAqsEzC5KmeTZ5uBM8cYa8QCKjt4hBgDOdumHZO/9PymWFIdUevg5Zfd/Q9ne55Ud7k5kI4+JLTTqJ6xaH1SY++ALTwqU6GMFzKqhLYQdEliecAKhw+G1sZLnDHBuJLBKuSttazDJblwjHkBxID3ZoQILwEuMpbG09DFFSx/rtpHKTqXdt5Rt/7teQ/idichnWcUkTcK/aKRQv63Q+mC3ymr+o1J8+bn/FfpYAZCkrLhPjS2Evq4NWwj9Dbf1je6aiARWKUhglSGxLUW9HljN68QDKAinDwkCgFcX1aXVn1G0+jOKJIXOvsLW/6Kw9VvKHn1V4dRnQ3iL/CavQm1j0HQ9m/uoVHl+woo+VgDOMlyBRQLL18UJEl8d+9LsJbDaEQmsEpDAKkVnq9fNQ2reIRxAccHU3icIAM7NqpdkN35BuvEL3RH3dFdh639RtvM7yh58VaFz4uLfM3I0syomrML8jyrEi8+PMX2sALyEYhN3JXsExNO1SUheuZu/zN1VkBTC8TbROD9mJiVYXV3d3dndSyXFam7IbCLbdgCjWUA5WVQCmDL1Zdmt/1jxrf9YsaRw+D2Fzd9Q2P60sid/opBeTCdbu8CZ1SBh1fqQsvkflaqrL54I0scKwCsaqsCiibuveTdN3P1dk/o1SXq8sbFxRDTOjwRWGZNVs3R7Z3dX0poUSXEkJWxABroDaaKQJbKI1w2AEY7Fczdl7/nPpff854pDqvDoS8o2/2fpweeU7t8bS2MQszFWYFmkULurbP7DCq0PKcz/iELl6gv/a/SxAnBewwksthC6mnezBPU1N4kiKapJnEBYGlaU5b0utiRbkySLawoJVSdA99GQ7HR7sP8bAEY/Y4xlVz6k+MqHJClPaG39O2nvbaX7fzqShNZIq6+eOiUwzP2YQmXhhf81+lgBKNsggZUeShlrHkdTbhJY3qYj1cHEgARWSUhglfbGsK1+vzyrNqRTXubA4PE4+KaMBBaAC5tBnpHQevJNZVu/pbD3WYUn31FIO+f+v+l+yVqSqKWs9f5uddXcB5XNfVCy+ot/VfpYARghqq8cY/ugP5VmfzVEAquskBKCkubGpq1+2yurzkl6RFCAvqM/kfTniAMAJ4N2LFt4r+KF90r6LxSyRHr8ZWU7n1bY/T1lT/5UypJX/p+Nz5HACpWrCnMfVjb3gW7SqvGDkr1ctRR9rACMSzGBRQN3Z9eGBJY7Ua3VTxaQwCoJCayyXhiyLVMvhVVbkPQOQQH6C7PD73KgLwC3LKpIVz6o+MoHpR/8LxSyjvT4ywo7bynb+d1uQuslOuNWmi97gospNO4qm/uQ1PqgstaHFGrXXvrflz5WAC5szVM4gdBIYHlbkMKb6uX+py2CUQ4SWOW9MbbUX6LXlwgHUHTCOxvA5LCoKl35kOzKhxT9YL9C66vKHv6htPt7yh5/TaEzfJhQpSlZfPb/XqhcVWj+kELzfcqa75VaH3ip/lV99LEC4GbFM1SBxQmErq4NFVj+1Hp5gYwKrLKQwCpttmub/QIsq68QD6C4eDvhGzoAEzzERxXpyp9RfOXPSG/8kmJJ4eiewpOvKTz+Y+nw26qsf0iZPVZIHkq1VYXadYXqdYXGm1Ll8itOKehjBcCnrNAl3DoPCYin+XZKNa67+UOzfzpwyrf5JWFGVNrdaVsK3QyWNdaJB1AcUNuPCQKA6Rr2Wxuy1oa0/ue7izqdb/cGfawATILhJu58Qelqvp0GiaYdvtSv9VIFVGCVhQRWWZJkS1Fv70DzBvEAigNq55AgAEABfawATCKauDueb1OB5Y7leQESWCUhgVXWzWk2KAu01i0CAhQH1KSjkHW6fWUAYAbRxwrANBhq4t4hgeVqvk0PLH/XpHlbJmXLy8s7RKMcJLBKsrKysrOzu5dKikPjJgEBht7eQXa6JzXZXgtgNtDHCsA0ogLL87UhBu40b0nSrpl1CEY5mE2VN1FNt3d29yStKqrJ4kgh5S0C9IXjTRkJLADTPKmijxWAKTdIYIVUlj4iIJ7m2lRg+coPRCaLG5IC2wdLRP16qXep8m2EfNMKDDv6DjEAMLXm5lq6srigubkWySsAUymEoNA/tCp9RMbE07XJJAXi4Eo/HxBo4F4mElglspAnsFRpEBCgOLAe/ilBAAAAmFBD2wc7tPRxNc8ml+hOVKlLkqxQ5IIS4koISnypK785o9ocAQGKTu4RAwAAgEld6xQauKuzS0Ac4QRCh6r9fAAVWGUigVXuqyPPrlYvEw6g+HQc800dAADApMpCXoFlCQksV/PsjP2D3litnw/IqMAqEQmsUu9Sy2/O2hXiARQH1tMHBAEAAGBCZYUDqowKLF/z7IwKLHepgfogH0AFVolIYJVrcHNac5loAMWB9XSfIAAAAEyoYg8soweWr3l2QgWWu2tSvypJSo0thGUigVWmtFiBdY14AMWXeHqqkHUIBAAAwAQaauLOFkJn14YKLG+svtpdA5HAKhUJrDJvUksHCSxrbRAQoCgE2ekecQAAAJhAVGB5vjhUYLnTuCFJSqtVElglIoFVIiv0wArN2wQEeEo4oYchAADAJBqqwCKB5evaJFRgucsNtG5KUuf6pUs0Ai4RCawSLS8v70jqvtmbdwgI8JRwfJ8gAAAATKC0n8AKiSx7QkA8zbFTYuDO3B1J2jIzyuNKRAKrRGaWSNqTJIsbsphMODDk8DvEAAAAYMKEEBRCdx1unR0pZATF0/XhcvgSSYovS5xAOJLQotS3h/I9UnGFeABFR98nBgAAABNmuP8VDdxdXRuqr9yJ8jwACayyY0sIymWWJ7CiSp2AAMUB9ogthAAAABM3hys2CU9JYLlCAsufSq33IZDAKhkJrLJf7ipUYFVbBAQoOqXhJwAAwMStcajAcnxtiIE3UT8PYEYCq+zYEoKyhUECy6qXCQdQHGBPHxMEAACASZvDFbMkCQksV6jA8qd2qf+JI9hLRgKrZGaWJ7AaiwQEGBpgE6lNEgsAAGCSDFdgUVHv6tqQwPKXE6j18gAZFVhlI4FVvsFNGuorRAN4SjjmPQ4AADBJhiqw2ELoa27NFkJ/6su9DySwykYCq/S3e6ECq75GPICnB9njewQBAABggqRUYPmdW1OB5U99tfchYQthyUhglf96z2/SxnXCATw9yB5zEiEAAMAkGdpCSA8sX3Pr1AiCM9bc6P6VJu6lI4FV9s1a7IHVuklAgKcdfpcYAAAATJBBAis7kdIDAuIIFVgOdfMAhysrK/sEo1wksEq2vLy8Lan7hp+7Q0CApwfZo+8RBAAAgEmZu4WgEIIkyRK2D3pDE3eHmnekQm9slIcEVsnMLJHCA0lSfFmKKOkEhrCFEAAAYGLQwN2x0PsDTwkBqbYsKZDAGgESWKO4Z5VvI4zimIAAxUnQyQOCAAAAMClzt6EG7iSwXF0bqq/85QLiXoqF/lcjQQJrFC8SKW/kXqkREKAobUvtx8QBAABgEtY2nEDoVsjY7eON9df/mTiBcARIYI3mts0rsKotwgE8Pdge84UEAADAJOAEQsdz6pT9g+4yAdVm96+Fw91QHhJYo7hpleU3a+0SAQGeHmyP7xEEAACACZBmhSQJFVi+5tQpFVjucgHV+d6njG/sR4AE1kju2jzbarVF4gE8PdhSgQUAADARqMByPKemAsuffP3PgmcESGCN5C1fuFnry8QDeNoR73MAAICJWNoMnUJIBZYnVGD5Y42l7l9p4j4SJLBGE9Z8C2F9jXAATw+2R98nCAAAABNguAJrj4B4ujacQuhPfbWbEYgiElgjQAJrBMzSfAth8xoBAZ4SjklgAQAATIJBAit9ImUnBMTVxSEE7jSuSVLY29ujifsIkMAagaETB1o3CQjwlHC8TRAAAAC8z9lCUAjdPkvWof+VNxkJLH+5gOYNSXr05ptvnhKN8pHAGoGrV69uS+q+6Zt3CAjwtPRUaj8mDgAAAI4NbR8kgeVPQgi8Cd31P9sHR4QE1giYWUdBDyRJtWUporke8K6XOycRAgAAuJYWS3w4gdDXXDrrV0zATx5g0EKIhc6IkMAa1QvFlPfBiggz8K5n5PgeQQAAAHAsS4sN3DmB0NVcmgbu/sSRpEhBnEA4KmRWRsRUSGBVagQEeHrQpQILAADAtYwKLL9zaRJY/nIAcX/dn7HQGRESWKO7ffMEVrVJOICnHfFeBwAA8CylB5ZbWUqbGncZgGqj+9fioW4oFQmskd29oZDAukQ8gKeE4/sEAQAAwLGhCiwSWM4uDh2w3KUAqnP9j3xTPyIksEYnz7rWF4kG8BR6YAEAAPhWTGBFHXpgubo2VGD5U1vornNSemCNCgmskb1R8pvW6leIB/AUKrAAAACcL2n6CayQSekDAuLq4lCB5U59qfchIYE1IiSwRiYtVGCtEg7gacmx1H5MHAAAABwKIQwSWJY+krIOQXGECix/LF/3k8AaERJYo7p5i43bmhsEBDhrYsRJhAAAAC5xAqHzeXRKBZa7HEBzTZLS1dVVHpgRIYE1qsBGUd7EvXGTgABnDbz0wQIAAHAp4wRC3/NoKrD8aVyXpB0zSwnGaJDAGpGlpaVtSUGSwtxtAgKcNfAefp8gAAAAODR8AiEN3F3NodVtSwZfrHVbEg3cR4kE1qhuXrN2kB5KktXXZSTIgXcPviSwAAAAXEqpwHJ8cQiBy7VN46akjATWCJHAGiGTtgZhjgg18C5HJLAAAAA8GtpCmFCB5erakMDyt/aPIymqSUYF1iiRVRmtvA9WtUo0gKcEElgAAAAuDW8hpALLFRJY7lil0ntwOIFwlEhgjXZ5niewKk3CATz9hJzsSukJgQAAAHAmS4tbCKnA8nVt6E/jTqXRfVbMtgjG6JDAGqXCzWu1S8QDeJdAFRYAAIBDxR5YSqjAcjWDTgNBcCaqzfU+ZSSwRhlnQjBCWXEL4WXiAZw1ANPIHQAAwN9Spp/ACqksfURAPM2fqcDypzooWGEL4QiRwBqpvIFbqC8RDuAsh+8QAwAAAEeGGrh3tqWQERRHuBwO1brrfaOJ+0iRwBohs7x80BorBAQ4awA++h5BAAAAcGS4gfs2AfF2fdhC6G/t31yWJFWrVbYQjhAJrNHKE1j1DaIBnIEeWAAAAL6khQbuUec+AfE2f2YLoT+1a5J0evny5YcEY3RIYI0yuFE0SGCF1nUCApw1AB+xhRAAAMCTNEvzHzoUlLjDFkJ3rLUhkzbNjPK4ESKBNUIPHjzYlhQkKWrdJiDAGcLxtpSeEAgAAAAnskIFlrVp6eNq7pxJgRSJv+vSuCnRwH3kSGCN0Jtvvnkq6ZEkhfoNAgKc/bpXOPhTwgAAAOBEOtQDiwosVzPnlBh4FLXuKCu0EMKI4kwIRq57E0cVWcxeZeDMgfjgTwgCAACAE1lhC6GRwPJ1bRLWlN5YJIW4JYkTCEeNBNbo5Y3cK1WiAZyBBBYAAIAfKVsI/crYP+jOYJ2f8bCMGAms0S/N868sKk3CAZw1Dh98hyAAAAB4WL2EoNBvspQ8kbIjguJp3swWQneiSr37wYxyxVHHmhCMWOEmjqot4gGchQQWAACAC2la2D6YsB73d4HYQuhOvs6nAmvESGCNWlZo5FZbIB7AGcLRPSnrEAgAAIALNtTAne2D/paXbCF0x6qXew8PPbBGjQTW6G/nwU1s9SuEAzhLSBUOv0scAAAALlhW6H8VtanA8jdtpgLL3Yp/UKiSkMAaMRJYo76ZLcvf+vVVAgI8azBmGyEAAMCFS4tNlliP+5sz0wPLn8ZK99qEQMZ3xEhgjZgVG7k11wkI8KzBeJ8EFgAAwEXLhk4gZD3u7/oQA3dr/saqJO2vr68fEo3RIoE16gBH0VZ+Y98gIMAzhMdfJQgAAAAXrFiBZae0ePA1Ye79gS+N6xIN3MeCBNaI7e3tbfVfM6F5k4AAz5A9+gpBAAAAuGDpUAXW9wmIp/ky1VcuWeu2ir2vMToksEbszTffPJX0uHtj3yEgwLN0HknH94gDAADABUnTTCF0S3ws2ZOyI4LiSEho4O7yujRvSRZIYI0BCazx6G4jjGqyiJcO8CxUYQEAAFycNE3yH07+hIA4EzL2D7oTSaouSploGDemcGPkCo3cK1XCATxD9pgEFgAAwEVpdzr5QvHoCwTEGU4g9CeKK/2PJLDGoEIIxsDCVr/ZXlSpKW23iQlw1qD88I8JAgAAwDjnXyHo9LStk9NTdTodWbKnaO9/VLTzPxAcZ+iB5VCl1l3yGz2wxhJuQjCON4221N85WJ2TdEBMgLMmUI++JLUfS7UFggEAADCq5UkW1G63ddpuq9PpKGSJooPPqfLwXyl68kkpJATJ57oSzkTVZv/ikMAaAxJY4zEoJ4xql5VSXQicLaTK/uT/p+gH/3fEAgAAoERplqnTbuu03VG73ZYUFB1+SdHjf6Po8b/tNm2Ha1lKP2V3qpf6n0hgjQEJrDEws83Q30NYWyIgwPMmV9/6H6TNX1G89nHpxt9VmHs/QQEAAHgNSZqq3W6r3W6r0+lWVdnptxQ//DeKHv0bWYcToCcJPbAcqi1KkqIoIoE1BiSwxiLbUn8PYeMq4QCeNzAHKTk4VnLwb2Xf+S1V5luKVz6q7Pp/JM39iGQxQQIAADhzHhXU6STdpFWnrTTt7jmz9j3Fj3tJq5NvEahJvb4ksNyJ6lclKSwtLW0TjdEjgTUGZrYVegVY1lgjIMDLDtKZqfPkWJ0nvyN9+3dUaVYUXX2fbOOvKlz5WSlqEiQAADDTsixTu9PpVVp1FHoLD2vfU7T/KUWP/q2ioy9K/R0hmMx5cZACPbD8XZfGqkxhz8w4qW0MSGCNQRRFm1nv249Qv05AgNcaHaTkKJGOvih974uK639f0eJdxRufUFj9ywrxIjECAAAzIUkSnfYSVkmSDCZLdvQVxU8+qejJJ2Wn3yNQ04TklUvWuC4FTiAcFxJYY7C3t7e1sHglSDK1bhIQoATpaaZ061vqbP2/FFX/oSqXrypa/UmF9b+q0PwhDbbtAgAATLgQgtrtzqDSKst62YyQyo6/pOjRv1X85JNSh11M0ypj+6BPrRsyo4H7uJDAGoM333zzdHtn97GkxWjuLgEByh7QO0HtvV1p71dkX/8VxY26oqUflm18gq2GAABgIqVp2k1atdtqdzqDv2+ho+jwD2VPPq3o8W9xeuCMoP+VU827EicQjg0JrPHZlLQY4nlZZAoZe9CBUQ3uyeGpdPh56XufV1z/vypavK1o9acV1n9Bqq4QJAAA4G8OE4I6SaJOu6PTdltpWshYpPuKDj6j6PFvK9r/XSk7ImAzN8dld4E7Jqm+oky2RTDGgwTW+GxJ+iFJsjhWyBIiAoxBehqUbv2JtPVPZV/5p6rMXZIt/6js+i8qzP2IZBFBAlDCyoIQAHh1z2rALknWvi87+KyiJ59SdPhZKesQsFkeZtJuRxr4YXF/HZGRwBoTEljje+VsDl44lbrUIYEFjP0pTKTO433p8Selb39Scb2i6Mobiq79hworPy/F8wQJAACM1NkN2HsL4pNvK9p/q7s9kJMDUZzHZiSvvImqtd6DSxP3cSGBNS5mW/3xx6ot6fiQmAAXOguQ0pNE6f2vS/e/rqj6/1S8sC5b/UnZtb+pUOfABQAAUMKU41kN2CVZaMsOPqfoye8o2n9L6uwQMJx9H9EDy5+41V/rk8AaExJY45Pf1LVLkhicAE+yTlC2e1/a/WXZV39ZcbMhu/J+RTd+QWHxP5CiKkECAAAvJUmSQcKq8/TOi+SJosO3ZftvKX7yO1LKF9t4ibkqG3jcsVpv90ZCD6xxIYE1tjeObcm6JVhRfVEk0AG/QiYlhyfS4eek739OUc0UX96Qrf207PrfUagsEyQAAJDPHUJQp9PRafvdVVaSZJ17siefUvTkLUWHn+/2NQBecX4KZ2qL3aV+dnqfYIwHCawxMcu2Qr8HVo3FLzBJsnZQtvuOtPvfy77y3yuev6Jo5aOyG39TYe7PECAAAGZQkqbdCqve9sAhIZUdfUHR/luKnrwlO/1TAoZzYQuhwzV+Y0mSkvX19T2iMR4ksMZnsIXQmmtEA5jUyUMmJU8eSk9+U/rWbypqVBVdea/ijb+ssPoJyeoECZjFdwONloHpf85fVGWVPpI9+T1F+7+r6OAzUrpP0FDa/BMO1VcladvMuEJjQgJrTKIo2kqz3uS2fo2AAFMiO+kou/8lJfe/pKjyXytaWFV89aPS9b+l0HyTAAEAMMGeW2WlwqmBB28rOvz3lMlgJLitnGpsSMVe1xg5ElhjsrS0tLWzu5dJitS8TUCAKZQlQdnelpK9X5O+8WuKG3VFi++RbXxCtvpXFaxGkAAA8DyWhzBIVp1VZaXsRNHRF2VPPq34ySelzjZBw+jvSxJYLlnrliROIBwnEljjurnNOtvbuw9luqq5uwQEmHZBSo9PlR5/Wbr/ZUWV/0bRpWVFVz8iu/53FebeS4wAAHCgf2LgM6usOvdk+28revIp2cFnZaFD0DBeqREDj9P95m2ZBRJYY0QCa4zMtBmkq6ouStZd4AKYDVkSlD3ckR7+puxbv6moX5219hdl135RwaoECQCAcYzJWbeX1TOrrEIqO/5S98TAg7dlx18laLjYezYNkkhiOVvbyxprElsIx4oE1jhfPNKWSe+XpKgSK+tQCwrMovBUdZZ96b9VfGlZtvxR2fX/tdR6gyABAFCifpVVu91Wp5O8ezGaPpIdfE62/5biJ5+mATt8zR2pwPInjiVFUqYtgjE+JLDGK8/OVupS54iIAFBIgpKHO9LD35C+8RuKGjVFV35I8fpfUlj7eSmidxYAAK8iyzJ1Osmzq6xUaMD+5NOKjr/EUW/wO1fk1nQnqvZ3T9ADa5xIYI331bPVL/20SlMSCSwAZ0y6T9rK7v+Rkvt/pCj+vymaX5Gt/YS08bdkLXroAT6HeEIAXLQXVVkpO5Ed/IHi/U8r2v9dqbND0DAZQ0zCFkJ34lbvQ0oCa4xIYI2RmW31J7hWm5e0R1AAPFeWStnjHenxr0hf/xVFzbqipR9WvPqzCut/VaJ3FgBgVsfIfpVVu63TdlshvDuTbO17sgMasGPS73WSV+5U5/trfBJYY0QCa7zym7u2KOlPiQiAV5vAHJ8qe+fzSt75vCz6B93eWWs/IV3/27LmHQIEAJhqnU5H7XZH7U5bSXJGP9liA/b9T8tOvkPQMPECrZPdsfqCJCmOY3pgjREJrLGuPG1L1v1mKKovEw8A55vMZEFJsTqr2Dtr/a9JxiseADDh0+csU7vd7iWtOmdXWaWPZE9+T9H+W4oOPiOlBwQOUzTfE9vUHbL6kiQdLy0tPSYa48PqZqzSTSnqvogaq4QDQLmT/ELvLIv/gaK5FUUrH5Xd/k+kxi0CBIxygcHqAijnWQpBnSRRu91Rp91WkqZnrujt5OuKDt7uNmA/+iIrfEzvM0H1lU+NNUmB7YNjRgJrjMxsqz+0WmODgAAY4WQnKH2yrfTJr0vf+nVFjbrihR+QbXxCWvtrUsTrHwDgQ5qm3a2Bve2BZ1VZDTdgf0vq7BI4zMacjv5XPjU3JOkegRgvVjBjtLy8vL2zu5dJitS8QUAAjE12cqrs5I+lrT/uVmfNryla/ph08+/KWrcJEHDuFQYhAF76cRlUWbXVbreVptmZ/5ydfkvRk99XdPB7ssMvSCEheJi9OVzKCYQeWeOGRAP3sSOBNc6b3Czd3tndlbQammznAXBBC4c0KH28qfTxr0rf+lVFjabiKz8orf1F2TV6ZwEAypckidqdjjq9XlZnSg8UHb7dS1r9vtTZJnAAWwh9zqdbd2SZ7hOJ8WKVMm6mLQWtWuOazKTAN7YALlh2cqzs/hek+1+QffEfKL60Klv+qKIbf1uh9QMECHiZiSwhAIbHlixTp5P0tgW2lWXPqLI6+bai/bdkB28rOvpDKesQPKD4LKVUX/lb0kvWWJeCqMAaMxJYY38DaVOmD0iS4lhKSKkDcLQIT4OSR1vSo1+TvvlrslpdlSs/IFv7KenafyTFTYIEnP30EALMvCRJdNo7MTBJzt7uZ8lj2eEfKDp4W9H+70qdHQIHPHf9yBZCdyqxuoezsYVw7KEnBONlpkEj96hSVUoCC4DnJXn7VJ2tbu8sfekfKWpdUbT0QdmNvylb/BECBAweFkKA2fNSzdeLJwYevK3o8PP0sgJeQZaQvPImqlT7b0G2EI4ZCayxs83BLLfalE5OCAmACZlBBWUHD5QdfFL67icVVSuKFu7KVn9StvG3pNoiMQKAKdZvvt5pd3TabitNz/4i1tJHsoPPdZNWTz4tS/YIHvC6z11GDNyptLrvOpq4jz/0hGDM6z9lW9YvAa3OS3pIUABM5vuskyjb/Ya0+w3py/8fRa1LipZ/VHbt52VXPy7K3TFTCwxCgCmVpKna7bY67Y46SfKMKqtUdvKNQcIqOv4Sq26grPGFUwj9qc73P1GBNWYksMbNbKs/y7X6gqTvERMAUyE72lf23U9K3/2krBIpunxb0dpPyTb+plRfIkCY9iUGIcB0vMuzUNgW+Jzm68lD2eG/l+2/pfjJW1L6hOABZY8sQQoZySt3S/r6giRly8vLNPEbMxJYY7/bbXNw9GDtKvEAMJ0TriRT+uA7Sh98R/rqP1VUbyla+mHZtb8irfysLGL4wbTd9IQAkytJ8tMCO51n9KfqV1k9eUvR/qdlx1/jxgdGjXbJPpf03S9md8yMhn5jxgpi7DME21LUHeyjxirxADATC/vs5EjZvT+Q7v2BZP9nxZfWZKs/oejG35ZaN4kRAIxzTZxm6nTaz2++LsmSPdn+ZxXtv6Xo4DNSekDwgDHKSGD51FiTZGwfvAAksMa9jgvtTeuFPdTXCQiAWXwRKn2yKT35Z9I3/5miWl3R4ntk65+QbfxVKaoRI0zebU0I4Pq1mzdfb3c6SpKziwYstGWHX+ieFnjwNlVWwEU/uynbB11qXJOU0cD9ApDAGrO1tbXdnd29RFJFzesEBMDMy9qnyra/LG1/Wfrif6NoblnR1Y/INv6G7MqHCRAmZZlBCOBKmqbqdDo6bXfU6Tynyqp9b5CwivZ/T8qOCB7gZY5EA3eXrHlLMiqwLgIJrHHf7GbZ9s7ujqRr0dwdAgIAQzmAoOxgR9nBb0p/+puySkXRwhuKrv0F6dpfk1UvEyM4vXcJAS54oZuFoW2Bz2q+rnCq6PCPukmr/U/LTr5D8ACv2ELoc8ifuy3LtEUkxo8E1oWwLSlcC40bMpMCk14AOHuCkCRK976udO/r0pf+kax5SfHVD8k2fkF29WOSRQQJPu5VQoAL0G++3t8a+MyZZ7/K6smnZAdvy0Kb4AETIOMEQn8reZOsvi4FUYF1AUhgXcyraLNbChpJkUkp014AeJkUQTh+ouT7n5K+/ylZHCu6fEu2+udk139BxsEYuNDbk7Ecozdovt5LWD1rW6CyE0VHX5Q9+bSi/d+RtWnVAkzk0MIZd/7EcXcdL+PFegFIYF3Im8i2+luZrVJTSE+JCQC86qs0TZU+/I708DvS1/6/impNRVc/0E1mLf+4FFUJEsZ3PxICjOK+esnm61Kvymr/U4qevCU7/ENZ6BBAYNLfARkx8Caq9OeXKRVYF4AE1sUYZGut0pBOSWABwHll7WNl9z8r3f+sFEWK5jdkKx9XdP2vy+bfIEAY8SqDFBbK8bLbApU+6TVe/4yig9+TOrsED5i2oYUeWP5Um/1PJLAuAAmsC2BmW6H3Xa3V5qXDxwQFAMqUZcqefF968stKv/XLimot2dL7FK39Jdnaz0iVOWKEchcZhACv/brK1Okkvebr7ec0X08VHX1ZdvgZ2cFnFR19mdUtMM3jSqACy6XqYA7JFsILQALrYqYqW4PjUGsLkt4hJAAwyrdu+0ja/JzSzc/J7O/L5tcUr3xMuvY3ZAvvFUdUo5SVBvBSt8orbAtM9mT7n1W0/5aiw7el5AkBBGYF+WmXouqiJB2srq4eEI3xI4F1Acxssz/PtdoVAgIAY148hv1NZfu/Kn37V2VxVdHCHdnaz8qu/WVZY5kg4dXvK0KA561D07TbeL3dVidJXtx8/eBtRQdvy46/SvCAGcUJhE41rkpsH7wwJLAuQMdsK+5NXKy+QkAA4AKFtKP0wTekB9+QvvKPZfVLilc+LFv/eWn5z8poBo+XuY+owMLQwvMltwWK5usAnjGucAKhT401cQLhxSGBdQHSanUzPm0XHgAAgJsJ4+m+ku9/Svr+p2gGD+Dl3huvsi0wfSQ7+FyvAfvvSp0dAgjgXbI0iBYHDjWuScqowLogJLAuwPVLlx5sn+61TaqpdYOAAIDb2ePTzeCbsivvk61/Qrb6U7LqPDGCJCqwZlGapup0Or0qq86z74GQyo6/pOjJW71tgV8Tm04BvPglQwg8suYNyajAuigksC7ipjcL2zu7O5Kuq3mHgADAhMjax9LWv+/+0X8la11RfPUjsuu/ILvyYckiggRM6/P/qtsCe32sooPfl9JDAgjgFd85VF95FJp3ZJxAeGFIYF2cTUnX1bxJJABgMqcwCkcPlBz9lvS93+o1g39DWvsZRdd+TtZYJUSzdkeEIDMWHNMkSRKdtttqt5+/LVDZsezgc4r3Py07+IyszdoGwDnHFHpguWMmWfOalNHE/aKQwLq4239LClJUk8WmkFJKDgATPdFMO0offE168DWlX/lHiuot2dUfUXTjF2RLPypFNYIEODc4LbDTVqeTPH9b4Mk3ulsCD95WdPh5VpsAyp1XZPTAcieKJEWSoi2CcTFIYF0UC5v99gcWVxRSTpwBgGmSnR5J9z6t9N6nJYsUXeo1g1//y7KF9xKgaVxsUIE1ec9pCIPG6512W+nztgV27sn2+9sCPyul+wQQwOjGlJTxxN0Svlrtjfede0TjYpDAurAZk7b6CXWrNqQ2CSwAmN5Z6HAzeKvWFS2+T3b952Ur/4GseokYTcNlppH7REiSpJew6iaunj1XO1F09MVBLys7/irBAzCm8UQKGXHwxqqt/kf2iV8QElgXd/tvDU6gqc5J4ls8AJiZiWnnVOnOH0o7fyjJZK0lxcsfk63/nLT0I7KI4XlSFxzw5+VPC8xkJ18fbAu0wz+UBb5gBHARLy5C4FL39OlkdXV1l2BcDGbIF2eQtY2ql5WSxAWAGRUUjvaUfPd/kr77P0lRrGjhrmz95xSt/6ysuU6IJudKEgQP1yEEdZJE7XZb7XZbafqcbYHJQ9nhv+9uC9x/S+qwJgFw8TiB0CerL0jStpmRYrwgJLAu6ua3bCv09hCG+hUCAgDozVpTZQ+/KT38ptKv/ENF9XnZ0gdlaz+naPUnpEqLGDnFFsKL89LbAsOposM/KmwL/JpE4hGAt/GEMyF8ql2V2D54oUhgXRAz2+zPc62+TEAAAGfKTg+k+7/b/WORoss3ZCs/pWjtZ2QLPyhOKHK04CCBNTYvvS1QkrXvDRJW0f7vSdkRAQTge+xPOYHQo6ixKsnuE4mLQwLrogJfqWy1O93UujWvERAAwIuFTNnj70qP/zul3/zvZJWGosX3Sms/q2j9z8vqV4nRRV4eElijW8xlYZCweuFpgemj7mmB+59RdPgZtgUCmDxsUPM5ztc3ZMqowLpAJLAuyOLi4sPtnd0TSQ01rhMQAMCrT6SSE6W7X5B2v6D0y/93WWu52wx+7S9KSx+RRVWCNNYLQgKrTEmS6LTdVrvdUZI8ez+NhY50+EeKDj+raP+zspOvc3wXgIlGDyyfrHldMiqwLhIJrIuc50rbJt0KrZsEAwBwzkElKBzuKDn8delPf12KIkWXbsnW/4Lijf9Qam4Qo9FfApzDa28LPPh9KT0kgACmZzyhB5bP69K6K6MH1oUigXWBTNqSdEvNuwQDAFCuLFP2+E+kx/9E6df+iaJ6S3blA4qufUJa/nFZ9yholDmxJYP1irdopk4n6SWs2sqylz0t8PelzhYBBDC940lGDyx3a3frtv4JqZHAukAksC7WpiRZ3JRFVLsDAEaYLDg9kjY/o3TzM92J2NyKotUfV7Tx12WXf1CyiCCdd8FBAuuF8ekmrNrqtDtK0uc0eclOFB19kdMCAczm+zIleeVOFEmKJJHAukgksC7yxSTbtN5kzOKKQkatKABgTGPQ4Y7S7/xLpd/5l7JKTdHlu7L1vyBb/0uyxgoBeg0Z30S9S5IkvcbrHXWS5NlJvpDJTr7eTVYdvC07/MNubysAmLXxOVDY4JFV+31FO/TAukAksC7yIbCw1f8y0aoNqXNAUAAA458sJ22lD74mPfia9OV/qKg+r2j5R2XX/5ps6cckmsG/XBwzKoQG2wLb7e62wOf1sUr2ZPufVbT/lqLDt6XkCTcRAHACoc+1e6XZvTxpSgXWBSKBdbHyBg6VliQSWACAi5edHih757eld35bimJF89dkKx9XtP6XZQvvJUDPitsMfmUeQlAnSdRpd5uvP++0QGXHio6+VNgW+FVuGgB4+lXJCYQuWe2SJD3e2Ng4IhoXhwTWhb6dbFPW+2ayfknSNjEBADgbq1JlT74vPfllpd/6ZVmtpWjp/d2thit/Tla9RIwGi47ZqMAqbgtsd56zzS+kspNvDLYFRoef52gtAHgBXpNO1RckTiC8cCSwLlS61W0EJ0XVRapFAQD+J9btI6Wbb0ubb0v6r2StK4qvfkR27a/Irn5Usnh2YzOlTdzTNFWn0+mdFth57u9p7XuDCqvo4DNSSnU5ALyKjBMIfapdlST6X10wElgXK8/g0jAXADBxgsLRAyVHvyV977dkcUXRwl3Z2s/K1n9O1lybsUXHdGwhzEIYVFd1Om2l6bN/L0sfyQ4+lyes2nw5DQDnwgmELkWNVXEC4cUjgXWB4jjeSvvbDeprBAQAMNFCmih98A3pwTekr/xjRfWW7Mr7ZRs/r2j1p6SoNv0xCEFmNnH/zv0+Vp2ko07nOftXwqmiwz/K+1idfJ3jsgCgRBnbcnyOlfVrkjIqsC4YCawLdPXq1SfbO7vHkprWvEZAAADTNQk/PepuNdx8W7JI0fyabOXPKlr/edniD2kat0hkWaY49r+N8unG6y+1LfDJp2QHb8tCm5sbAEaEHlg+WeuGZLZFJC4WCayLf0VtSnbXWrcIBQBgioe7TNn+fWn/Xyj99r+QKnXFC290m8Ff+4Ssdnkqfk2vCaxX6WOlzpaig88q2v+s7OAPZOkj7l8AGNtwSQ8sl1q3FeiBdeFIYF34G8q2ZLobWneJBQBgdiSnSve+Iu19Rfrj/1bWWlC89CHZ+iek5R+XRZM5RUnTTNXqxf97ZFmmTqd/WmBb6fP6c6X7ig4/Lzt8u5u0Ov0u9ycAXNTykB5Y7phJalyXzEhgXTASWBf/MGwGSaosdBPtgZgAAGZuuq5w9EjJ0W9L3//twXbDaPXjim/+HYXWzYn5TdILal5S7GPV3xb47H/4VHb81byX1eHn2bMCAB5Gw0BbQZfiSFKk0KGJ+0UjgXXBMtmW9bJWUaWirMMEEgAw6zP47nbDbP+fK/nWP1dUqytafI9s9adlG39Dqsy7/Vd/3ol9ZUuSfoVVN2n17HimspNvdJuuH7wtO/wCfawAwOUgQgg8skq3tDrLKlRgXTASWBcu2xzscY5rEgksAACGR8r2qbLtL0vbX5a+9P9W1FpQtPwRRet/RVr+cXnqFZKlo1t9vEofq0Hj9YO3FR18Vkr3uZEAwPt4l7F90COrNCWpc+3apQdE42KRwLrwp8G2+tsGo1pL2ckRMQEA4HkT/KPHyr77Sem7n5TFkaL5dUXLPybd+DuyuYvtKZmWmMAqJqw6nY6y7MUJKzv6guKDP5A6O9woADBh2M3tdMleuyRJ22bGBs8LRgLr4uVHcVbnJe0SEQAAXnayn2ZKH99T+vhXpW/9qqxWV+XKD8jWfkp27RcV4tZY/32yEJSm6WudRNhtvJ4nrJ63HdGSB7LDz3e3Be5/VtZhVwMATLqMEwhdstqCxAmELpDAumipbSrqfaNavyLpT4gJAACvKbRP1dn6Y2nrj6Uv/SNFzUuKrvywous/L13982NZGHSS5KUSWP2TAvtJq+dWb2XHio6+NNgWaMdfEye/AMDUrQ2Jgce5RX1JJtHA3QESWBcu2ZK6k1yrLREOAADKkgVlh0+UHf6+9P3fV1SNFF26Jlv+qGzjF6XWD4zk//b0tK1Gvf7uf50sqNOrrup0Okqem7A6UXT0xUHT9ej4y+wtAYBpH7Zo4u5SVF+VFEhgOUAC64KFEDYHefbGKgEBAGBUC4NOpuzBO9KDd6Sv/4qielXxwm3Z2k9L135RqiyW8v/TbrfVbncURaYkSdRJEiWd5PkJq3edFPiHstDhogHALK0N+Z7C53VpbEhsIXSBBNYFW19fP9ze2T2QNG/N6wQEAIAxyU47yra/KW1/U/bH/0Tx3CXZlfcpuvZzCld+Sopev3/W4ydPXjAbThUdf0V2+AXZwecUHX1eyk64KAAwwwI9sFyy1nUFMxJYDpDA8mFL0ryaN4kEAAAXsmiQkv19af+z0nc/q6jyf1E8vyhber+itb+g7PLHpfjyOf4PChVWh19QdPQFKT0g8ACAwlBB8sql5l2JCiwXSGD5eFVtSvYeNe8QCgAAHMgSKXv0SHr0lvSdt1Spm6LLK4pWPiYt/bRC830KlSvP/h9IDxUdf1F28AVFh5+Xjr/MlkAAwLNXhKH7ZQp8MZNUX1cwoweWAySwXLytbEsmqb7SfUICpwoBAOBnnJaSkyCdbEvbv6Yo/leK61J8+Yrsyg9L8x9QqN+UnXxfdvJ12fHXZO13xCmBAICXHmpo4O5THElRRVkUUYHlAAksHwbZXItNIWHCCwCAV1lqyo6kztEjafN3FdXeUqUhxXXJ6r1vawEAeAUksHyyuCZJOn30aItoXDwSWB4eCrOt0PuWNqrUlSbHBAUAgAmRtU3tdm9Mj6S4HlS91E1oAQDwMkhgOV2rVxuS9PDu3buctOJARAhcTH3z/bTVJuEAAGBSFyCZlByb0lNiAQB4hfGDBJZLVrukQAN3N0hgOZCa5eWIlXkCAgAAAAAzJCOB5ZLVFqRCyx9cLBJYPuQ9sOoLRAMAAAAAZggVWE6vS31JogLLDRJYHh6KTjyowLLuAwIAAAAAmJU1YcIJIB5F9VVJRgWWl+tBCC7eycmj/IForBEQAAAAAJghWUYMPAqNaxrqWY0LRQLLgd6JBo8lSY1rBAQAAAAAZglbCH1qXlfEFkI3SGD5sSVJ1rxBJAAAAABgRmSpFAJx8Mhabyg1thB6QQLLz6OxKUmheYdQAAAAAMCMoIG7Y/V1Vc2owHKCBJYXFnoVWNdk9O8DAAAAgNlAAsvnEr0SSVFFlUqFCiwnSGD5sTm4JDGXBQAAAABmQUYCyyWLa5J0evny5YdEwwcyJW7eWt0eWN0HpUo8AAAAAGAGhIQYeGTVhkzaNDM6lDlBAsvLw2GWJ7CqTQICAAAAADOAHlhO1+jVeWmwUwoekMByI9vMH5Q5wgEAAAAAs7ASJIHlktUWJIkG7o6QwPLycBQqsNR9UAAAAAAAUy6knOLl8rrUlyQqsFwhgeWEmeUPRvdBAQAAAABMOSqwfIoaa5KMBJana0IIfFhaWtqSFCTJ6qsEBAAAAACmXMistwqEu2vTuCYpYwuhIySwnDCztqRHkmTNdQICAAAAAFOOBu6ONa9LbCF0hQSWL92Ho3GdSAAAAADAlGP7oF/R3J3hVj+4+GtCCFzZkiRr3SISAAAAADDtSGC5FWobMjO2EDpCAsuVbnY3NG4SCgAAAACYclRgOV2ZVyIpqoRer2o4QQLL1VMSug9HVJPFXBoAAAAAmGb0wHK6NI+rUtCDXq9qOEGWxJdBdtcqFaIBAAAAAFMsJMTAI6s2JYntg86QwPIkKzSIqzSIBwAAAABM8xKQCiyXrDovM04g9IYElq/HZPCARLU5wgEAAAAAU4wthE5X5rUFiQosd0hgeXpILM0bxFUvExAAAAAAmFIhSCEjDi6vTX1JxQIT+EACy5fBA2K1JaIBAAAAAFOK6iu/rLEytD6HDySwHFleXt6WMeopwwAANlxJREFU1M3BN68SEAAAAACYUiSw/LL6hqSMLYTOkMDy9JCYJVJ4IEmqXSMgAAAAADClaODuV2jdkKjAcocElrsnpbvP1lobxAIAAAAAphUJLLei1m2ZGRVY3q4LIfDFTFuSFJq3CQYAAAAATKmQGEHwem3q1xXHMRVYzpDAcibrlyk27xAMAAAAAJhSaUIMPLLYpKhycuXKlUdEwxcSWO6Ere5D0+g+OAAAAACA6Vv5ZcTAI6vUJAW2DzpEAsvd02Jbg89xhXgAAAAAwBTKqMDyuSSvNge9qeELCSx/Bg9KVKkTDQAAAACYMiGTRAWWS1adkyQqsBwigeVNWqjA6j44AAAAAIApQgN3x2oLUqGwBH6QwHInGTwoVrtMOAAAAABgymRJIAhe1ZdkxhZCj0hgOWOFHlhWXyAgAAAAADBlQkoM3K7JG6sSWwhdIoHlzMrKyo6kVJJCfYWAAAAAAMCUydhC6JY1rknKqMByiASWt4fFLJW0K0lWXyMgAAAAADBlsg4x8Co0b0hUYLlEAsvnI9PdRti4TigAAAAAYMpkHXpgeRW17tADy+u1IQQOhe7DEjVvEgsAAAAAmCJZIoWMLYRul+P169nVq1e3iYQ/FULgj5m2giTN3yUYAAAAADAFskRKDk3tA2Lhdi0emxRVds2MTZ4OkcDy+dhsSkEhviRFJmWUlwIAAADAxAlSciR1Dk3pKeFwvxKPa5IC2wedIoHlUrYldUtKozhWliWEBAAAAAAmQMik9FhKjqXkxCTqESaG1ZqSGQ3cnSKB5VBmtmX9l1ylJnVIYAEAAACAV3nSypQek7OaVFadkzJRgeUUCSyfBg9MVG0pOz4iIgAAAADgyFDS6kQKZK0mX21BkqjAcooElscXYRJtWZz1HqBLknYJCgAAAABc9Fot7W0NPKKn1TSy+pK6PanhEQksjy/FcLopVbsPUG2RgAAAAADABck6eZUVSaspV1+VxBZCr0hgObS+vr67s7vXkVRVfZmAAAAAAMAYZadSctKttOJMrdlhzXVJKVsInSKB5fGhMQvbO7s7kjZUXyMgAAAAADBKoVtdlRx2Tw4MGSGZydugeVORsYXQKxJYfm1J2rDWBpEAAAAAgJL1+1mlJ5wciK6odUdRFJHAcooElt/X6aZkUvMmoQAAAACAEtDPCs9dhdevH169evUJkfCJBJZXZpsKkpq3iQUAAAAAvI7Q7WWVHve2BqaEBM9YgscmRRWqrxwjgeVXt3FcbVmKTMooaAUAAACAFwlZL2F1LCWnJtHPCi/BKjVJgQbujpHA8irTlqz3IEWRQsZXBQAAAABw5vKpbd1KK7YG4jVZpdHdCQW3SGD5fXw2+20ErVJTSI4JCQAAAABI+amBx6bkWGwNxPlX4LV5qb8TCi6RwHIrvS9F3Qep2pROSGABAAAAmF0h6fWzOuk2YQ90WUGZagtSJiqwHCOB5dfgwbHqJUkPiAgAAACAmdLdGhiUHHc/AyNTX1J3JxS8IoHllJltDr5QqC9K+lOCAgAAAGCqhay7LTDt9bMKmSSRuMIY1uD1FUnGFkLHSGA5tbKysr+9s3soaS6qXSUgAAAAAKZS1pGSE1N6TAN2XBxrrktKqMByjASWb5uS3hMay0QCAAAAwHToNWBPT0yd425vK+DCb8vmLRlN3F0jgeX7Ebov2XvU3CAUAAAAACZWlkjpsSk5kbKT/nnrgB/R3N10eWVlh0j4RQLLM7NNBckaN4kFAAAAgMlRrLI6CgopfazgeekthdrGjpmlRMMvElieZdqUSWHuNrEAAAAA4Hv5kqjXfL3bhD0MyqxIXsG5KJKiCtsHnSOB5dumJFl9vZsRps4WAAAAgBf9KqvT7smBWYeQYDJF1ZqkQAN350hguWab3d3hUTcjnGaEBAAAAMCFyausuicH0swKU6HSksyowPJ+mQiBX2bZZuiV21q1qsCZsgAAAADGKAQp61dZHZkyTgzENKrOS70dUPCLBJZvgwywVZqSSGABAAAAGK2QSEm/yurUJDaCYMpZfbHbgxqukcDybfAAWe2SpEdEBAAAAEDpstNu0io5kbI2TdcxW6yxJIkthN6RwHJseXl5e2d3L5MUWW1B0vcICgAAAIBzG6qyopcVZl1jXd0e1PCMBJZjZpZs7+zuSloNtSsEBAAAAMBro8oKeMbau3FdUkICyzkSWO6FTclWrbFCKAAAAAC8/Eoik9JjKTmW0lNToJcVcLbWLWVZxhZC50hgeWd2X0EftPoGsQAAAADwXFnblJwEJcdUWQEvrXVnf319/ZBA+EYCy/0IpE2ZFFrXiQUAAACAISHrVlelR0HJSb/KisQV8NJMCrUVGk5PABJY/m1KUtS6QyQAAAAAPKPKiqQV8DqiSkWRdI9I+EcCyzkz2wwKCnUqsAAAmBic5gWgzFdKv5dV79RAqqyAEsU1hUACaxKQwHIv25RMiiqy2BRSZsQAAADA1K8C2jZIWKWnxAMYFavNSVRgTQQSWP4NjvK0uKqQtokIAAD+p8OiDAvAq8hSU3bS7WOVV1kBGPmIXZuXJE4gnAAksLw/TGaboT//rTWlNgksAAAAYBoM97KS2BYIXMCau74kyUhgTQASWM5FUXQ/S7tfv0SVljI9JigAAHgXqL4CcMarIVFhWyAnBgIu1FcUgrGFcAKQwHJuaWnp8fbO7pGklmoLorIRAIAJWKQSAgC9l0F62v2TnBRPDATgRmNdIUQksCYACazJGPm2JLtr9SuEAgCAiUAPLGBWZUmvwqrfy4pXAeB7xG5eD0fHD6kUmQAksCZBsE2Z7qq+SiwAAAAAV3P1XoXVcffUwJAQEmCiNG4c3L1794RA+EcCazJ0TyJsrhMJAAAmYkFLyQUwzbrN17uJq+yURx6YZNH8e75HFCYDCazJcF+SrHGDSAAAMAHM2EIITJOQdZuup0dByUm/+TqAiR+vY1NWmSeBNSFIYE3GJHgrKEit2wQDAICJWO0SAmDSZb3G68PN12nCDkyVuCpJNHCfECSwJmP43JRMat4iFAAATADyV8AEzrgHzdel5MR4kIEZEFXqEgmsiUECazJ0T0SIarLIFDJGUwAAfGOsBibhMU1Pew3Yj0wZzdeBmWO1+Xy9DfdIYE3CQ2W2OWgMWalK7TZBAQDA9+gtkliAP1kipb3TAmm+DkC1ywpUYE0MEliTMAU22+yPrlGlppQEFgAAvrEoBnw8iv3m6ydSciyFlJgAKKy1a0sKZlRgTQgSWBNgaWlpa2d3L0gyVeckHRAUAAA8L5rJYAEXJmt3K6zS024/KwB4psaqsigigTUhIkLgn5m1Je1IUlS7TEAAAPA/ehMCYExCJiXHptM96fAd6WhLaj8meQXgJUbr5rVwbXGRBNaEoAJrch6te1JYVW2JUAAAAGCmZadSctL9k7X7CWMSxwBeUWPjsFcwgglAAmtyvCPpw2osEwkAAADMlCzpVlSlJ1JyalJGTACcnzVvUX01QUhgTYggvWOSrLFOMAAA8D4hpgcWcO7Jb7eHlalzLIWEkAAYwaumdfvbRGFykMCaEJH0TpAU6tcIBgAA7mfEJo4iBF5N1un2skpPpeyEJwjAaFlsUlT7HpGYHCSwJmUeHPSOTFLrJsEAAMD7uE0IgBc/J5mUnlp3W+CxFFJiAmB8rFJTkO4RiclBAmtyvCNJ0dx7iAQAAP6X5oQAOEPWNiW9XlbpKfEAcHGs2pQkemBNEBJYkzLYZ/ZOFAeFuCWLTCFjYgwAgONpsUhiAb3m66dS2tsaGGi+DsDLSF27pIgKrIlCAmtCNJvxO6ft7ohvcayQ0ckSAAC3yF1hhu/99LT7JznpVlwBgEv1JYkE1kQhgTUhFhYWHmzv7B5LaqpSlzoksAAAcLyGB2bGYFsgzdcBTBCrr0oksCYKCazJck/Se6zako4PiQYAAG6xhMf0ylJT1pbSo6DkxNgWCGAi2dy1sLy8vE0kJgcJrMl6xN6RwntUuyRph3AAAOBVoAcWpul+fnpb4GBuSmwATK769QMzY2vTBCGBNVlzh3dMUlRfFKcMAwDgl7Gux4TLkm7j9eREyk6lQD4WwLSZu7VJECYLCawJEknvBEmqLRMMAABcY7WPyZKl3f5V6Uk3acW2QABTr/XebxCEyUICa7K8I0nWXCMSAAA4FthCCPc3KacFAphdVokU4ub3iMRkIYE1UZNhfV8mqX6NYAAA4Dw5AHiTJVJ60v2TnJpElRWAGRVVapIythBOGBJYEySO9eU0k9S8TTAAAPCMBBY83IaZlJ5aN2F1IgVaFQNAV7WlqLfDCZODBNYEWVpa+vrO7t6J5u42iAYAAH6Rv8JFydqm5CQoOWZbIAA8i9UuS9I9IjFZSGBN0kNmlmzv7H1V1cUPi9YaAAD4xRiNMRnaFnhivXuPxBUAPHdt3biqEAIVWBOGBNakPWgKXwzSh6NKrKyTEhAAADwigYUR3lvpqZQcm5LjoJCSrAKAV9ZYU7vRoIn7hCGBNWEyhS+aTKrUpc4RAQEAwKFAAgtlzv/apuSkm7jKTov3F8krAHgdUWMjuXH58h6RmCwksCaMheiLsiCrNCWRwAIAwOV4TQkWzqG4LTA9NQVOCwSAct+zzY1HRGHykMCatAmxZX8UZLLavCQSxgAAeEQFFl7pfsm61VXpcTdhlXFaIACMcFEt2cKPfo1ATJ6IEEyWlZWVewraU22RYAAA4FQIbO3C86WnUvuJ6XhLOnzHdLJr6hySvAKAUave+LhUW/kmkZg8VGBNItOXovryTxEIAAC8DtXAsJCo18fKlJ4Ehcy4WwBgzKorPyj7wH8tmWjgPoFIYE3mrPiPQmOVBBYAAE6xhRDF0wLTEz1VWUXSCgDGuoSOIlXe/Juy9/zvuz+HQAJrAv3/27u77yivK9/3v7meUiEJISRVlRACxYEOvbPJiNs46W7T2NgkhbF3wJ13n2Snr/dd3+3/4ozzV5yrtJPjSHIHTGEMic3O8Inl3elB9+k4dtsCqd6EXhDiRVVrngsJIiegKmFeVNL3M0au8kzZnlXPs9aatdZ8KGC14s3n/ju1D5IIAADWMXfJqFNsKvVbt5uvm+ItCpkAsB6k+oZkf/V/yTp2rRij/RKZacHPkhS04OQohN+FjiESAQDAOkbtauNbar6+tMOqdl3yOjkBgPUi6e5Xsv9/Sn2H/uz/izHFDqwWRAGrBYV6/V+9c8iZGwMAsH55lCwhDxvrQ5VqN0z1m760y2qRlADAemImJT27FL78P6Xev7nndW1t/gnZaj0UsFpQf3//fLlS+U+Z7WFvOgAAwMMTby33srphijdvHwvkN0QAWE9CW6Jkx98o7PtHeccTjS6fzGQyc2St9VDAalEm+5e2b/zTHl1+TbH8juLcZXktkhgAANYLfmNqzY8tLjVejzddtesmZ3oFAOtWsi2j8MR3Zbv/QQqpZofe/yBzrYkCVqtOrky/sy2Df6+9/6hk7z8qkaSZMfnksGLlPdWvXWHiDADA4xyrxT6dVhFvSrUbS/+Lt25/anx6ALAeWTqtJPsVhb3/Q+p+cu3x0m/IYmuigNWyMy37nexPKlQ9B2Q9B5T8Vympz0mTw/LSOdVnP1S8cZOcAQDwSMdqUrBuP5ra7bcFSrWbxmcFAOucpYKS3r9Q+OKPpdyx+/kTv5fr5zEV/u+Bvr5/JaMt+j0gBa2pUqnsjLL/06SjknINA2bG5BM/V5waU32e3VkAADxsHTtcSZo8rAcel4tVN5beGMjbAgFg/bNgSrYPKux+Rdr1qhTWPKiOmez1emI/p2i1Qb4TpKD1TU5NfSVxP26ufJQOm7T6nR1vSdWzihPDilcusjsLAICHoGOHlKT5xehxibdMteVdVnWmOgDQGoIp6exVGHhOtud/SG09a4m+YdKv3W00SfTzTCYzTkI3FgpYG0yxWNxqqdRBk06Y6+9davgKBlv4WLE4Iq9cUH3mU3mdyTYAAJ9XR05K2hlTH5WVxwLrN2m+DgAt4/MVrSomnXS3EbN4MpfLXSWhGxcFrA2uVCrtDSHk3Swv10uStq0++7sllU/JS6dUv/LvitcXSCIAAPehPSelKGA9NB5tRR8ryWvkBABaxdLxwAGFnUdlQz+RJ13NP/+li+YakcJoLtf7jpkx2G6W7w0p2DzGx8c70h0dhywqL1Ne0tONvgN+syJd+ifFynnFuUvyGj9nAgDQjI6cK2knDw9S/eYfd1hxLBAAWouFoKR3l2zgRdnuH0tJR7Oh1016Z/lo4M8ymcwlsrlJv0OkYPOamJ5+oq1WO+Zux2T6pqTtDYNmxuSTw4qV91S/RjN4AADupT0jpToZKD+Pzx4LXNp1BQBoHXfeHrjzqDT4w+YbsZv+01y/lPyfb9y4cWZoaOg62QSzAEiS3D2pVqtPLR019BOSHZQUVg2qz0mTw/LSOdVnP6QZPAAAK7T3uVJbycPaJiTLu6xuSrUbS43YAQCtxdJppXr3yQZflnZ+u+GycllN8t/IbMTcC7lc7rdkEn/23SIFuJuJiblsKrV4xE15k39L0q6GQbO/lV9+XXFqTPV5dmcBADa3dK8r3UUeGqnfWu5jdd0Ub5EPAGhFSWeXQvYp2dCr0vavNRtWMulNdxtJpezNvr6+WTKJ1VDAQlMmp6a+krgfN1c+SodNWn3vZ7wlVc8qTgwrXrnI7iwAwKaT3i6lu/k158+mCPWlQlV9wVW7wdsCAaAlCwmJKWzNKfQflJ74B9mWwWbC6pI+cPlokEay2ez7NGDHmr53pABrVSwWt1oqddCkE5JekeuLDb9oCx8rFkfklQuqz3wqr/OcAgBsbOluV3o7eeBYIABsDKEtUejZq7DzqHzn92XNvamkLNM5l0bTSTLc29s7QyZxv5hB4HMrlUp7Qwj5pf5ZeknStlUDYk2qnlEsnlKcvihfmJNTzwIAbDBt21xbejbnf3usSfXrtlSwuinGeQBoUaGjUyHzpMLu70l9h5oJYZcVHhoKWHig3D1VqUw/I8XjMuUlPd3oe+Y3y9Kl1xQr5xXnLslrnCUAALS+tq3Slr7NMWf3+u23BS4VrTgWCAAtWiAIpmT7DlnuWdnQf5e27GgmrCLT2y6NbkmlRnp6eqbJJB7K95MU4GEqlUo7zFKHzfyES8cl9TYMmhmTTw4rVt5TvHaFX20BAC2pbatrS98G/Y/jWCAAbBgrjwZq8IdSSDcKiZLG5CpIYTSX633XzPjpAg8dsw08urmue1KtVp9ys7y58i69ICm1atDijFQalZfOqT77Ic3gAQAtI+mQOrIb51eYeGtpd1X9JscCAaDV3TkaOPRDqfeZZlZzVZmdNfeCuw/39/cXySIeNQpYeGwuzc1l0jcWv+GmvMn/m6TdDYNm35dPDCtW31d9vioxeQYArFPJFqmjv3UHKq/pTsGqztsCAaC1F/4hKGzfodD/rGzoH6R0tlEIu6yw/r7HpADrRalU2muWOmHmx116TtKW1R+pt6TqWcWJYcUrF9mdBQBYV0Ja6tzRQgUsjgUCwMZa7KfTSvXukw2+LO14RQqpRuPAlILeMveCpNFcLjdBFrGuvtOkAOvRxMREZ5JO/51F5d10wqT9DYOufSif+Kli+T3Fq2V5ZHsWAOAxTrJS0tad63cscpd8Uapdl+o3TXV+BwKA1hZMydYehezXpd0/lG37SuOxQLporhEPKvRnMufMbJFEYt3OrUgBWkGpVNobQsi7WV6uY5K6Vw2INal6RrF4SnH6onxhjl4dAIBHO8kK0tZd62vwibXbbwtcKlpxLBAAWltoSxS6d8tyB2VDP5HaGr49ZF7S2yYfMbM3stnsZbKIlplbkQK0GndPVSrTz0jxuEx5SU83/C4vXpFffk1eOqv67CV5rU4iAQAPXdfQ4y1geVzeXXVDql13eZ2pHwC09greFDq3KfTuV9j9Xanv2cZjAbussFG+/qQAra5YLPaH0Pb8cjP4VyQNNAyaGZNPDitW3lO8doXdWQCAh2LrLpeFR/vPjMs9rOhjBQAbw33ssrom6azJR0II/5zJZC6RRWwEzGqwobh7Upqa+nri9pK7vyTTX0tKVg1anJFKo/LSOdVnP6QZPADggenc6Q175n5eK48F1m7a0nujAAAtvUoPnd1r2mUl+b/I7Zdm/stsNvuOmdVIJDbgrQFsXOVyucvMjkSF45K/ZNIXGgbNvi+fGFasvq/6fFVidxYA4D517JCS9IMdSLx+u4eVVLtOHysA2AhCW0ph+5Cs/znZ7lelVG+jkDu7rJIkOdnX1/cpWcRGRwELm8qdZvCyE5LyktpXDYi3pOpZxYlhxSsX2Z0FAFiT9owr1fk5/4gvFavqNzkWCAAbaSV+Z5fVwDGp/1gzw8HKXlbnzewWicQmu22AzWl8fLwj3dFxyKLyy83gv9bwhln4WLE4Iq9cUH3mU3md7VkAgHvb0uNq27b2uHjLVFveZRVvil6NALARFt+pRMn25V5Wu38spbOrB7imFPSWuRd4YyBAAQu4o1ic2ZMki0fdLC/Xi5K2r766qEnVM4rFU4rTF+ULcywwAACfke6S0r2NB4fbBat4a2mXFcfXAWBjCB2dCpknm91lFSWNyVVY3mX1Nr2sgD+igAXchbsn1Wr1qSidMNlxSQckrfoeKb9Zli69plg5rzh3SV6jKQkAbHZJu9SR+/NqVFyU6jfszrFAClYAsEEW2KlESc+QQv8hafD/kNKZRiEVmd4294K7D/f39xfJInCP+4sUAI1NTk7mkiT9gpvyJj8uabBh0JUL8okRxakxxYVZdmcBwGacaAVp6y5fKljdNNVvuuo3aLwOABvmOW+SdXQpyTwpG/yWlDnSKKQu6QOXjwZpJJvNvm9mrBSAZu43UgCsjbuHarV6wM3y5spH6bBJ6VWDFmekyf9H9dJ5+czHiov0WwSATTPZCqJgBQAb6bmeCkq6dynsOCztamqXVcmkN91tpK0tnO7t7Z0hi8B93HukAPh8isXiVkulDpp0wlx/79ITDYNmfyu//Lri1Jjq81c4OgIAAACs10WzSaFzm0Lmr2SDr0h9zzYKqUn+G5mNmHuBXVbAA7oXSQHwYJVKpb0hhPxyM/iXJXWtGhBvSdWzihPDilcuKt64SRIBAACAx7lQXvHGQA2+Kmvf0SjiI5cK5iokiU5lMpk5sgg84PuSFAAPz/j4eEe6o+OQReVlykt6utF9ZwsfKxZH5JULqs98Kq/zYw0AAADwcFfGtrTLqnd/s28MvG7SO24qmHshl8v9liQCD/k2JQXAo1Mulwc8hBdNOi7XUUk9qwbEmlQ9o1g8pTh9Ub4wRzN4AAAA4AEIbYlC927ZjiMKQz+WJ12Nls8fuVQIiqPz8/On9+zZc4MsAo8OBSzgMXH3pFqtPrV01NBPSHZQUlg1aPGK/PJr8tJZ1WcvyWt1EgkAAAA0ufpNtvYp5P5a2vVdWfdXG0UsmPSuu43W2sLrg729n5BE4LHewgDWg4mJuWwqtXjETXmTf0vSroZBM2PyyWHFynuK166wOwsAAABYIbRvUbL9S7Idz8t3fl+WtDdaIn8k81GXRuamp3+1b98+GtQC6wQFLGCdmpya+kriftxc+SgdNim9asDijFQalZfOqT77Ic3gAQAAsPkWuIkpbM0pZA5IQz+Sdf1lo5B5SW+bfCSE8MtMJjNOFoF1en+TAmD9KxaLWy2VOmjSCUmvyPXFhkG3d2dNjSnOV+SR7VkAAADYeO7sshp8WdrxihRSq17v0kVzjXhQoT+TOWdmi2QRWP8oYAEtqFQq7Q0h5Jf6Z+klSdtWDYi3pOpZxYlhxSsX2Z0FAACA1l3EJqawbafCwGFp8Aey9p0NIrwqs7PmXpA0msvlJsgi0IL3PikAWpu7pyqV6WekeFymvKSnG93btvCxYnFEXrmg+syn8jq7swAAALBeV62m0LlNoXe/wsAxqf9Yo4i6pA/kKkhhNJfrfdfMIokEWvxRQAqAjaVUKu0wSx028xMuHZfUu2pArEnVM4rFU4rTF+ULczSDBwAAwGMV2hKF7t2y3EHZ7h9L6WyjkLJM51wa3ZJKjfT09EyTRWBjoYAFbGDunlSr1afcLG+uvEsvSFq9KcDiFfnl1+Sls6rPXpLX6iQSAAAAD31lGjq7FbIHFIZ+JHU/2SiiLukDl48GaSSbzb5vZvwMC2zsxwSAzeLS3FwmfWPxG27Km/y/SdrdMOh2M/jKe4rXrrA7CwAAAA9mMZpOK9W7T7bjefnO78mSjkYhRZNOu9tIKmVv9vX1zZJFYBM9M0gBsHmVSqW9ZqkTZn7cpeckbVk1YHFGKo3KS+dUn/2QZvAAAABofvEZTKErp5A5IA29Kuv6cqOQGyb92k0Fcy+wywrY5M8QUgBAksrlcpeZfcPdjsl0TNJfNAy6vTtrakxxviKPzCcAAADwR6F9i5LtX5INvizteEUKqUYh/yHTScVwsla7cW5wcHCBLAKQKGABuIdSqbQ3hJB3s7xcxyR1rxoQb0nVs4oTw4pXLrI7CwAAYDMuMENQ6Moq9B+UnvgH2ZbBRiELJr3rpkKQhrPZ7L+RRQB3fb6QAgCNuHuqUpl+RorHZcpLerrR88Pn/0O6/E+K1f9Xcb4sr7M7CwAAYCOuKEPndiWZr0o7j8syh5sJ+kjmoy6NzE1P/2rfvn388gmgmccNAKxNsVjsD6Ht+eVm8K9IGlg1INak6hnF4inF6YvyhTmawQMAALSo0JYodO+W5Q7Kdv9YSmcbRHhVZmfNvWBmb2Sz2ctkEcBaUcAC8Lm4e6hWqwfcLG+uvEvPS2pbNeb6ZWnyZ/LKBdVnL8lrdRIJAACwjleNobNbIXtAYehHUveTjSLqkj6QqyCF0Vyu910ziyQSwOd8FAHAg7PcDP5IVDgu+UsmfaFh0MyY4uWfKlbH2J0FAACwDtxpvr7jefnO78uS9kYhJZPedLeRdDop9PT0TJNFAA8SBSwAD9WdZvCyE5Lyklaf/SzOSKVReemcatO/l9+6RRIBAAAe9sIwCQpbswqZA7Iv/Hdp65cahdww6dduKph7IZvNvm9m/AwJ4OE9p0gBgEdlfHy8I93Rccii8svN4L/WMGhmTD45rDg1pvp8RYrMiwAAAB6E0NGpkHlSYeCY1H9UUmi0fPzIpYK5CmbxZC6Xu0oWATwqFLAAPDbF4syeJFk86mZ5uV6UtH3VgHhraXfWxC9Vn/1Q8QYvrAEAAGjW2puv65pJF9xttF4Pv9i5s/c/ySKAx4UCFoB1wd2TarX6VJROmOy4pANq8DOgLXysWBxRLJ5XvDopr7M7CwAAYOVqb43N1+XSRXONeFChP5M5b2b0cwCwXh5pALD+TE5O5pIk/YKb8iY/Lmlw1YBYk6pnFIunFKcv0gweAABsSmtvvu5VmZ0194KZvZHNZi+TRQDrEQUsAOueu4dqtXrAzfLmykfpsEnpVWOuX5YmfyavXFB99pK8VieRAABg4y3oPtN8/SfS1r9oFFKX9IFcBSmM5nK975pZJJMA1v3zjhQAaDXFYnGrpVIHTTphrr936YmGQTNjipd/qlgdY3cWAABoaWtvvq6iSafdbaStLZzu7e2dIYsAWg0FLAAtr1Qq7Q0h5Jebwb8sqWvVgMWZpWbwpXOqTf9efovWDgAAYP26j+br1016x00Fcy9ks9n3zYyf7wC0NApYADaU8fHxjnRHxyGLysuUl/R0w2fdzJh8clhxakz1+YoUmd8BAIDHu0pba/N1yT5yqWCuglk8mcvlrpJIABvs0QgAG1e5XB7wEF406bhcRyX1rBoQby3tzpr4peqzHyreuEkSAQDAQ7f25uu6ZtIFdxuttYXXB3t7PyGLADYyClgANg13T6rV6lNLRw39hGQH1aBphC18rFgcUSyeV7w6Ka+zOwsAADyAhVgICl1rar4uly6aa8SDCv2ZzHkzow8CgM3z3CQFADariYm5bCq1eMRNeZN/S9KuVQNiTaqeUSyeUpy+SDN4AACwJvfRfL0i09vmXpA0msvlJsgigM2KAhYALJucmvpK4n7cXPkoHTYpvdr1fv2yNPkzeeWC6rOX5LU6SQQAAHfcR/P1uqQP5CpIYTSX633XzCKZBAAKWABwV8VicaulUgdNOiHpFbm+2DBoZkzx8k8Vq2PszgIAYJOurtbefF1Fk06720hbWzjd29s7QyIB4K6PWABAI6VSaW8IIb/UP0svSdq2asDizFIz+NI51aZ/L79FiwoAADai+2i+ft2kd9xUMPdCLpf7LVkEgMYoYAHAGrl7qlKZfkaKx2XKS3q64fN0Zkw+Oaw4Nab6fEWKbM8CAKAlF1C3m6/3H5SGfiLr2NVM1EcuFYLi6Pz8/Ok9e/bcIJMAsMbnLykAgM+nVCrtMEsdNvMTLh2X1Lvqg7e+IJ94XbH8luLMh4o32Z0FAMB6XjGFzu1KMl+Vdn5Llnm+mahrks6afGQxlTo12Nv7CYkEgM/9OAYAPCjunlSr1afcLG+uvEsvSEqt+iBe+FixOLLUDH7mU3md3VkAADxO99F8PUoak6vgQYX+TOa8mfELFQA8QBSwAOAhmpiYy7a13TzqbsdkOiZpYPXpb02qnlEsnlKcvkgzeAAAHsWiKJhCV04hc0Da9V1Z91ebCSvK9aaZn1xc3HJ6cLC7SiYB4CE+q0kBADw6pVJpr1nqhJkfd+k5SVtWDVi8Ir/8mrx0VvXZcXmNN2kDAPAgrGy+rsEfSiHdKKQm6X+7fDRII9ls9n0z42cmAHhEKGABwGNSLpe7zOzI8u6sFyXtaxi0shn81bLEtBkAgKasPBaowVdl7TuaCfu9XKfM/FS9Xj87MDBwjUwCwONBAQsA1olicWZPkiwedbO8XEcl9awaUJ+TJoflpXOqz36oeOMmSQQAYMVKJ3R2K/TuV9j9PanvUDNR10y64KZCkIaz2ey/kUgAWDePdQDAenM/zeB17Q/yy68pli8ozpflnDYEAGwyK48F+s7vyZKORiE0XweAFkEBCwBawKW5uUz6xuI33JQ3+cuShlafjt+SqmfvNIOP1+ZIIgBg4y1mElPYmlPoPygN/UTWsauZsLJM58y9IGk0l8tNkEkAaIFnPikAgNZTKpX2hhDyLjshKS+pfdWA65fkkz+XVy6oPjMur7M9CwDQgoIpdGxbOhY4cEzqPyopNIqqSf4bmY2Ye4Hm6wDQmihgAUCLGx8f70h3dByyqLxMeUlPN3y+z4wpXv6pYnVMvjAnZxoPAFinQlui0LNXYedR2c7vypPOZpY5H7lUMFchSXQqk8mwFRkAWhwFLADYYEql0g6z1GEzPxGlb5nUt2rA4oxUGqUZPABgfSxQbh8LzByQhl6VdX25mbCl5utuo/V6+MXOnb3/SSYBYIOND6QAADauuzSDf15S26pBM2PyyWHFqTHF+Yo8sj0LAPBwhY5OhcyTazkWSPN1ANhkKGABwCZSLpe7PIRnTDoh6RW5vrj68mC5GfzEsOKVi+zOAgA8EKEtUejeLcsdlO36kbQl19QwtqL5+kgul5skkwCweVDAAoBN7E4zeLO8XMckda86aFz/RHHyF0vN4GfH5TWawQMAmlh0BFPoWjoWaLu+I3U/2UwYzdcBAH8cS0gBAECS3D1VqUw/I8XjTTWDjzWpekaxeEpx+iLN4AEAnxHatyjZ/iXZjuelwR9KId3M8oTm6wCAu48QpAAAcDeTk5O5JEm/4Ka8yY9LGlw1YLkZfJw8rfr0H9idBQCbzMpjgRr8gax9ZzNhd5qv19rC64O9vZ+QSQDA3VDAAgA0ZXJq6iuJ+/HlZvDPSdqyasCKZvD1+fJSu10AwIZaSYTOboXe/Qq7vyv1PdtMFM3XAQD3O+wAALA2ExMTnUk6/XcWlV8+bvi1VQeb+rx88nV56Zzqsx/SDB4AWtTKY4G+83uypKOZsJJM58294O7D/f39RTIJAFgrClgAgM/tT5rBH5XUs+rgs/AHxeIbisXzinMTcnZnAcD6XCyEoNCVVeg/KA39RNaxq5mwGyb92k0Fmq8DAB7YmEQKAAAPkrsn1Wr1qaVilp+Q7KCkcM+AeEuqnqUZPACsi9WBKXRuWzoWOHBM6j+66iN8ReCd5utm8WQul7tKMgEAD3SIIgUAgIdpYmIum0otHlluBv+ypKFVA65fkk/+XF65oPrsJXmtThIB4CG603x9xxGFoR/Lk65mwuYlvW3ykcVU6hTN1wEADxsFLADAI3XnuKHshKS8pPZVA243g6+8p3jtCruzAODzLgASU9iaU8gckIZ+IOva30xYXdIHK5qvnzOzRbIJAHhk4xcpAAA8LuPj4x3pjo5DK5rBP73q2LQ4I5VGaQYPAGsU2rco9O1XGHxFyn5TCqlmwkoynXdptL2tbXT79u1XyCQA4HGhgAUAWDfK5fKAlDxn5iei9C2T+lYdxOY+ULz8C8WpMcX5ijyyPQsApBXHAnMHZbt+JG3JNRN23aR3aL4OAFiPKGABANallc3gzZV36XlJbfcMuN0MfmJY8cpFdmcB2HSz+mRrn0Lur2W7viN1P9lsIM3XAQCtMtQBALD+lcvlLjM7EhWOB/kxl55YdYC7/oni5C+Wm8GPy2uRJALYUEL7FiXbvyTb8bx85/dlSXszYXearydJcrKvr+9TMgkAaAUUsAAALelOM3izvFzHJHXf8+JYk6pn5MVfLu3Ouj5PM3gALWfpWOCQLPesNPg9WfuOZsJovg4A2BAoYAEAWt7HH3/c3rlt27PB7ZgrvijZ6mdnaAYPoEVm6qGzW6F3v8LAMan/WLNhn0TZm+Z6M51OzvT09EyTTADABhgWAQDYWIrFYn8Ibc+7KW/y45IGVw2YGZNPDtMMHsBjd5/HAhdMevd28/VcLvdbMgkA2GgoYAEANrzJqamvJO7HzZWP0mGT0ve8+HYz+OIpxal/Uby+QAIBPDQr3xaowR/I2nc2FefSRXONeFBhbnr6V/v27WMrKQBgQ6OABQDYVCqVyra62TdC1FGZ8pL+y6oB1y/JJ3++3Az+krxWJ4kA7n/yHUyhK6eQOaCw6zvypt8WqEm53jTzN+v1emFgYKBMNgEAm2oMJQUAgM2sXC4PSMlzaz5uWHlP9WtXJE4bAmhg5bFADf5QCulmwmqS/0ZmI+ZeyGaz75sZTxwAwKZFAQsAgBVWHjd06VlJ925AU5+TJodpBg/gM1YeC7RdP5K25Jqdmn/kUsFcBbN4MpfLXSWbAAAsj5KkAACAuxsfH+9Id3Qcsqj88nHDp1cbO23hD4rFNxSL5xWvTsrrbJYANsWEOjGFrUvHArXru7LurzYX6JpS0FvmXkiS5GRfX9+nZBMAgHuMt6QAAIDmTE5O5pIk/cLyccOXJQ3d8+KVzeCnL8oX5uTUs4ANM4MOnd0KvfsVBo5J2W9KIdVMZF3SB3IVPKjQn8m8bWY1EgoAQFPDLwAAuB+lUmlvCCHvZnm5XpS0/Z4XL16RSv+sOHla9emPaAYPtJjPHAvc/WMpnW12un3nWGAqZW/29fXNkk0AANaOAhYAAA+Au6eq1epfuVl+uX/W85La7hlwuxn81Jjq8xUpsj0LWFeT5CQobM0uHQsc+oGsa3+zoddMuuCmQpCGs9nsv5FNAAAewNhMCgAAePDK5XKXh/CMSSfkfkKyPfe8+PZxw4lhxSsXaQYPPJZZsSl0bvvjscD+o5JCM5F/eizwvJndIqEAADzgoZoUAADw8P3JccO8pN57Ds7XP1Gc/IW8ckH12XF5LZJA4GFMhNNppXr3yXY8L9v5bXnS1WxoUaZfuTTa3tY2un379itkEwCAhzxukwIAAB4td0+q1epTt48bRumwSel7Xj91Xn75dZrBA5934rvybYFDP5J1/WWzoQsmveumgrkXstns+2bGnQgAwKMcx0kBAACPV7FY3Gqp1EGLysuUl/T0PcfoxRmpNCovnVN99kOOGwKrCabQcV/HAiXZRzIfdWlkbnr6V/v27eNmAwDgMaKABQDAOlMulwek5Dk35U3+LUm77jmQz32gePkXilNjivMVOc3gscmF9i1Ktn9p+Vjgd+VJZ9O3nkznzL1gZm9ks9nLZBMAgPWDAhYAAOvcnf5ZshOS8pLa73rh7WbwxVOK0xcVr82RPGx4oS1R6N4tyx2Udn5P1rGr2dCa5L+R2QjHAgEAWP8oYAEA0ELGx8c70h0dh1YcNzyge52Jun5JPvnz5Wbwl+S1OgnEhpi9hs7uFccCj60l+COXCuYqmMWTuVzuKgkFAKBlpgAAAKBVTU5O5pIk/YKb8pK/ZNIX7nnxzJh8clhxakz1q2WJvSZoESuPBfrO78uS9uYCXVMKesvcC0mSnOzr6/uUbAIA0JooYAEAsIHcOW5olpfrRUnb73phfU6aHKYZPNalzxwLHPyBrH1ns6F1SR/IVfCgQn8m87aZ1cgoAACtjwIWAAAblLsn1Wr1KTfLmyvv0vOS2u46IVj4g2LxDcXiecWrk/I627PwCCekwRS6cgqZAwq7viPvfnIt0XeOBba1hdO9vb0zZBQAgA04XyAFAABsDuVyuctDeMai8m46YdL+u14Yb0nlU/LSKdWv/Lvi9QWShwc7ATUpdHQp9O2XBl6SZfNSSDUbfs2kC24qJGYjmUzmIhkFAGATzB9IAQAAm1OpVPoLhXDU3I7KdERS710vvFmRJl9TLL+jOPup4iInsrB2IZ1W6Nkjyx2WDX5HautpNrQu13tu/qZi8mZ/f+9vOBYIAMDmQwELAADc7bjhc5K23PXiax/KL/9MsXxB8VqF44a4+yQzMYWtS8cCNfSqrOvLa4m+cywwnU4KPT0902QUAIBNPrcgBQAA4E9NTEx0Jun031lUXqa8pKfvOm+It6TqWcXiKcXpi/KFOTn1rM0pSKGjW6F3v8LAMan/2Fqi5036X+42GmMyPDDQ8zEJBQAAK1HAAgAADU1NTe2u13XUzb9p0jclDdz1wsUZqTTK2w03xSzSFDq3/bFglf1m032sXLpl0gW5Toeg05lM5rdmViepAADgnlMPUgAAANaqVCrtDSHk3SwvV1736p/FccMNJbRvUbL9S7Idz8t2fluedK1l2nnnWGAqZW/29fXNklEAAND0TIIUAACAz+Mu/bOeldT+Zxdy3LDlhLZEoXu3LHdQ2vV92ZbBtYRXZHrb3AtJkpzs6+v7lIwCAID7RQELAAA8UOPj4x3pjo5DS/2z/FnJ/lbSn58t47jh+psYJkFha1Yhc0C26ztS95NrCb9u0jtuKph7IZvNjplZJKsAAOCBzFNIAQAAeJgqlcq2aPa3DRvCX/uDvPSGYvG84tVJjhs+oplg6FzZeP2opLCWP/CRS4WgODo/P396z549N0gqAAB4SNMWAACAR6dcLg9IyXNuypv8ZUlDf3ZRrEnVMxw3fAhW9rHynd+TJR1rCS/JdN7cC2b2RjabvUxGAQDAo0ABCwAAPFZNNYTnuOF9W9nHynb9SNqSW0v4gknvrjgW+L6ZUUoEAACPHAUsAACwbjTdEH7lccO5SXmkpnJncpeYwtacQuaANPSqrOvLawmvS/pAroIHFeamp3+1b98+qoUAAODxz3FIAQAAWK/Gx8c70p2dz1rdv+Gmb5j0NUnJZy7a5McNLZhC13LBqv+ILHN4rX/iDyadjqbT6SR5q7e3d4ZvHgAAWHdzHlIAAABaRbFY3Gqp1MEVDeEP6E+7jm/044ZmCp3b/th4PftNKaTW8hfmTfpf7jYaYzI8MNDzMd8sAACw7qdApAAAALSqpt5wuHzc0CsXVJ/5tCXfbriy8brt/LY86VpLeE3S/759LLA/kzlnZot8ewAAQCuhgAUAADaMycnJXCqVesbdDt21oBVr8mpBXjylOP1vigtXtR7PG4YtaYXuJxRyB+UD35G171jrFO8jlwrmKqRS9mZfX98s3w4AANDKKGABAIANq1Qq7TBLHXZTXvJnTdr/mQviLal69rH3z1r5psAw+G15+xfW+icqMr1t7oUkSU729fV9yqcPAAA2EgpYAABg05iYnn4itVg/IumITEckDX3mgsUrUumfH3r/rAdQsLoq6ZzJ3orRzvT39/7OzHgVIwAA2LAoYAEAgE2rXC5/ycyORNkLJh2WtPszF6zsnzV7SV6r39c/507BqvcpafCErGv/Wv/EDUkX5HrLEzvT39f3npnV+AQBAMBmQQELAABgWaVSGXQPhxT8WbkO6TM9tKJ86tdS+Yx85l9Vv1q+a0HLTApbOhS2DUmZrykMHJd37lnrv0pd0gdyFcz8HUlv53K5q3xCAABgs6KABQAAcA9TU1PdNfe/WXrLoT/rsr82KX3ngrl/kYonFa/+fwodg/KeJ2W5o1Jbz/1My+40Xk+nk0JPT880nwAAAMDyTIkUAAAANKdcLnd5khxUjM+a7LCkv5HUeR9/yiX9u8t+HRTPxhjf2rFjR4kMAwAA3B0FLAAAgPvk7m3lK1e+HqL+Nsq/btLXJf3lXeZYi3L91s3ecfNfxVvpdwYHu6tkEAAAoDkUsAAAAB6gqamp7nq9/lcewheDW0aKY4uLi+8NDg4ukB0AAAAAAAAAAABgA/r/AX/7+Lt0BkyAAAAAJXRFWHRkYXRlOmNyZWF0ZQAyMDE5LTA3LTEwVDA4OjQ0OjIxKzAwOjAwHulRWwAAACV0RVh0ZGF0ZTptb2RpZnkAMjAxOS0wNy0xMFQwODo0NDoyMSswMDowMG+06ecAAAAASUVORK5CYII=;" parent="1" vertex="1">
                    <mxGeometry x="140" y="286.77" width="35.44" height="50" as="geometry"/>
                </mxCell>
                <mxCell id="36" value="" style="shape=image;verticalLabelPosition=bottom;labelBackgroundColor=#ffffff;verticalAlign=top;aspect=fixed;imageAspect=0;image=data:image/png,iVBORw0KGgoAAAANSUhEUgAAAU0AAAHgCAYAAAAhcj/0AAAAAXNSR0IArs4c6QAAAARnQU1BAACxjwv8YQUAAAAJcEhZcwAACxIAAAsSAdLdfvwAACCuSURBVHhe7d1vjFzVecfxa8hiY7B3jW0I8RInQRCnSTBWhUtCW2yhpCJKVIKoWimQoKpSg9IXRJWrSnmBkar2BS+CFKHkVZuGRmpVQtw/aqREqeMXEMeu6nghtuOyhjWLs8sk2DvrHWa8jOk8s+d6Z2fv/Lkz5z73nHO/H+lq7jVFXezJz+e5zz3PjQAAAAAAAAAAAAAAAAAAAAAAAAAgCO8W5OhH0r8X4nGwcfSyv3Ek/bshHnsaB9pcZT4BAH0gNAEgBUITAFIgNAEgBUITAFIgNAEgBUITAFIgNAEgBUITAFIgNAEgBUITAFIgNAEgBUITAFIgNAEgBUITAFIgNAEgBUITAFIgNAEgBUITAFIgNAEgBUITAFJYYz6xmryNL2vfbhxTS6e5kbcr9qLxe9HLa+bI0s8bx1eXTjt6vHF8fek0Vz8xn1mS3wv5PQH60voq06wOX16RemfjeLVxJP03aB6PNg4XSGgm/Xyax7HG8YHGATgj6Ytq+/DpvdJjjUPeC57036F5/EPjcMEDjeN840j6GbUO+f/Pu8nhjKQvqe3Dxy+8lPNJ/y2ahyurLFmBy8+S9DNqHnLLAMhd0pfT9uHrKkF+blZZS2QFLqvfpJ9R85CfQX4WIDdJX0zbh8+llaz0WGUtk/utST+f5iF/HrL6BXKR9KW0ffgcmjEXmiLfbxwurLJcaJjJClzutwLqkr6Qto8QQlPIKivvct2VVZaEt4R40s+oefTzKBlgVdIX0fYRSmgKF5oiLq2yXGiYydMO3OeEmqQvoe0jpNAUrjRFXFllyZ9v3itwuV3AfU6oSPoC2j5CC82YNGeS/ns1D1dWWfIzuLACd2VjAAKW9OWzfYQamkJWN6yylrnQMHNh+ycClvSls32EHJpCVll57yJyaZXlSsOM+5zIRNIXzvYRemjGXGiKuLL90pWGGfc5YV3Sl832UZTQFC7s1XZllSU/gwsNM7ZfwqqkL5nto0ihKVzYRSTB7crvuwsNM7ZfwpqkL5jto2ihGWOVtUzK5Lx3EclfZIyZw9CSvly2j6KGpnChKeLKKkt+BhcaZmy/xFCSvli2jyKHpnChKeLSKsuFhhnbLzGwpC+U7aPooSlklZX3Xm2XVlnynch7Be7KABQn8Y6gzuTLkzVf3hGksfr4UuPIe8Un78R5eum0Iwm1rP+y29448n62VN4N9PnGkfV7mRCQ9r99Qz36kfTvhXjIfcVeXCihtQ4qoQS8whcAUiA0ASAFQhMAUiA0ASAFQhMAUiA0ASAFQhMAUiA0ASAFQhMAUiA0ASAFQhMAUiA0ASAFQhMAUiA0ASAFQhMAUiA0ASAFQhMAUiA0ASAF3hHUWT+vPgjBXvPZTVF+L+S9OPKeoG7k3T3yPqMikN8L+T0BAAAAAAAAAAAAAAAAAAAAAAAAAAAAAAAAAAAAAAAAAAAAAAAAAAAAAAAAAAAAAAAAAAAAAACAp9aYzyi6+5H90fgd95orAECr5/btlY+VoXn3I0+YKwBAq6c/3czLq5oXAIDOpo//xJy1hGZ59jVzBgDogNAEgF5qCxfMGeU5APRUmjxuzlpCszT5c3MGAOhgOTRrF68sPwEALVpuX1KeA0AvHUOzpa0OAFiNlSYA9FKe6bDSbGmrAwCMjuV5S1sdALAa5TkAdNP2OCblOQB00/Y4Znt5zgPuANAF5TkAdDM9ccicNa0MzZa2OgBgtbbQZNIRAKzQ1uuhPAeAbrp2zwXNIADoaHVoMu0IAJa19XoozwGgm7Zez+rQbGuvAwCWsdIEgE4SnihKuKfJVkoAaEp4dn11aNI9B4CO1pjPZeM790QPPXXQXAG5WL9xfXTdxmvNFbCsNP0bc6bg2PNPR4e+9VVz1bQ6NLfeemf0hW8eM1dALraOb462NA6g3cnDp82ZgsPPPtk49purJspzAN6o1y+bs/zQPQfgjdpCzZwpmZ5Y9bLJ5NBkcAcAJOoQmoyIA+CexdqiOVOSsK2c8hyAN9RDM6HHkxyaNIMAIFFyaNYW5swZADjjkuZKs0Nvh/IcgDcWa++YMwUdejvJoZnQZgcAsNIE4JFapWrOFFCeA/Bd/R3FHUHl2SlztkKH8vw45TkAJGClCcALlfLb5kxJh0cvO4dmbZ5hxACKq8NA9s6hWTrDA+4AnFGv181ZvijPAXhBf8JRcm+nc2gy6QgAVukWmontdgDIg+oWyi49HcpzAF5Q3ULZpafTpRHEpCMAaNc5NHn/OQCHqM7S7NLToTwH4AXl0OzY0+kcmmylBIBVWGkCcF61ovyMJuU5AJ9d1pxuJAYOTUp0AFiBlSYA51XKFXOmpMsjl91Dk8eOABRRwvvOY91DszR53JwBQG7qdeV7ml1QngNwXlVzwlGPXk730GTSEQCsQGgCcJ7qbqAevRzKcwDOUw3NHr2cXo0gJh0BQIvuodml7Q4AGlRXmaLHbUnKcwBOUx0+LIYOTUp0ALiid2hSogPIUbVSNWdKyjOU5wD85dKEI9E7NKcnDpkzACi8Neazs7sf2d84njBXwTnw8G3mDC659rp10aYbxswVXPJ3x85Hpy5cMlfZmzoxrTflSHo4331sl7lK1Ds0dz34eHTvl79uroJT+lrX3x/kZGRkJBodHTVXcMmjB2ejI2/q3WdUDU3Zd/7cvr3mKhHdcwCpnDyvt8oUl+t1c+aGwjeCXp5925wB6Mf8om5jRnfCUe8eTu/Q7NF+991c1a2/xQC4rY/QZNIRgCVHFe9lCvUtlH28raLw5fmLZy+aMwCuUd9C2UcPp7/QpBkEoKGsfD/TRf2FZsBbKeeqyn+TAR47dUG3XNafcNS7h1P48pzuOeAu18bCCcpzAH17Y4HKrM/yfGHOnAWHR46A/p1TDs1qRfEZzT6fFKI8pzwHnFXXnHDU5zPp/YXm9ETX9wADKAbtLZQuKvxKU7w+xxcB6If2Fkq1QR2iz95Nn/c0w57eflZxzBUAR/XZu+kvNOmeA4WnvYWyXnfzQXrK8waaQYB7aprTjUSfvZv+QzPgwR3lGo8dAb2whXJJitAMe0QcgO6C30LZZ++G8rzhhal5cwbAFeqhabV7LmgGAYXGFsol/YcmWymBQtPeQnlJc6WZomdDed5A9xxwj+oA4hQ9G8pzAH1hC+WSNOV50LuCKNGB7rS3UNYqig/TU56nR4kOuEV3wtHslDnrqf/QnD7OpCOgoLS3ULqMlabBpCPAHZWycuWXomeTLjRr88He1yQ0gc6C30KZomeTLjRLZ+igAwWkvYWyXne3MUt5brw0ozjsFEBX+hOO+u/ZpAtNJh0BhcQWymVpQ7PvtjyAcGhvoVQdQJyyV0N5brwwddGcAchbVbM8T9mroTwH0BPl+TJCswVbKYFk2qGpOkszZa5RnrdgKyXgBuXQTNWrSReaTDoCCucUr7heIV1oBv7+cx47Alabv6S7G6haUX5Gk/J8cJTnQP4ua043EilDc4357N9DTx2MxnfuMVdAJraOb462NI7QbbvuPdGPPrvNXLnpmV/MRc+8rFdkyrCOqROvmysFz+3bm92OIABWSWhipUpZeUtzyl5N+tAMfII7oGnDiPvrFu17mupS9mrS/4mVJo+bMwBD2rHpGnPmLu3uueoWygFQngNwiuoWygHeSJE+NNlKCVizY2zEnLmLLZQrEZpAjjZ6cE9TOzQvaw4gHqBHQ3kO5GjDNfxPsJ3uhKP0PZoBVpozrDQBS3aMud0IYgvlapTnADrSftxIdVCHGCDPqA2AnOy+cZ05Q2yxptx0UgtNph0BhXCkpDw8wwODhWbg044ADe9jC+Uq1UrVnCkZoEdDeQ7kxId959r3NF2fcCQGC83piUPmDEDA6J6vxkoTyMnurWvNGWILZcWZtgP2Zga8p8mkI6AIgt5COWBvZrDQpHsODM2HCUdBb6EcEOU5kBMfZmlq051wNFhvZsDynEeOgGH4EJg0gZJRngM5+IgHpbn240bqw4cH7M1QHwBwQk2zNBeq3XPB4A5gYK5PNxJsoUw2RGgyIg4YFHM0V1OfcKT6yBGAoWxbf7U5c1fwY+HUy3OaQcDAfNh3Tvc82eChWVuYM2cAMLRqRfEe6hA9GcpzIAd3eTCAWHs3UF1zwtEQPZnBQ3N6IvX7ggH4g1f3JmOlCSjz4X5mHirlijlTMERPZoh7mmylBAbhQ2gGv8ocoiczeGjSPQcG4sO+83Pa9zO1t1AOgfIcUObDSDht6lsoh+jJDBeatXlKdCBAJ3lGs6PhQrN0hhIdSGnH2Ig5c9f84rvmTEdde/jwED0ZynNA2UaGD6/iy4QjMdyfHpOOgNR8GNZx9E3l9497ZNjQnDJnAPrkw1g4bZc0h3UM2YuhTgCwSll9wpHiI05D9mKGC02e1QRS2e3BnnPBhKPOhgtN3n8OwIJaRfEe6pC9mDXmczDjO/dEDz110FwFZXTd1dHHbrrWXEHb2I1j0ZabbzBX4ZDpRl/56Ki5cpNsofzUf75hrnScPHzanCk4/OyTjWO/uUptuNAUj/9Q94EuJfdsvz468PBt5graRkZGotFRt8MlZI8enI2OKHbQfQpNGkEdzFWVH7YFHKI5sKNSftucKRmyF0NodvDyrPIfJOCQoKccDdmLGT40p48zjBjAwNS3UA6JlWYXlOgoIu3HjfQnHA230Bs+NAN+7IgSHUWk/epe3wwfmqXJ4+YMAFJTHUBsYZwl5XkXr8+xKwLFc6SkWy5XNctzC+Mshw/NgCcdEZoA2hGaAFbQvqe5qDrhaPgeDOV5Fy/NKL5SFHCEdvdcNTQt9GBsNIKCnXRUrvHIEYCVhg9N3n8OBEVzN1C1ovyMpoXbiZTnXfCcJopIMzQvv6P8TKgzoRnoVkp2BAFox0oTwBXaTaBKWbnZaqEHQ2j28MLURXMGhC/4LZQWejCWyvOJQ+YMAPqmuoXSElaaAK4Iegulpd6LndAMeNLRi2cpzwEssxOavMoXCIL2Pc3LmgOILS3uKM97mKsGPPYfaKPdPdedcGRnjKWd0CzPBDu0gwfcAbSyFJpMOgJCoLkbSHVQh6A813FWuVwB8qQbmsq3viz1XuyFZqDNIAYRA2hlLzSZdgR4Tftd59VK1ZwpsdR7oTzvA6tNFME55dD0ccKRsBeaAW+l5L4mgBgrTQBNJ5UXBwtlxcf5LPZcCM0+8KwmimB+8V1zFiCLPReb5XmQg4gF7woC7FPdQmkRK00ATUff1O1m6044stdzsReaAT9yxKt8AcTshWbAk44oz1EEZcUJR+rDhy2Or6Q8B9CkOeGoplmaC2e754EO7uA9QQBilkMz3BFxQMjmF3XLZf0JRy4+chQ43oGOkJ06r/tgu3poOlueB9wM4gF3AMJuaNYW5swZAI/oTzhSbARZ7rWsMZ923P3I/sbxhLkKysduujYaXXe1uULWxm4ci7bcfIO58tu3995kztz1zC/momde1nvUeurEdFQpKz3/LK/ufW7fXnM1NLuheesnH4g+t//75goY2NbxzdGWxuG73TeuIzQT+ByatsvzYHcFASHTbgSpBaaw3Guhew5kaMOIH/8T037kSJXlXovdP1FZBgO4Ysema8wZYupbKC1jpQkgOqI44Uh9C6XlsZX2Q7M2z31NwNgxNmLOEAr7oVk6E+wD7kBaGz24p6l9P7OuPXzY8thKynOg4LQ75z5POBL2QzPQSUfAIO66cZ05QyiyCM0pcwbAA2Xl8vyS5rCODHoslOdARrZd9x5z5rZTF3QnDi3WFPe5Z9BjsR+aAU86AtLwJTSRjv3QZCsl4BXtCUe1iuJbLzPosVCeAxnZMebHbqBzyqFZf0fxHmoGPRbKcyAjG65hTRKiDMrzcN9/DqSxYcTu5MWsnFR8TrNSVn4DQgaLOP4qBDLyEU/K88AnHHnyyBHTjgAkUN9CmYFs6oeHnjoYje/cY66CcODh26J7tl9vrtwl72h/4J/+z1z5K4TJ7T978Bbn52kefbMafengrLnK3q+nfxOVGoeapz9tPeOy+RMN8LGj1+d09+fCf74MIEY62fypliaPm7Ng+BKaPqyG4Q7tLZSqA4gzGlPJX4VABuSFaj7Q3kJZ1ZxwlNGYymxCM8BJRy/NKL4Iaki8ahjIDqHZp3LNn66fvKMd+XqfJ/vO5y/plueLqhOOsumtUJ4DGfBnwpHuvXrV0Myot5LRSnMmuJWmPMrji1tGeQMikBXK8wC9f2ytOUNefHmhmuaEo2pF+TUXGeUQ5TmQAR9eqCY0Q/Oy5nQj4V1oBjjtyJcSnfI8f0w4Cld2f7JMO8oNoZk/H2ZpajeBKmXlx/YyWrjx12EKPj12BPSi/biRuowWbtmF5vTEIXMWjJdnlWcBDojnNPPFu4GSqW6hzBArzQCxIyhfvoTmkZJuN1t1C2WG4ykzvKcZ3qSjsxeUH5kA4JzsQjPA7rlP4+GYdpSfuzwZ1qF9T/Oy5gDiDBdtlOdAQWl3z3UnHGU3njK70AxwK6UvjSCxcS33NfOybT2/9yHLMDTD20o5V/XnkaOPv3e9OYM2XxpBZcXyXHVQh6A8B2CbZnm+WNPbrtmUYU8l29AMcLXJVkr0smMTv/chyzg0w7uv6QtCMz8+vFBNc1CHqFaq5kxJhtlDeZ4SWynRjS9voDynHJqhTDgS2f4JB/isJlsp0c1HKM2Dl21o1hbmzBmUsZUS3ZxUfkZzoay42Mh4sUZ5ntJcVbkLCK9480K1xXfNWYAyHkuZbWhOT2S2aT4vPj3gzlZKfUw4Sqa6hTJjrDSBAjr6pm43W3fCUbZjKTO+pxne9PazyveC4JfdW3mpXeiyDU0mHeXqnu0bzBmwkuYWSvXhwxmPpaQ8Byzy5YVqmlsoa5qlufC+ex7gVkpfmkFMOtLnwwvVMByF0AxvK6Uv044+8+HR6E/uuIEtlQpkJ9B92/yYLDW/qFsu60848vmRI+RKwvIbn9se/e9ffLR5yPn9t4/y4Lslu29cF33lY2PRP+69KfrZg7dE3/jdreafuO3Ued378uqhSXnunhfP+jHpqJUEqKw6v/NHH4pe+cs7ooN/tiP6q9+/mWc5U5BnML94+8ZmOEpIfrsRll/56Kg3r7eAHRqhOWXO4BDZm77v994bHXj4tqj0tV3NMP3z3VvZs94iLrn/dvfm6Eef3dY8/nrXpuav+TKYI4n+hCPFRpDCIo3yfAAhbqWUsv1vPjXeXIHGpXwR74dKyS3B+Pwf3Hyl5H7gg9cHtdPnjYruPfm65oQjhR5K9qHJpCPvxKV8fD9UglQCNcT7odLtjkvuE3+8vVlyyzVdcHSSfWgG+P7zopGSXUr3+H6olPRyP9THUl5WjLJylJJbVpKyooxL7qLQbgRVyhVzpkBhkUZ5PoCib6WU5pHcD5UVqIRofD/U1VJeAjEuueW+pASmBKfP9yWHof3IkSqFcZRrzGe2Hv9hcHOopHmC1WSbqbxH6b9+eaH5lMGgz7RuHd8cbWkcg5DS+r7x9c194HS2V3v04Gx0RGlgh2yhPH30FXOl4PCzTzaO/eYqE4TmgAjN/sj9XwnRH5y+kOqldGlCU0puCcf7tl3bbOQUdQXZr9/6F70HWirlt6OpE6+bKwXP7dsbTR/PdCSlTmg+9r3z0doNY+YqCNIgKVpn2YYfnJ5rhOd8M0C7NdS6haaEooSjhKSEJTMs0yE0h6MTmg89dTAa37nHXAVBmiE8GD4cKd1bQ7R1glR7aEpIxqtJOtuDk/uZv/O8XojNn78YTf/ynLlS8N3HdmXdDCI0B0Ro2heX8hKiC9deF92/832NoFxLyW2RDB/+0sFZc5W9X0//Jio1DjVPfzrzTNP5Jgb42FHoz2rmofXRpn///HgQu28QHp1vY2nyuDkLBu8/h4/Kyo8bXdIc1lGbV1mc8Vc4UCCnLuhOHFqsKW45Lp1R2X2oE5oBTjqS+24AiofQBApEe8JRraL41kulnKE8H5Av09uBVueUQ1N3wpHOGEqtRhCTjgAEQSc0A3z/OeCjk4oTjmQ3kCqlxRnl+RB8egc6IAKfcBTYI0cZ7wfNQ9FHxAHd1Oth3vdnpQkUhGyh1FRbUHw3kFBamOmFJlspAQRALzTZSgnkSnsLpQwgVqO0hVJQngMFob2FsqpZnittoRSU50N4aUbxhVEAnKBZngf3gDvlOXwyf0m3PF9UnXCktyijPAcK4pTyI3KqoanYM9ELzfJMgJOO+n9RGIAwKIYmk46APGlOOKpWlJ/RVMwXyvMhMe0IvtAMzcua041EsKEZYDPot5/5RfTFfz0T/fPEW+xFh5PkXuZ3TpfNFYal8zbKWIBvpWwnLweTt1Tes31DdP/to+ZXkdbIyEg0Osrv3yBkKMePpyvRkVKt+ZnHkA71t1B+88FNWtPUCM2MSYDef/tY81MCFf0hNNORfeU/fuPt6EjjU7tLniTEV/fGdEPz7kf2N44nzFXh3DJ6zYpV6Oi6q80/QTtCszu5P/njNyqNsKw1g9K1kW+zU6XorV+dN1cKCM1iiEv5eCWKZYTmShKKEo4SkhKW2u/6SWvqxHRUKSvtmJPpRs/t22uuMkdoOkJWnZ98/9Iq9DMfHm2uSouM0Fxq4EhQ/rcpu31CaNoi9zPlviZ6ktCU8JQQlTAtWilfxNCU1aPcm8yzgWPLqy9N6Q3smHzxQPQf+z9vrjJHaHqi9V5oERpKRQlN1xo4tpw8fNqcKTj87JONY7+5ypxuaG699c7oC988Zq4wIFl1SnhKiEqYhljKhxqarQ0c+QwVoWnT4z9815zBkhAbSqGEZtzAkdWkrCpdb+DYIIM6Xjn2qrlScOhbX42OPf+0ucocoRmg1lWor6W8z6EpZXYckr41cGyQV/dOnXjdXCmQJpDiixv1Q/NPn3012njTB8wVMhY/G/qZD4951VDyKTRDauDYQGjaVsBdQS6RlacEqOsNJddDs/XB8pAaODa8NXM+mn2tZK4U/P0jH9Qc2EFoFlj8bKiEqGsNJddCM35mMvQGjg0hb6EU+qF575e/Hu168HFzBYe0PhsqK9E85R2aRWzg2EJo2sauIG+0duS1S/k8QjNu4Mh9SUruwanuBpJxk999bJe5UkFooi+tz4bKZ9YNJY3QjBs48cPlRW/g2BLyFkqhH5rsCgpC1s+GZhWaNHCyp7qFktCEj+KGkqxCbQ0bsRWaNHD0hbwbSBCasM7Gs6GDhqaU2PHUcho4+SA0s8CuoEKRAI3vhfbbUEoTmq0PllNy56tevxydPvqKuVKgvIVSEJpQ1dpQkjDtVMp3C00aOO4KfTeQyCc0H/ve+WjthjFzhQKLG0rtz4a2h2bcwJFPSm53EZpZYVcQOohXoXd9aFM0c9V6L6eWF9lcqRydm5wxVwrkGU3lV4MTmnDS1vHN0ZbGAb+EvhtIXGU+dSlurgcAm/IKzSlzBiAg1YrSQ+0ip8VXPqEJIEj1dxSfZCjPFCg0lW/cAoAt+YRmbeGCOQMQELVBHSKnxRflOQA/1RbmzJkqynMASCGn8vwi5TkQGNkNpGp6QnUnUIzyHABSyC80lfeLAshWvV43Z0pyqlhZaQKwoqY1rT1WuO45jx0BQZBdQPKu8wulsvmVsOUXmqXJ4+YMgEdk0HA8zeiVY69Gr05MRbOvlaLF2qL5v1BQm89t0UV5DqAn6YzLBCN5aZpMZpfAlOBUDcpWpTO5PbaYX2gy6QhwloShhOL06XPR6f95pTlYWEa+qb1l0mGEJoCm+fMXo9mpUrPklkNWk/NvXdQdwtGvHPOD8hwoqLiBM3ViuvkGyelfnove+tX5/EruNHIcL5lnI4itlICi1gaOlNxxA0d1yEYA8gtNtlICmZMGjpTc7Q0cJ0vuNHJcdFGeAwGR0lpK7tYGjpTcwTVwcnzOO9/QpEQHhiIld3sDR0puZxs4Acg3NCnRgdRaGzhScnvVwLElx9kVlOeA42jguCXf0JyeOGTOALQItoFjQ45bKAUrTcABrQ0ceWYy2AaODTluoRQ539Nk0hGKKW7gyAqyvYEDt+UbmnTPUSDSwJGhF60NHCm5C9XAsSHnxRblOZARCcP2Bo4MvaCBM6Scx0rmG5rlGYZ2ICitDZx46AUNnLDkHJpMOoLfaODkIOfcoDwHUqCB44DChybNIDgubuDEz0zSwCm2/EOTV/nCMXEDJx56ETdwKLkdIIusnBdaa8xn/m795APR+B33Rrfe80C08aYPmF9FQW0d3xxtaRxapOSWJo50tglHh0gpLguryRf/LZqe+IkL8yrcCc1WEprjO/c0gvQPo/GP74nWbhgz/wQFkXVoSsktASlByf1Ix0y+eKC5xVrC0sHbd26GZjsJ0PE7lkJ06613ml9FwGyHpjRwJCQlICUouR/pEAlGCUgJSglMx/kRmq3WXj92pZSXMKWUD5KN0JTV5MVGSErpTcntEBm4Mf2SKbkbYenZo4f+hWY7WXk2S/lPNEr5xieCMEhoyuqxWW43709WeKDcJa0rSc+fmPE/NNvRUApCv6FJA8dRDjZwbAkvNFvRUPJWp9CMGzjzby00P+GQuIEz+cIB30ruNMIOzXY0lLwRh6Y0cOS+5EIjIGngOCZu4Ez+dOneZEEUKzRb0VBy2vqN66PL9Tolt0ukgTP50+XHgQJeTXZT3NBsR0MJWC2gBo4thGYnNJRQRAE3cGwhNPtBQwmhip+ZLEADxxZCcxBSystKlIYSfFTQBo4thOawpKEUd+RpKMFFrQ0cuTdJyT0UQtO2uKHUvB/aWI0CeWhdSdLAsYrQzFrrY02U8siK3IuUe5LNx4Fo4GSJ0NREQwm20MDJDaGZJxpKSIMGjhMITVfQUEK7+JlJGjhOITRdRUOpmGjgOI/Q9AUNpTC1NnBkNQnnEZo+oqHkL8+nloPQDAMNJbdJmR3v5aaB4z1CMzQ0lPJHAydohGboaCjpoIFTGIRm0dBQsiN+ZpIGTuEQmkVGQ6l/NHBgEJpYRkNppbiBIytJSm4YhCaSFbGhFDdwmFqOLghN9CfUhpKsIuW+JA0c9InQxGB8bSjRwMGQCE0Mz+WGEg0cWEZowr68G0qtK0lKblhGaCJbGg0lGjhQRGhCl4SmvEt+2IZS3MBhajmUEZrIV/Ne6CeWVqHdSvm4gcPUcuSM0IQ74oZS3JWP703KJ6tJAAAAAAAAAAAAAAAAJ0TR/wMgqC8XEwbYwQAAAABJRU5ErkJggg==;" parent="1" vertex="1">
                    <mxGeometry x="91.66" y="286.77" width="34.69" height="50" as="geometry"/>
                </mxCell>
            </root>
        </mxGraphModel>
    </diagram>
</mxfile>